<mxfile modified="2019-12-12T10:00:22.336Z" host="www.draw.io" agent="Mozilla/5.0 (Windows NT 10.0; Win64; x64) AppleWebKit/537.36 (KHTML, like Gecko) Chrome/78.0.3904.108 Safari/537.36" etag="DmlV0ocD0E2az-Srnguc" version="12.3.9" type="github" pages="1">
  <diagram name="Page-1" id="97a40813-6b03-0c74-37c1-0168de264b11">
    <mxGraphModel dx="911" dy="497" grid="1" gridSize="10" guides="1" tooltips="1" connect="1" arrows="1" fold="1" page="1" pageScale="1" pageWidth="1000" pageHeight="450" background="#ffffff" math="0" shadow="0">
      <root>
        <mxCell id="0"/>
        <mxCell id="1" parent="0"/>
        <mxCell id="NDK0GwqyKnv-CmoKG9JU-1" value="" style="shape=image;verticalLabelPosition=bottom;labelBackgroundColor=#ffffff;verticalAlign=top;aspect=fixed;imageAspect=0;image=data:image/png,iVBORw0KGgoAAAANSUhEUgAABhYAAAJvCAYAAACXs+tYAAAgAElEQVR4AeydC3wV1bX/f0BIgAQ1kfKShzz8G5RCraCCVlGvcL3K9QpqRYvUqqhofZZXwUeRiIKPVgUraCmggAp4MbQUrEC9FlRsBauANYCAQEAMAgkkITH/z5qZPWfPPjPnlZOTBH7DJ8zsPXuvvfZ35pyz96zZazU4cKi4CtxIgARIgARIgARIgARIgASOWQJLl/4ZvX78YzRu3Njq4/fff2/tGzVqZO2rqqrwq0eexGndehyzDNgxEiABEiABEiABEiABEiCB5BFIS54oSiIBEiABEiABEiABEiABEqirBI4ePQoxKDRs2BBiSJC/Bg0aWH91VWfqRQIkQAIkQAIkQAIkQAIkUDcJ0LBQN68LtSIBEiABEiABEiABEiCBpBIQw0JFRQXUKgUxKkheRkaGZXBIamMURgIkQAIkQAIkQAIkQAIkcEwTaHhM946dIwESIAESIAESIAESIAESsAiUl5dbhgQxLihXSOpY9txIgARIgARIgARIgARIgARIIFYCXLEQKymWIwESIAESIAESIAESIIF6TKC0tBRpaWmorKy03CHJcZMmTaxVDMrQUI+7R9VJgARIgARIgARIgARIgARSSICGhRTCZlMkQAIkQAIkQAIkQAJ1n0DJVx/g/fW7URqvqult0PMn5+HUrHgrpqa8GBbS09OtP2lRYiyovXKPlBpN2AoJkAAJkAAJkAAJkAAJHE8EmqPnJRfgglObo3G83a44hC/Wvo+lGw/FW7PGy9e+YWHfKjz0wDx8ic64+ZnRGNCien3e+86TuGfOFqDrEDz3cD+0rJ641NUO5LAJf7jpWSx3+gOnf/1HvYRfdA9Xz+2/cSqovF7ss1m3Y+K7AC69H/OH5eqneEwCJEACJEACJEACxweB4o+x4NV3sDOh3n6Gz/em4d5hvZCZUH2jUunX+PtbS/F116vx097mILkUm5fOwSpcjOsHdEVmDA5OxRWSxFWQ4M3yp47FqFDnViz0/A/cd35rZKAc2/7+BuavN9jEmTznqutw8SnpQFkhVr7yV3wUZ/1aK55kDrXWDzZMAiRAAiRAAiRAAsczgTMvwOW9OqB5Qgyy8YNLLsCujUtRzSGx3XrXPrjl0lxkf/MPvLLoU+z36NQBA2+6FD/Cl3g7/32s9570lJREuGHhu6/w+c7isIKRM7JwSrdTcVIME5rIcng2jMC+QmyVzI6tLSPJZ7u2AOiHc0yjwmfzcP3kVWHVVcbyybdjOfph/OwhMKtaZfatwutiVOBGAiRAAiRAAiRAAsczgbJSlFWn/4dLcQSovmGh9Gu8O2cmPtwDYPNMzMXNuME1LpRi859m4PVPvgMwDy8dvhq3X909qnFBBW4WF0iyKeOCHKvVC0Fdzz6rDy5r2yzodED+YWxfvQYfRJmQBFRmNgmQAAmQAAmQAAmQAAkcGwSaNop/pYLe87RGCRoldCEAuvbB7Zf3QIemAE48B7cPAl5yjQsdMPDnl+K8lukAzsSgQRnAoncjGhfCDAv7/rUUi/+2z2g1WrIFLmp9J84/OVo5n/Mt+uGx2f18TjDLIlC4G18C6H+2rCDYhI/k4X/XNp6VGPoqhdOG5uGxy8w32vZh2YRxmFmwChNvgo9xYR+WTZNVI9xIgARIgARIgARIgATqAoF9a/Nto4KlTCm+WqaMC1maUcHWtHTjW/hrj+646rTImktsBdlkpYL6kzwxKkg60nbm6bno2UEmGfFs5Wi+Zw0++DieOk7Z9X/Fb5PySlYCbbMKCZAACZAACZAACZAACRyDBC7olWsbFay+NULzrsq48B0ucI0KdsfTTu6Ki895F+uXBYMIMyw0zToJmSfE61H2JGRlBDcS8YyPCyDdJc9zbRfbro0sIeFv3Ltl5XzXIRjfx781TznT7ZL7tn/IHVPoYX14m3YLjosiS9ZV2PnAs1hunVAy1HnJVHmabm6bzvlR52onlSEglGWvOHDSBfNwzwTYrp72rcLz4vpJrUYQnjcpI0E/jB8FTJSVDMJm6IeYOGcVXn/nMnTXjA9733kFMwtCbfGIBEiABEiABEiABEigdgm06H0xTl/7Jr44rPSwjQuvfNYEe3bKSgVta3Uxzu+ipQMOxd2RcnmkDAmSFhdJ0WIsHDpShoryRgGSg7LLcESWbySy+bgAunzIz9AjG8D+Aqw83MF2bWTJPoBPp+VjqdaOW1byygrxacB7U55yptulSwZidO6JgJbvulRCeJt28+fh1hFdcbJVZzuyzpdj2ZRLJ3Vez7NrWv+7bTrnNxVpJ3lIAiRAAiRAAiRAAiRAAokTeP/jLejVNhc/cC0CjnHhrko0zzReIjqyEx9H8R/qilEqZZ41BPeepVK1vH/3WdzjUWEVJk5o48ZO8BoLABTMw8SwB+ThD+mBLZj5wO3YqeIUdL8MN3ddhZkFWzDzT5sw4IpC52E90H9UgOsgVy+R9aybsmRPexLvF2zRVgBImXk4Rbkh8hgVpOoWzJwsxoH4t8/+pOJTDEF310ij5KzCxMn28Wl9uqP7Zf0wftftmLjmM+y9TMWf2IQljmGi/6WrsJzukBQ87kmABEiABEiABI5rAi1w0Z2xr8jd938vYnrcq34jAG6Si8HDr8bC6W95jAt7dhovALW6GMNvuQAtYnBJKkYEWaEge7VKQdwhiVFBGRqCNFq/eG5yfLoGNRBPfnZXXCwGBnc7ET1u+Q9868RO8BoLAGS0Ro9T3MLOQTdcf8vZ6Oh5OSodHc//GW49+VW8vALAigJs6yRl0tHxjPMAZKGvxGkA8O0mryHDlA6IrK5adjo69roO952fjlCTUmYgLl/vyPIYFaRqOjrmttZk8JAESIAESIAESIAESKB+EyjHlhUz8UqMK3ovuP5mXB73quEIhAr+hllL0zDs8q5e40Km8QLRkZ1Y+uoSvB/FpWkMU5AIytT4KXnT/yXMn/0Snhva2W6t4EN8Yr1x5LgFAiDuf6TM/Nn3o7+p02fv2G/jS/Bjq8xLmD/Kdr20fNEq7LXKt8CAEUNgrR5/91lcbwWTtoMY+wVINpuwgh2LbEcuxKggAZD1PGzHTudNqc/+4cRC0HQaf6kutQUGPKz1xylnM3CYWIGpbQanDb0FA1po7oxU2884fQLQqY3tHqll285AwW6n38Bns+yVFmJAOUdXgcckQAIkQAIkQAIkQAK1SyCru2VcOD0otEEcRgXpiBgRxKCgx1MQg4Lk169N3v5/FU9OexUrd5bbqmfkoHNPOTwPpzhGh7Kd/7DKPDmtAN+aHbykq21UkGDO02xZT246YJU6udN/OOPijZj/caEdcyO7K0ZbwaTtFROW4cGUaab3F9jtO3KRkY4MMw9NcaKlN3B5K1kdYa+wUDp9GmUyZzbJNAmQAAmQAAmQAAmQAAlEIrB/47uYtbQA31QElIrRqCC1w1YslHwyDy//X2GA5KDs1uj3iyHomRV0PsH8S6/CACdcQMuzzsVpc7RVAJ994rge6oefum59cnHl0M5Ybr2Bb7fpPsQX90E3zfMq4jxgbym5Lfrhl0M/9LpdGiZxDaJvdvwDAN3PQn+ssvTyy7MlhQwi/QepVQNA9yuG4LR3lQsjp00ncLOsNmiJfVi2xnZ5dIoKoWAx6Iybz2oB7FuF963VGv0wXundojsu6Ap8WdAZpzgvO7Vs0yHUoc/mYaKsULj0fogB5bN/hE7xiARIgARIgARIgARIoA4QyOqKH3XJwhf/KjaUaYIuvbrHtFJBVTSNCsrAIIYFFX9BlTX3Pa+6AYM6BVk4zNIqfRhfvDMXcz9X6STt92/HfCf+wkdfFaHvKa1DqwAu+YHjeugAvli80WnwA3y6U3edpD3Ez2iNi0f8DBfrqmU0dWQAWP9XrD71Oq/bpXkf6KUDj7/d45Rb8Q2+zT3RkumXZwsIGUS+3fpXqFXnSzcU4nRl0AhsiSdIgARIgARIgARIgARIIHYC+zd+ic19OuEHLYyVCvIOzddb8XmML7eEGRaOFH+HkoPmxCWaYt+huMxaHRytYI2ftx+cx+pWyF5F0N3PeHHpWegek7ahh/ah4n55obO+Ry1aoxPguE8y3DfNGYfr56haEoDZjpnwSJ/tADpADA173/nQruurt11GJNiGFlmxsQ/LFsnKic64+YrYDChKA+5JgARIgARIgARIgARSQaDUDtQcZlSQtp1zDW/DT3ueFJMyFRUVaNy4cVjZWAwLzZtmIC09fOIRJsyTkYGmTT0ZtZb46NARXAzDb2ygNs4qAj/jxf5vPLEcAkWgHMVhyyT88oIlWGfWF6P4fIQMJ1GK8zQJkAAJkAAJkAAJkAAJRCbQAQMlULOPUUHqZZ/WB7dcBbyy+HNEsy+EGRZa/PByXJUTr2Ehy11yHFnxJJ5t3cZyXfSlIXLvbnnY7rOJeyD1Jr/PaetB+zRtxcC7z+IPZ79kvcnvWzzhzBY4RdytmrEgnNUJCYt1Kp7WVi1nENvBZ/YqBmVs2LcKr1srFM5C932f4XVLBzvexEy9YXEH9W5Q0Gq9II9JgARIgARIgARIoAYIfF+MPZu/wj7Hy008LTTJORVd2iR7GW08GiSrrGM4+MQI1OwRX4rN+TPwOmIzLiiXR2Y8BTE4yF+k7fMvNqHtofhXLGzfHElqDZz79gjKcGLYg/hzmgdYOMQ1UcQVCN1wfS9tRUR2V9x6yQd2DIakqn/AelHr5FAABlt6zywcC3dzUlFRGAmQAAmQAAmQAAkkQiC7Ky47pyOyw56GRxd29MA2rHq/IOqD9uiSaruEY1RoGemFm0bIPj0240I4ypNOxZmxvfRUuyTcN/xX4fV3LkN3yx2SCkQcUq372f2Ad1cB7y7GsityLddKe9950nZ5JLELrFgF8iq/E4sB/XDz0O2YOWcLlk+eh3NUwOWQyGoetcApHW3DgsR4uLK77Q7JDsKsREuMhTxgwjjMLHAe8DsBn/urgNOwVymoGmqlxpduYOZQzAXb2LAJf7BiR6gVCvG6u1ItcU8CJEACJEACJEACNUtgz8qZeGVNpAfqkdo/Cefe9ktc2ipSmbp/ruQfb+J106jQ6gLccu0P8P4fvAGdxbiwLGckBrSP3C8J0izGBRVXQfYSyFk2ORdp2//JGrzxSaQSdeSc+4b/iTj9qm5YarlDOg89nKDLSsulew6gR/aJQHYHXN/zA8u10jlXOS6PJO6CEwgaKhYDDmDbzqboeEo6Ts4diMtXRAverFqKdb8RBw6fbS1NsGM82O6QLj9DM2rEKorlSIAESIAESIAESIAEwgj0u7wf+rWLPOYNq+RmdELL7wvw0mo3o14e9Lz6IpxnGhWO7MSq947gzEu9AZ3FuHBDv88x1QkV7NfhcMNCRSlKSiO/sRQuKA0ZWU3CAzaEF0xiTiiewpceV0FGE90vw81dV2FmQfib+aEYB5vwh8k2pdOGXoYBl+3DzjkS1HgVJs46y17p4DzYh26MMJqKNenGU/CL++AK2YedsqKgaxtIDAh7JYbXxZJtTFiFjz4bgu4qvoOPTJ1P/1GjnbgV/fDYbDuItWrys1m3uzEXIq/uUDW4JwESIAESIAESIIHkE/juu0SNCqLLd7CqV9uwUIHSQ8UoMd8gD+hucdzj5wBBTnbGCdnIbPgVSuzn/oAYFW6+GK3SgMHDgYXTNeNCs9ZoEcNiAhVjQYwJ6k+MC2JUMFcxhGnXugN6nhzpzaawGgDK8c3n27HL71SN5YXiKWSccjZGjzjbv6UVBdjW6Wx0zEhHx/N/htHnh4qFYhych1tz7YDKZTsLMH/xibh1RFecjBPRY8h5WCorHS4ZiNFSRjdGhETFdeTGU/CL+xCXJBYmARIgARIgARIgARIwCWQ3TdSoIJIaoak9LDTFxp1Oy+qKnmfGVq15+JP72CoGlDp0uAwVaBZ6hn9kJ955cwlWFQIflwPDLteMCxVl2B/FqVGYevvWzMT0v+0LaD4ouwUuuvNOnH9y0PmayW952Wg8B2f1gTTRdQjG9/kQE7XgzYD+9n9ID/3N/89miRHBrv9La+VDC/xiVD8sF2ODcokUqlr9oxb98NgzwEPWCgIR1xk3jzoX70/WXDFFC9ws1ZQxwVn58ItnhmCrkikGkBHA8yoNujaq/oWjBBIgARIgARIggeOHwHf48NVn8WEtdTjttCtx++AjmPbmJpRqRgVLnazuIeNCeWtcNHQozo5hHC6GBbVK4ejRo0hLS7OMCrKKQQVyDuruBf0uxeUd4jcsbGk6E698HCS1ZvI/WvwGoFYfSBNlhfh0X46xamEj5r8CXH+LGBdCeny76VXXzdHlQ8SIYNdf7QSCfnnTD2xDgnKJFKpa/aP1f8Vv8R+4zw3WXI5tm4rQOperFqoPlxJIgARIgARIgARIoC4QSEeHcy5Fh1pSZcuyNzC34XW44YfZSNOMCqLO/o3vYhYc40LDw9jy/v9ibpRxfIMDh4qr9L58t2YGpr0br5uc1rhoxG04P0eXxONUEHDdOkWNIWFro1Yl6IaVVOjJNkiABEiABEiABEggVgIl/5iDqUu/QrxraC35aadiwIihOPuEWFszyn3/FZY9Nwf/iPJ2jlHLTWaePRT3Xn6qm67uQUVpKZDeBGkNfSRVlKL0+yZoEsPz/qVL/4xGDRogKysLTZo0QXp6Opo2bYpmzZpZxoXKyko89MRzOK1bD5+GgPOuGYqBnWNYFuGpXY4tf52JV/7pyWSCBEiABEiABEiABEiABFJOoNfVQ3H1afGOZx01vz+Mz5fNwdx/Jah2dh/cdXMPtA17xT82eRWFn+K3s9ckLcZD266d0OTbrdjiF525dQecmb4fn28/FFW5MMNC1BosUMcI7MMyKxaDrVagwUC5cpJiMRoh6lhHqQ4JkAAJkAAJkMBxRKCitBhlCVgWGjXJQpMEB+wu3u8rUHq4FJVuRowHDZsgs1l1G4+xrTiLiWGhqrISJ554omtYyMjIQGZmpusG6eEnnw80LMTZHIuTAAmQAAmQAAmQAAmQQJ0j0LZrV/xAW60aq4Kl3xbgi3jfwzeFZ5+CM9s2DbkhMs8HpSuOYPsXO5NmVAhqJpF8GhYSoVYH66iVCFFVo1EhKiIWIAESIAESIAESIIFjjYC+YkFWKsiqBfkT44JykUTDwrF21dkfEiABEiABEiABEiABEqg5AnXzlaqa6+8xK7n7sJcwfxgQaGBIQtDpYxYeO0YCJEACJEACJEACxwEBFUtBBWxWQZujxVc4DtCwiyRAAiRAAiRAAiRAAiRAAnESoGEhTmB1vbgyMNR1PakfCZAACZAACZAACZBA7RMQY4MYGiTGAjcSIAESIAESIAESIAESIAESiJVAWunhkljLshwJkAAJkAAJkAAJkAAJkEA9I9CkWWaYxt9//z3kTxkWKioSCGgRJpUZJEACJEACJEACJEACJEACxwuBtJYtWx4vfWU/SYAESIAESIAESIAESOC4I3Cw2H6RSFYmqE3cIKWlpVnGhfLycivOgpzLG3W7KsI9CZAACZAACZAACZAACZAACfgSGDf5pfgDUftKYiYJkAAJkAAJkAAJkAAJkECdJiCrE9QmKxTKysosg4KKvaDOcU8CJEACJEACJEACJEACJEAC0QgwxkI0QjxPAiRAAiRAAiRAAiRAAscAAQnSLO6PVLBmtadh4Ri4uOwCCZAACZAACZAACZAACaSYgGVYkLeVdu/ejcOHD6e4ebu5Zs2aoU2bNsjIyAhrn7qFIXEz6jO3Xbt24ciRI25feEACJEACJEACJEACJoGmTZuibdu2HCOaYKKkg8aIypAg1cUtkoqvIMYG3U2SEs9xuCIRvg9iLCXJLZyXyonGjXMERYp7EiABEiABEohOgGPl6Iz8SkQbj/AZuR81wI+bZVgQYM2bN0f79u39a9Zw7nfffWcZNk499dSwlqhbGBI3o75ykwlDeno6TjrpJLcvPCABEiABEiABEiABk4C89CLjhk6dOpmnrLEjx69hWKyMoDGiGBaUMUGOxaAg8RUkr3HjxmHCOA4PQ+JmBDGWAuTmYgo7iMSNc4QwXMwgARIgARIggYgEOFaOiCfwZKTxCMdxgdjgx81ytCo34oknnmgvi66CtZfJhvVWUwrS0nbQagldt1Tpo/ou+5NOPCmibnJeL48U8FLtxcItlfqIXqq9SLrJSgWxcnEjARIgARIgARIggUgEZLwQtMJRxogch/mP24PGYbIqQWIrlJaWWnsxJjRp0sR3tYJcF47D/fnKmDeIsc5NjYvV2D1V6Vh008ftqdQvkm6cI0T6NuQ5EiABEiABEggnEG2sLL+7qRp/mOOJSL/5+hizNvSLVbfaGC/Vt+fQYTEWquSKaluq01rTvoep1sdsz1TKPJ/qtKmPmU61PmZ7pj5MkwAJkAAJkAAJkECyCJjjjlSno/Uj1fqY7Zn6iWFBXI+KQUH+GjVqZBWRZfTWxMmsYKRN+alOG+og1e2b7Zn6mGmzfKrTpj5mOtX6mO2Z+jBNAiRAAiRAAiSQfALm72+q09F6lGp9zPbqm36m/qlOm7xcw4KaTMiEQx1L4VSnTQUlXZv6SP+jbbWpXyTdRK9UXz+zvUj68RwJkAAJkAAJkAAJVJcAx2Ghl4KijcNMVoq9rGIIGvOadVKdVjoG7VOtj95ekE6SL+XM65HqdJB+qg+p1sdsL0g/5pMACZAACZAACSSHAMcj0Z9r+5FWYyU5Z45fUpH200nPq039dD3k2DUsqBO6cpKX6rTSI2ifan3M9ky9zPOpTpv6mOlU62O2Z+rDNAmQAAmQAAmQAAkki4A57kh1Olo/Uq2P2Z6ffhJXQcrJXgVtrqystOIs+JXX80z5qU7rushxqts32zP1MdNm+VSnTX3MdKr1Mdsz9WGaBEiABEiABEgg+QTM399Up6P1KNX6mO3VN/1M/VOdNnl5DAuijLK8pHpvKqana1Mv4RBtq039IulWm3rFwi2S7jxHAiRAAiRAAiRAArEQqM3xTiT9alOvaOMwcYEkAZvVJnEWxMjgt9Xlfoi+tamfHy+VV5t6Rbv+dZmb4sc9CZAACZAACZBA9QkkezxyaOduNDilDTIrirDn2xy0ahn5OXK0HiRFv9KNWPyHFdghj29lIa+zz/rhNRj2k1aBz7kj6ZYUvRyPQDIui1deJN3kXLzyklne1M01LEgjSrna2JuKmem6ql9d1Uvxq+v6KT25JwESIAESIAESIIF4CSR1nHOkGGXpWUhvFHoTPpr8aPpGq1/T5039pL1Dhw4hLS3NmmSJcUH9BRkWREZN6xlNvtkPlY5Wr6bPKz2C9jXdfjT59U2vIH2ZTwIkQAIkQAIkkDiBaOOFWM8XLRuPm55ehy7XP4BLvnkJU9/NwM+nzcKQLpGfJwdpHlO7R7Zjw/pCHAoQkt7hR/hRdhl2/P1tvL3PKPTv9hjwk/9G64Dn3UbpsGRM+hnj5PI9BdiwtQjlAJqfcga6tJW5RWQ+Qe2EKeRkBJVPVb6pl2tYkBOiRCKWlKoDH2HG+KlY1/0uTL71HGQ2jF+OqZieTkiv7/dgxeQJmLX/HIx+aBjOaB6/hUi1q+vid6zKxbX/fgf+MvkJrDzllxg/NBfNE7BgSXuRtrj0MdsvLUFZ40xkpDVAVUUZSkqOogqN0fzEjJjvk0i68RwJkAAJkAAJkAAJJINAtcY7zvjnu/97EnfmrURJl8F48snbYh43RtI/GXolNC53xvN+uonxID093TqlDAmi59GjR13jgVmvWv04uBbTx0/F+u534YlbeqO5jCvjnG+Y+pjpeOVVVezGqqcm4o9FvTHm4Z8jNzP+eYu6LqYuejpuvRSXim1Y9tRkrGxzFx4adgYyVX6ce10Xv+OE9Tt8CEczmqOxzPe+P4pDxWVogAxkntA45nmknz7MIwESIAESIAESSD6BuH/vDx9CydEGqGqSieYZ3nFbdvcfoT0+wsbFL2BHZTHQYgh6d5bnkt5yapwk+2hbJP32rJqI+574CEdb5SCrkb+kLtc/ix8N+BFGTHsMGPFQmHFB5MN83umk/SXauZH00vunyu1eMx1PPpuPjQfEpKBt6a1xzrV3YcQNvdEmjnGwJsH3ULVbG3tTIXcNtChjbWoXa/rAR5g64iEs/HchNi96CLe+WmCLibV+5Gfjrr7x6VeOT166D0+u2ozC9fMwevQMbDikOuZ0M1n6KbHxyKvcjgUj78KzqzZj3Wv34bYX1uFQPPU1i5gLKOggAf22Lx6Dgf8zGNfcMwPrDgDYtwzjrxuMa64bjbcL4+QXpJeWv3fhMOTkPI21Wp7f4dopOXj6Y/3MXiy4eRgW7NLzavZYdBi2cK/WiOhg6+Xth52fMyVarzRRMRx624ihgl+RXQswLMdk6VewlvM+fho5Oam9vkE9dq+7oVNSrofZqNGGeTp6OtK9F7pfYbRT//riJSHXKOfmBdA/nd4SNZ3S2Po25VyXWtXRV7HomdZ3RvTv6OiC6lgJ6Vci18OsZ3yWkt9L7d5KWlv1+H40AScwzhER+riy+INnLaPCfgDlmxfGN2409THTSdDP1DeutKGPcoGkJkQSW0EMDMrIYBR3kzqvmNs/uNadIxQsegi3vbbZXp5u8I9FnquIeRA333Ksm34/nlhZYM0RRo2ajo3F3vshFn1cHqY+Zjpe/Sq2Y+Gou/HsygKsm3s/bn1+HYoT4BVNP/d8nPpt/9/R+O+rr8HgX07HuoMAvvkLHrruGgy+bhTy94iiNoBo8k1MQelYxyacIwCxsgpibeVzjhARj99JzhH8qMSQV+3xjDOOiWGuzTlCDNcj0SKcI3jJpXyO4G0+YirG3+eqqt3IHyu/64NxwyvrPOPlza/fhWEP/BGbTx2GGQsWYsHch3DxwYUYPeznePY9Ga1EGE8FKBdxvHDk7/jjM+twzmNzsXDWLPzxD390/2b9IZR+qH+2Pf7IbI9u/y/b25qj1QQAACAASURBVJLT76DxibdweCqifqq/lYVY+Zvr8fNHF9pGhabZaN22tf13QjpQXoiPXnsIw3/xLN7/Rl0Iu61o8sM1cnKUmESfI1e3vqGYa1iQfOmU9c9RLmr6wEd4YcRDyNeWm5QcPOTefFHrG+0ZurlJBTt2eeXY/02JW9+dJBbH2T9HP1eQz0FcvERe5TYsGHU3ZnwesmLtXzLGMi4UGzxi6a+PSm5WLPU9+lcU4f1nhuHuFzcg5ycXo9uuhRg9YgL+srXMlSmf2Fivh1ap+oe7FuCFSYaYj+dg+GIjr0aTe7Ftw0AM7NNSa2Ubti0ehwt7aVnWYUtcM7MIRSN7myeYrncE/K673YmWg2ehqOhB1KWrvHfhyAifi6D7Fah/ffHeSL1HFqFo5jXQP53eEjWdCmZb0y3XuPxd25A/9sI6dZ8no89rXxuO/AQEhdXr9SCKimbhmrYJCIupinZv1XhbMSlUpwp5xjEJjKOK1n+CQ90G4JIu9lv80jl73DgPBRXRx42RYMQ9DktA/0j9j6Sbcn8kZdTbZGpv1ot13Ofpr2NU0Jeklxw4FN88w+Fh6qOnI/Xfo487zylDkTlHGDXDNS7EK0/XxTz2bz/COLpiOxaMusuYI4zGbZpxIR79TH3MdFz6Ve7H+8/8HHc5c4Qzdi3EmBGP4S9bQ/OZuOSZylQnzTlCdeixbrUIcI5QLXzVqBx5vuMVzDmCl0dSU5wjeHCmfo7gaT4wEfX3uWI3Vky4HkMmvI2Nm9fi/U22qPIv1mHj5pV4dth/475F23Doux0o3F8O5GQjq1EVqppkI6dJOYr3FKGwuDzwOWGgYs6JQP0OfIvC8otxca/M6OPHyt1YkXc/nly9H0jPRFbTUKuB8tVD+VBRz5HUky1y/WKsm3Y/nrDabY0BY/6IxW/OtQwgM1+ZiT++8TbmPjoQYu4o37MMj903FesOW6O5QF6qPY8yRiKe8aCSF1t/ovVXMx5pOrmGBdVIkCUn7PyBjzDtroc9RoX0M0dg+h0/ssSHlVcXLcAyounkexifvEz0e+AZDDvTO0kcM+pla+IgDcQnz1clOzOgP77yK3dYbyG9rBkVlGTbuLAexfHIU5Uj7WOVV1yA+aN/jseWl6H3/U/gvu7dMOSpURjQaC1+++jL2KjaiFWeut6q3rGw3/Ue8jEQF+oPjz5+D3nH4AO3Y+FyJa0Pftc9acKTLGjXAoy8LcKj0vp0v0brS5LRVVtcfWIbZ2fXrszDuIvrkvkszg7U9+LH8L2VlEsT77hEK7///yZjxOgxuH1CAa58/AkM7qyPGz/CBlnCoJW39DXT0Tphlk912tBPVijIqgX117hxY+tYirljV6OO51ws+jtGBf3FI5kjvHRnz+g8A+T7qGRnBZR3+xJ2PgsXm3OELQsxWowL8k5SWHmnGTWuNc8HKuacMMsHpWWlwmjvi0dK9P4/jbGMC9YrU0H149QvmI9Pf0s2Y96oYZhozRGetOYI1ztzhGcfnRGaI0jVGPVTfTtm9n5jRX53HzOXN7Ajftc9sHAtn4g2rq5P92u0vtQy6rDm6xPbMOUjZ3COEJlPnTob4fe58E8TrQfy+1dPw/13TcV6pfim+bj/riexbE85Nk6/G2vPX4ylc+5Dz3/+FsOG/Bw33zAGCysH4okli/HEf9orBQLHF0qmsQ8s7+jrFo+gP2TFQN79mOw83B/4yCws+ONjGNhCaquKtiSzPVd+wIFZ3kyX/WMWHvuTGDO64dYXZuK+i1pZsdrcZovXYd6LyyBTCmvbl4+pb+0IqRU0fjP7r+qrvepWlPqmvklLKz2cvWtYkLQ0EpPlI8Co8PsnrkQrsVw5nYtZnoJhKKeSCcnL7IKfPjrJO0l0Jg4bnKf3seqn9PDbx8RL+idGhYAJg5JrTRxeWAdZuSBbLPqpun77WOpb+m//CybecTdmfdkeg594DOd/+BjGvDgNY361DO3HPIF7+4aWE8XcXz+FouVZSyJzkJNj/7kuhyS/u/1maV5/293JBnGf1D8PQD6Gd8+B5XLIXb67Fk87MixZ5hJJp5xqR/YeF0vOebd9R++9a/KBKy/0vBEd/GOqL88MdjlhLc3U3UAZDCK5drGXPIe7CkpkKbRdx3QlY3A03RJZuj6NBZYrK/uaPf1xqN+uTOtahOsJRJEf7X5R10VrP/x62/oMW7ggdE9ork9s/uqeexprrT55dfW77ko1nXXYtfTop8uMo98B9yLce11pIvu9WDBuODBjGaZfpeeHjoPvV30JfRz3azzXMMl9CfXKPvJd5hzl8+ReP0c39Z1gfva994n5OXHaD3v4blznKe+ZKltp7+fE+S5zS9oyhi1ca7lcU/qp7wWvXj6uiqL037pnblb3v7M3vy+xFu9NCq3KUpzXej53+v0N2G62zO8Gp1NJ0cm5R7Xvec93uHNfynX0Z2TXHyCr4BYPR67xG+CtI1wU24B6Pt8bUb/f3DrmfRLuPs/zuXXr2TxjvYfD9EngflT3qufzoT472veqe/taB9W8h73CfFPxjEv0cZEYFe56fB1+dO8I9N0xzTIuXPG4Gjemo9udo3DlyZb0iONaX6WcTL09yfJN71uH/JlTMe3F+fjLv4uscXjx9o+Q/8dpmPriPKzYUWzV2//lMsx7cSqm/vFtrHOWUfvKEwkRxtViUNDdIElsBfmTuAtJWbFw8CNM9Xnx6KUnB6JVw+g8/a5nRMZaf6PxcM8364zrf/MEBumGpC0LMWbUDGwoCfFzy0cYl0fULdZ5lWNU8HvxSMl35whx9FfVDdrH0r+qHaE5wqAnJuD8DyeE5gijJ+E+bY6AWPsb4f4M0tX+XQn9XrnfQ/KdyDlCGDb7+9r4bZaRovXbrX7Twqr5ZqjvfjX2sAsZv12cI4Sx01nb44pw7uHXKQpXvZUkj6s9Yw29Hc99wzmC+93jMAobM/qMh8LZGtc5gTGZGtdxjmCOm4+vOYLxUQ1MRvu9b/Vf43BrrqqejvbnDsDA/x6IfqeFXrjJ7D8e159RhZL1f7cMD5nd+qFXewAlK/DRvyOP75TkoH2wfnaN4PPynLUQKx9/wFmp0AWDH38Bd57VDFUn9MKdLz6PCT+/AK2ijE8i6SXngtsvxt/fyoe8+NH+p/djUDvjOW7xOvtl/D3lQIuLMepXVyITwI7X38a6yujjzSC9LJ1iGQ9+s86dT/zlyyKrHyU71lrzDpljrNxuu68q+vdf7DnGzHys3xepv6H+mbqFDAuOxcMtEJQ+uBbT7n7Es1IBHa/HE7++BM1LSlBy0Pk74OxLnCWyQfLcBqMcRKlfrtrT26/sgCHjRmGAZamy5ZdvWYixo0MrF9xWo8h3ywUdRKrvGBUiTRiUWJk4DJ+6HiWR5Elh87wSELQ3yzvpkvUv45e//B3+josx6plbgekP2JY+kXNkPV6+/zGsv2ACnrimC9KxEfOmr0RhpU/7AfKD1AnPz8OAqR2xqagIRfK3fBzyb8u1H/iL64fPpmMggHHLbXcnZ4gLmuXjAAzE9M+8Lofy+g8ApJwlaxnGTRpgGx6kURmEdZeHr5uc83Zbef21wXfbazCrqAizButOVfbivSUw3CB5H7iF90nltMSFVw4EFufjPU88CKkPDJwx1HIxYg0u++fZfbR034TpGI5cnwGKSG7ZZyAGIh/5a3Sv8qJnPhDHKgppN/e2fAwUJsqVjDVYHYC8sctcTptmAMO7a5ys7uVh+JKB7nV7ULmEmjQAIzHFqbsJ068SA5A2oI5ZvmLov5fBXO5tsO8B/XobzPJvGx66J6w+qgeE47DMqif3ATDAMlbpbfldd/186Lj3xXI/5uE9Iw6IfT3utt2kxNvvthdi4FVA/pL3PLEDxNiRj9DDXtFi7ZRcDMd0TBncMaSU5yi596tt3IjlHnGUSGpfPB3zTcT+ecrDgHHAFOc+2DRjYOi7x+KagwGTtPukyPlceh7AG2x9rvMyDA9zURV4/3pkA/m3DcC2u5zvNPkudB6Gv9BZfY/JZywPA7T7PrD/nofk9j3jfu8W2d+XnkmT31tWi4djgPa5j/W7IVAnV2/5XEbTSSZjRpnl4yBGZ69xQbjl4r2Ltd8CKEa2q7plYwFcNd36/lLfXXJNBmyw8+zfEJ1tcD3PTehz/W1Gpo7yvfgeLnS/g8YBkwYYcXyMe8vTkEpEvof9PquJ3I/iLk2Y5d820oltZBsz5btomfrtUCoZ+/jvYf13zRAWlIw2DtHOK6NCz3tuQtb8l7HqIFD++TTc8dhmXDlpAkb86vd4ZmBrb0tafeuEmfaWDk+Z5Z30+vljMO2NJch/exZ+d+88rEchVj77CKa9no8lb8/G5GdWoBDrMe9Xv8Xst5cg//VpGPv6+vBxYIB8UxEVpLmiosKKqyCGBjEqiGukiHEWosmX8zJHuOthLNFcpOLU6zHp1xejebE2R5Cxuozb1RxBlIwm3+yImY5Qv1y1p+YIsq/ogCG/HmnMERbBWt2srVxwm4kg3y0T6SCofuUOLBrzS8Q2RxiL215Yb01go/Iy2zN1M8/7pEs+fRl33/1b/B39MOoZGWw96J0jPDAR63/yGCapOcKMVfYcQdrykWeqEHuac4Tov59empwjyLiYcwR1V3COoEjY+9g/T5HHV9aYkXMEr6tUzhHC5haeuy/JcwSP7FgT5u9z0Was/3g1NlvPqdLR7Y6X8NIj92LEnSMw6nev4Ykr7JeMS7avx9pNO4A+9+P5Ub/BM78ehhGPTsKoR17QjBIJ/P6b+phps1/6eceoYK9U6IJBeU/g1jPk0b2zZXZB7x6hl6StXL2+Khdpb5bX05UbsN569tMNAy8VK4vW/5L19nNzy6jQD+OfHYV+lwy0nwmVr8TaL51GdXl6fed01F2E+utfH+vOJ357jz3HWPHMw+68Y/KzK1FYtR7zRv4Os97Ox5I3pmHMfHe9it10BPm6bq5hQb0hZFljNIuOJ128znoLyTNhEGnb5uOBG6/Btddfi2t+6uyvd/bXXItp60MWLI88acf505Uyj60yjkVGldf1LV41Edeq9sz2b5mIZfoER3xbbVmEMaPFn2qofV2e2Z6pj57208dTv2I38s0JQ4tsy8eWKyc3F91CxkDs/9NY3DbVXrkQTb4rw+fAret7Pcuw/a2xuGHMQuw48xZMur8Llo0ci4VbQr5SbZH7sWryg5iBWzHpvr7A6sm4496X3Te63DZ8ro+PShGyBmJ6nuYfvdeFkMe0n26L/+GCPCBXD4mA3nhQDBCTXrAfhIgfQBhxEmLyWS0+rnugo+4Gadc2fHpVRwQ9xtU723Lw3RhnGgHkgZ2ry1rMERc2Y5dpurfENXn2Q8SRnoDRjmS/B7WyJHcxYnZbIgMrZVTQDSm2f8BxWKbFiGg5eIptIBjnDZA77i7tuqlOXyUPuJVhpiWuucu6mtjmGFbika9Ehu0dn7rjluu+zZ3rvXg45ugP+K+ajqHK6CGCnPgc45Zr8RF6PWg9NPO243PdvQVCqV5DrZUCeSu1NyeM6xF/v/2MUj7Go4+fxoBJxmcopJl9lNT7FajVvph9C0vH83nycrM/q+q7R3znwjDU+cRPMdj6sek9Uh5Qa4o69+/AGVM03/zq+2qA9yG5/r3gfO7lgbj+GbONl9uwzWrC7r/3u9D5PkEeXrC+T+TeBgZ6VmH1xoOGUXXvtk8xsLP5Led9kOx+N7ym3ftiCPZ8N8RyTaLrtHfhC9b3pvf3wv7s5vXXjJfCQeeG3hg6Qwy8ipF2LdSh+k7x6O18f4UZhlWl8L11/cVgEfb9CeRNNb4/Pd9B9ndI/hb7KlqSjXsrvDXJiXQP+39WE70fe49cZv2WDR+3AGudeC6e71F/Bb3XIpZ7+OM5QZLC8iONQ9xz2jio6L0ncfek9TjjtsHIev1F5MuA39nKP38Zv/17e1xxcSsZ1bhjVEtOQFrV9dv7te/mKXlGRbutsExUhdS0Zi2x6GdIsZJiSJA29FULqlykFQtR2ytZF/7ikQj+aj4evPFaXOM3Tr/2OkyVOYJ2fcL4RHm73a+8Lq945URcJ/MTv/ZvzfOZI9gvIKmVC9HkK3Z+e7duUP8qCpE/+m6vUSFsjtANuZ45gryAJAGdo9+ffjqpvMjXU+YIY3DjmEXYceatePw+mSOMwSKfOcLKJx/Ay1UyjzjfmiPcfo8zv4qin9Ijtr33Ow6cI8jrRZwjRLp51O855wjWKlLOEfSbJZbxqCrv/e7hHMH74iXnCLU/R1B3arR9pPHIurl3Y+xvXsbKgyKlH66/opU2/m2GHlcPRhc5tWkhJj9wOx56pxSdL+plr0Jtlot+5+rlrdGFVt9OR9Iv8nhEnmoHjHcqdmPl484LD+m2UeGWM5pJ6bD2I/U/om5B4zfJl79vCrHdEtAF7Vs6edK+em7uGBXGPT0SfWUVdFU7dD5TKpSgTOIsRJEfVbco9b02AWnPlOhcH3OOofoXQb4pyTUsRH2zpArYs2K29y0kU5pvuhyI5Q1337papglBSxcfLIKHhVYt6FCMCzNWuZ6uqv9mjaaP1aaT3v+XKXhRj6nQ4ko8Pm0kztcV63ITnn7+VmPiMBHznaApujy3mtmeeyLgwCxfdRRFuwqR89+/wXP/uQO/+83LWH8koC7KsXnBWIz9W09M+N2t6FZejvIweUZd87xxOjxpPLR3CngesIRX8s3p0VE90HZOt+0YerPfmoxo7pN8Jfhk+ry1G8lFTriE3rhQ3vTU3jyXZZG4yonZYBkZfAwCynigP2hyhYf/mPm9ye4WNw9WPm0ZFeThm25UkKWVspIifNWDesitP5gb6DW2qDbO6OhxGaWy7X088r01PSnHSOQx9kgBvwmnoY8MhGC88S9VO3aWdTHa5nPdtbPGocNn0ntQj1e91yOxfocZpQxjhbUUtn8evA+oDdVkGbOPK6/wUionyv0a1z2iZEqAaMPAlmBfQhIDjuL6PPl/99iS1TUdgBxzmb/WtJetnzFCCrdExzNClex7wzByymmf+zf8wX5Iju+RPIwGEP5d6KyAsb5PnGt8W67m6seUFrBiJ8yg6vRNu/flYbfnsxnTNYmmk2NUU9+bmrr2iqFPXeOlnIqbm7NazTZMa0upw1YyaQ2HHTrX3/jOkevvNf5YGnoZhcmK9XMb6R5O9v0YMt4OCDOG+3TAyYr3Wtjf0cHyfM+Y4w6f9P73p1hGhW63DUL227OxRDMqAOnIveP3mOT4iI1lXOyrR1Cmjz5SNOsE7U2qFpnIQnNkZYeeJKfnZCELOWit2feyT8iKPm4123P0SktLs1YnqL3EXFB/smohcDPlGenCd6sxR5BGDXlh6UDFnBMB9Q8lOEd4eaU2R6gh/fb/ZTKmGXOESS+O8pkj3GK8gJSHeW7ws8j9D8QWwMsuL3OEPcge+CielznChFcizxEW/hpjV/XEb357C7odLUdZMnh5FPf/juMcQf9N9wCzDQ/yUo9mFPeOSc3yRppzBFyov5DEOYJ2g3COYMPgHCHcm4OsBDZfuuQcIfThqYE5Qkh47Efm77+nZjnKrR9xLbO8HLbDHC1PPzTlRUvrdeU4wfKb3/g1pqyR2AZdMGjiJNx6pqxUWI9p//UgluzRGolXvlbVOoy3fvF6vPjLR+05Rot+GPf0KPR1PeiUo9x8cB2v/Dj0884xZD6R5Z1jZGeheVUOWplzDL2NGPVzZxCxWHZann2lBkVvLdJxOqD5VHWtRYYlKZKEaJaczGZZkar7n2txJYZedFLImmXoo/PwF2DnBvVH1T/p7P7o2cSRYBkV7kSPZsbVEUtQu6vx1HO3uMaF9M5Xom9Hx4oVh6VI19XVzbd+M/S48xW8cnsvfLt+OQrNG1wX5ByXf7ISG5pfjbzf34EemZpuvvKNPvrIq5ks42GWNNK2I3q4jdlv5FouMMRFkvLRbbgecYs7B+G+EQMeuJkVtbT14Msd4NsPmb1vC8Ny5+HqZOmWG+Y+RRPpPIRU7pCMN9mtpXYhf7QiV3dxkjdJYlTAcr1huhBR+V5dZElxhMDAtrQI/+d7HvqJy4/qyE/owZOj3bYt/v1o2TF0p0jR8OseoXuueyrlDsm4Hqpq3P32DuDNieHaKQOQ53l7XTWk72vmfo3/Gla/L7Ls2HvfGG+pa922YrKoz3gsnyetrnpgIe5fbFdsjkHSkqO7BDPZ2m/da6LcwzDDlYoR49FxAJxPplsv7gPL6Ba9Vu+Rtis4ceE1wNVB4ymGHzNgvYgNe2juY5QLaD7aNYmqk8h1XEF57oOYH/57jQ+mmqH7S757HRdYlts9s2RQOvj6B9UIy9+wzXF9Zt5bYSUjZtj3cLA+Cd+Pzuosa6XEjTUT1DvoO9qvw+5YJ8I4TsoUvT8Zv5y0HmJUyHl7jq9R4akrW8Y0LrTadNrz00nluboFjJPkfOefvYpFc1/HG/PewKJXhqJzVTNcNGa+lX597ut4fcxFaFbVDlc//xYk/ca8tzDnxs7SekjXAPlKD30vrpCUAUH2ErxZ9uXl5ZY8vaw61vvr9slov1V15ggB+qu2lB5+e1UmiEdWZoJzhH7aHCGCfn46qTxXt4D61hyhqVO6xZXIm3pH+BxBOJ9yNZ563jtHOF+fIwTIV3r47YN42To3Q48Rzhzh02Xw2N/8hMlq8E9WWHOEx39vz3Miy+ccwcTIOQLnCNY9wTmC+xJeIvOd0BhOzRW0Ma3xoYs2HjWKe5KcI4h7ac4RLHfKtTxH8NyYERKRxiM9bpfx5aO48gQRsAoL/7w9NL6sKMKyWfMhz+nTz70XL859HY//B7Byznzb+8uulZiVX4DiCm1MaowPZTwQaYs2XpDafvp3vvZx3NEr1zIq/EJWKshYyHolX9MlYHykytrlg7Wzyvn0x63fsh26WO8CrcXGr+yVCtN++YhrVPj1U79C3xaaPhWbsfETaa8VcrKd/AjygzXTmESo3/nGOXhr3hvW/OGtPzhzjLGvO/OJNzBf5hhoh6ufW+TMOxbh1Z91dllG6r+pW5qZETHdph/GTWqAvLFTsFp3L5TZCzfdfyU6u2YKTcqJHdDrdC1dA4eZF43E73+wEYV+b9wf3YIlz83Gx+IvVW1BD/jV+WTuW/VH3u+z8caf9+PswZeha6bcBAENtLsaT/++PeYvLULvawegc5OgggH1k5TdasA9uPPcHACb8daEOaGo8EmSX7NinIGp6bLIaNR6eDXSzrTdAQ1ADpahSHNdEaoiRoBxuNApb+U7P6ZT9HZCFfyPrDeR86yYCNd0FDdI47DMdRckVSRehO7Wx1+MN9d+UJsnKyH6wHaDdJfzoMd6+/Yab3FJOe6IJF7Fg70cn+b9n8aFRZpbINFmxiZjJUO4qOrkVFe+bQSQ97Lj38IfqNkyvMYKn+serSlnhcnwlWvxYNttyF8sS2i9D94S6bc14ZwkMTouBKwYGnc7/iydVRASiyNnuFe7xQOQI+6R5J6CPfhL7v2a2D1S7b7Iw3D9s+j0Wq0SCUFI5PMUqu058nyWxMf/ACveCHzZdkRH3eWRJsh+WKqvipEH197PnVZc/Ax6k7GmrFVaMRa2XME9aBcWY2T34RiQA0uvjtYqlynhq4+sB9+9Pfl237yGuXANYrwmgToNtUVK7Bff7+rwFuPKsVyK2bF8Qu704pIg7zQGXv94JalJW1yf27BGgvWJ/360he91XCBBDGPjFuDCKPEVwlSKISPoOzqGqr5F9r//FO55YhX29+iHdD+jwu0v4umB9lJuXwE1nJl+QiYyGjRwJkQAGqUj84QMK92ggTNutPIauy6MElVJ4iiIESEjIwNlZfZraeIeSY4lL+GtbT/8elIVHh/7lDFH6I2h912BLo18JJ/QHr27RRgX+1SJN0vmCC+evAF7Sn1qlm/Gn56fg7XGHEEe8PeMNF73EZVQVqv+ePz3OZi/xBn3my8e6ULbDcJTL7bHG8uc+UTTmuWmN60ft/rPe3HnObLKZgvemjCbcwRrBSfnCPo9kozjRMbKerucIwgNzhHUPcE5giJhv3Cpz0S0M+GHgePxB8E5Qjiu6DnBY/LodY0SzrMonyc9RsEYkjK+bNRYFu5a26Y/3IFBy3uh31lZ2P631dh00HkDubgc6ZmZwNoX8dz8VWj8r83oumc11u9rj6wfvYhBToiBGFpMTpFGrXDlo09Ve1xcPWW6oecF6ViyYg8Wvv4iCjctx3LN/VGfk73Pc/f/bT6WiMupE/qip6wS8J6unioBtWWO0dhygRphPqHNOwLERM12TQGu1cV56h2YbnMRfj1JLC+a7JKPkf9uMdr9+Gz0OqeX+3d277PR63TbLU2gvMCn7Jp8w0olZzzyGmWi3Q97wWpPb//HLbFj8fwwo4J6I0jJCJNnyveq4kmJjKj1W/TCdTddhs7NlBXNI8Jbv2Uv/HRYf7dsNPnhkkI5ifYv+9Se1jU8u3cuzO+HaPro50OapPYoLC6DX1wFTSXbPzgA9y1R7aQc+rjDkbco4PFNbtTxTdo+vsUd0gJxg6QHWHZcNHkDMYsQeYjpXWlgilZvOc15LR/5ZiwBs3BY2vS7LgW8b5XrVaw3QdxAq/qZeI6TJF93caU377hcCXMDo5WxJxxqZUHohOctWZ/rHioZdOS4p5r0HhZIgGWPy5Zq9FvdH6/NsY0V7lvC9gocO8isClLr+PK3Am/bhqqk36/VuUeq2Zcg8p581YYnsLmUiP558sjxTTiuYGAbMcPZ+i35FUHO8ldHph1YMfwetAPtmkF+fRUJznRWaXnifUhpGYRKXIWwmAmOqLbXYIrEIYC81R/hbfmwOAVB7nY0FRO9Jh6d1LLzkLsx1YIViM8NTK1y49vbhsXwVW+W27qYRQVffyuQe9gS8WDB4fdWcNngM8H6WPFDnIox34+7FmCk4wLJWsmzeDh8YwAFKxTTGXP1WKRK+rjDd9zz2tKWtQAAIABJREFUTT7ynliP8x97HS+fV4jVntev05F7+4t4yjEq+NaPMs6LpltU/aLIr059P91khYJygyQrFdRfs2bNIAaGoE2xiahPa785wlosWVGM9mf7jNNPt1eISJvR5EfSK2L9hs3Qvoc9N/HME85uhe1vv24YFa6wVg3YRoXQG2aR5AfppdfRj8P4new/7nfl6vdHy7Ot+UQXy+gRXT9Xhs9BNN6h897K2R17OPO809HOe0quomscC9X3nyeFVU1RBucI8YDmHEGnxTmCTiPCnJZzBMiLFxJXMHwcl+QxmX5JYj3mHCFWUp5ydXWO4FEyQkL9JksRdSx7lS7++E9Yrr04Xv71x1ievypkVJCViZ/Px/ItQNXJ7dEO6WidnYNWbbOBzJ5od1JZxN//CKr56qN0tOsVo/hIjOOL0hLHbVOM5SMp5pxTuui8VJ5YY/oM/qn1zLTkb0tco8LYKQ9CGRVU2aodi5D3wscoRzp63Xo1Ttf4qzLSpDqWfaRNnTfLpypt6uYaFvQTSkmVF5b2mTjsX/MURj75N+yptGGourIPq29AMs/rdROpb8mr3IM//fo+vLJB8/HTwp4wmK6IzPbNtKmPmTbLR0+bErzp6PUj32ReadH5m+WDl1TYJZOtX1j7fhnOj6BnQuA8WFYBgVW1/NtG2oGaJUPewBUXGWPvtgOkfvy05UbF4/pHPWwLMBTID4n5IE4Gl5EeXCtdzL318GbxcAyfZMZTcAZot+V6grZabm4wDnd7VjYYUi23FPnIm5RvBGI1ygUl216DuyX+g8at94120Ohc3UWUepvXE9g0SGjk/KTI99FbxRuQwLaeYM2mOirQsh7s1ekfYPvy9bvuphjftPUANQ/Dbwu/Hon327k/JuUZxgpfDcIyk3+/ArXVl7DO+WZU4/Pkkef42TeMafaD5nGW/10/tnaA2zwM0D4/obe8nQac+zevv9et0oJxwxMwEHqUtoyDVqDiSXoQ6L2wZLvfJ7aRJUfTUYwf9sNvif0iLnT8/VpbrpO0emuniNuggZjuGrxMfSQdyzWJppOK05GHAfo1cR52D5wx1FnJ49d+eJ71VrxmJLEfZivXck5593shVN+sFzpjH1mfDXEvpTFS198b0Nqs6U373VveErGlknc/hu6hZbJixDH66L8dsWkUQ6leziqaGIpKkYjjEonzhR7I7QJk/9cUvHh7rvNSVjpyh09zjQp6UxHl+bSn1/U7jldessvrOsmKBRVTQYI168Gc9XL6cVz6tOmHsY97X0CSOcKvnlhlzRFEblzydEUCjuOVV1VRiCVj78UfPHOEK5H3glqp4B1nR5MfoJabHa1+2Hm3pn0Qdj7KPMosb4gLS5rlzbRZId7zZnkzbcqPO805QjAyzhFCc0J5uUTmhJwjeO6XRMcawXNazhFUHD8/tskbk3kuYxwJezwu7mxDz0NC4zv7mUO08TjnCBbwejhHMH9/VTrzwnsw5Wc90XngI3hlwaO4TIX6+tEdeGXO7/CLs9uj/5jnkPvOlRh0/xxsufBBTBlzB3454de4utES/Ob6wfhV/p6o47toN6rSR5WratkD53dchd9P+xt2HCxB8YFilBwscf+86R1YNfVFrOp4Pno4IVfD5EUZP6l21T6m+h1/ikeGq7kF0OpHvdDaeU/Hql++B58umoRb7nkFm8qB9DN+gTsutOOrRZOv9AjaR6tf0+d1vVxXSNKo3nDUdOuLMCavCk+Me9pd8mxNHGa1wuybcy1Z8cjTlfI7jqqPR/9y/P23d+L3ngnDFZj4/O2u79L45PlpZOepPsYrzztlsSdZSpZIjleen4Yxy2sk3xyaAUZr36NnejrSG9o5sejnp1PieY7LHwk0epvjPkS5nemfY/mY3+Q4Jh83YyDyu+dAOYaR5bRF6sG8LOlbDuRIHU0Zz5Jbxx0ILFdAgBWYKE8PCJ2AixzVlgrGvNh+KKmyZW/5cu/4tFe3q6ZjU9E1Hpcjeh37WAUFBQb20fUMLxmUYw1yJol7l6fRUVyzWK5fOlouX3IkkLO1iRuTIttAo7IS3Sci33Nd7H6KS6tNnYchN+h6B+rXEtfMLELHKTkYkKPuhHFYtnwcBvSXSs7b2p7rHijMOOHcq5N8AvMm0m9Huv1GcSIrZWrmfpWHirOKErtHEu+LgTpCMvHPky5U7pNNwM25hqsp5cJoLZ423aRZ1WUlyTIgR9xROfKumo7pY/MxfENIvt/9K8HUk+Hmx7f/Inumcs3lo6OoJt854trm46eRN/ZC+D7elb5AYqSovigeKu2/99XJ8x0XRSdLrJTZhI7GNbFdu/m3G5Rr34fi+kmCn4vrN/X7IL8zTi3R77PpGNl9uO3GbnBLhNXTAl5ZtXw/G8JoVhyGj2p8bsM67MM1gfvRNiCJq6iQ+y5rxd+SXM01mO1Oy/79TOz3KEz9KBlqrBN5XPI3PHXD33DFhLcx9PTe6Jy+Bfj5NEx2YipIE5HrRz/vp6bSLRnyE9HPTydlWJC9bGJcENkVFRUxrVhQMiPq0+YijH0cePzXT2GN8wac9QLS7JaYfXM3S0TE+j7XQ7Vr7kWObLHLK8fq340ImyPkvXA7fmitLLZbiF2eqVEorXSLT79Qff0oXn30tnU56jhmeeYcweWtJDn79HQ0biBzSTsdTb5Ru5pJzhGCAXKOwDlC8N1hu0syXHlFKq6fizCn5RxBxkmcI9i3C+cI+sfG/7NR83MEfUzg//vcDJ1/OhG/s5Tdj85dxZsHkN6+PVqe1Bn/88hUa7y4o/wKXPTlO/jbhk+xsbgveuzfiI0H09H+nIvQt4MET/Yfj3kYGAl/fdRTyPb4n0cfwbdTnsK9NzxlPLE0BCEdmWdcgUce/R+0s2Ir2OcjyzdlhKej1ZfzLa98BFOOTsLImZ9iz1+fwr1/fSpcEIDsPvcgb/RlaCkxiKs5XpJ2ZYtFP1W2Jsqrjjaoqqqq2rBhAzp06GAppSYYMe8L3/NMHLIHTcGsn5/uTlRilbNjxw6cccYZSi93L7q1b98+TnllWPPsDZi00nlYLisVXrjDmjDEqo9ebvv27YG6JcatEH8ec5c7qcn+6W8x+2ddEuKfXG5VcXKOXD4StzZt2rjXOGkHzoPnHlbsgKRJrReCxEXRgA3OA8F6oXHdVNKKt7FkoP1gta6pKKtt+n+aQByOutYRcS+W/L7wM5Ca60zOqeHMVrwEdu/enfg47Js/Y+Qtv8cmV6SsVJiKKQNbJzTu0seHMlCvL+Owg8UlWLr0z0hr2NCKpZCZmQlxf9S0aVMrgLMYGsRF0kNPPIc3Zk51aSU2DnfGh7tWeV5Ayh402TIsCDeTY6R0pPFk/OPwo1j9zBDPHEFePOqZZRtYIunhp3fyr/9eLBk9Ai85L0dlX/87zLqhU1y8lJ7J5ZYYnyCekbhxjuB+/JJywN/tpGAE5wjJ4RhVCucIURHV1QL8rqndKxNprBz/89QI47Rv/4yRN2vj6swrMPHV29EzLXicUF/HI3Fz27MWr06fif/9aIdmBElHZsceuOKmO/Cz3i3jGs/VF27jJr8Ez4oF+SjIYDSufesLMTavCk8/9gds6fwLPDzUjtQcr5xoH8P45KWjzz1TcfvB+/DqnsswdsovLKNCXP0yOATpF59eim8r/FfeXFxUchRAY2SekB4/d2XiClLMyU9MP6Vn9fdR1OPppBCwg3ONWx5tZUNSGjs2hFiD1jx43nJ23an4BKutA7223O+MXZacFSO13J/k98Xx8X9Gxyire2q542yeBEgg6QSijnNy/gOPvHpRqN1GjZGZmfi4y2wvJNj/yCyf6rSfVhJXQQwJskrh6NGjSJcVqenploskv/KSl5DebWR1M7Q5gr2iORF5ydOrcdgcoYcTsyCZeil94+fWElfkzUU/bY6QiF6qXaWHuVfna2tv6sN0TRHgHCFuspwjxI0smRU4R0gmTcoigRCBZP3eF/97I7YgG1eMn4w+/xqF8Us/xaZtQI/OkZ8jhzTxHiVLr0TleLUJT8Ult2Uv/Gx8L/ysshwl1jgOQJNMZCrXUgmMp8M1snPi0iuBdqPJN/VyDQtyQioHvVkSMb/1hXhw2kVO/cTkmIrp6YT0atQK//XwXFzhLPEGgi1o0eTruvgdR6vve75ROpo1b5wYb+06+emj8nzbdXhEvJ6a/OqUU3pwX1MExP/hAMulk+XGo1dNtXMMyu31IDbN+BS5hkssj6GhjnTbevtD3OlYLmqUG5s6olycatRIX5wJIDAQ0/PqN584cbI4CZCAQyDieCdJ462g8VCkixBRrxSMx/x0E51kE+OC9En2EmdBGRuC6gT1P2p+m4vwwNQL3fFuIuNxP530vLg5N2yJKx6Zh/+yxruJzVtUv3U9zOO49VLj74bhLx2p9uLZm/qY6YT1U3pWY2/qwnSyCXCOkDBRzhESRledipwjVIce65JAZALJ/L3P7PMg3nyzDA0yMlD14+lYMDQDjRvL2DL4eWtk7ao3DotnXOTHIZJufuVjak8bxzVokHj/Iukm5xLWrxrjN9V/UzfXsCBKKeVqY28qZqbrqn51VS/Fr67rp/RMyt7ya31NUkTVDyHiN7vI3wd6/ehArWpp+XsfXKsqxNS4+OEvGhlT0TpfqEb6InFTinwjAdR5HvVRQesa1kfFqfMxS6Cuj3Pqmn4yIVB/0QwK+k1T1/qhdKuretV1/eo6N8UvaXvOEZKG8ngQxDlC6q8y5wipZ57sFjlHSDbR5MpL6u9+urPyt1E6GjeK7TlyUG+SqlcCb+YH6aXy66p+dU2vhgqY7JVyKi/VadVu0D7V+pjtBeml8s3yqU4rPdQ+1e2b7Sk9uCcBEiABEiABEiCBmiZgjkNSnTb7l+r2zfZMfSQtxgTZVFlZqaCOVUBnv3p6HXVe1UtVWrUTtE+1PmZ7pl7m+VSnTX3MdKr1Mdsz9WGaBEiABEiABEgg+QTM399Up6P1KNX6mO1RP9s4pDiYfKKlpV7gioVEhUZrNNp51a6+1+vox1Im1Wldr9po3+yvqY+ZNsunOm3qwzQJkAAJkAAJkAAJJItAqsc1ZnvR+mGWT3Xa1E8MCbJJfAUxJMjqBdnE4FBWVmYdm//pOuvHUi7V6Ui61QV96ot+6rqpvdI71WnVLvckQAIkQAIkQAI1RyDVv+9me0E9U+XUXpVLdVq1q+91HfRjKZPqtK5XbbRv9tfUhysWNCImLDOtFfU9NMunOm0qler2zfZMfZgmARIgARIgARIggZoiYI5DUp02+5Xq9s32TH0kXV5ebmUrN0iSECPDkSNH3NUMfvUkz5Sf6nSQXio/1fqY7Sk91N48n+q00iNon2p9zPaC9GI+CZAACZAACZBA8giYv7+pTkfrSar1MdujflyxkPJJjnnTmTdlqtOmPmY61fqY7Zn6ME0CJEACJEACJEACySJgjjtSnY7Wj1TrY7bnp5+USUtLswwJcty4cWMreHNQXT1fPxbZqU6b/Ul1+2Z7pj5m2iyf6rSpj0orPdTezE9VWrXDPQmQAAmQAAmQQM0RqKu/90ovtVcEUp1W7ep7XQf9WMqkOq3rVRvtm/019fGsWDBPMk0CJEACJEACJEACJEACJHBsEJCJQWVlpfsnaRXM+djoIXtBAiRAAiRAAiRAAiRAAiSQKgJWjIVmzZqhpKQEsq+N7fDhw4FtU7fgK1JfuTVt2hSRdA/uMc+QAAmQAAmQAAkcTwRkvCDjBr+NY0Q/KnZetHGWxFdQwZrFsCAGBr+3kcg4Mcbklhg3zhGCufEMCZAACZAACfgR4FjZj0r0vEhjZY7jgvn5cbMMC23atMHu3butv+DqNXdGLpro4LdRNz8qdl595da2bVvs2rULBw4cCO4cz5AACZAACZAACRz3BORBo4wb/DaOEf2o2HlBY0RxeySGBImxIO6Q5FgMDJLvZ1gg4/gZSw1yS4wb5wjB3HiGBEiABEiABPwIcKzsRyV6XtBYWWpyHBfMz49bgyq/WUSwDJ4hARIgARIgARIgARIgARKoRwQOFpdg6dI/Iz0tzTIoZGVlITMzExkZGVZaDAtiYHj4yefxxsyp9ahnVJUESIAESIAESIAESIAESKA2CIyb/BKsFQu10TjbJAESIAESIAESIAESIAESSB0B5f5ItahWLsieGwmQAAmQAAmQAAmQAAmQAAnEQ4DBm+OhxbIkQAIkQAIkQAIkQAIkUE8JqIXK4gKpYcOGlisk2cumztXTrlFtEiABEiABEiABEiABEiCBFBNI27BhQ4qbZHMkQAIkQAIkQAIkQAIkQAKpItCuQ0erKTEiKEOCZIiBQTZ9JQPnBhYS/kcCJEACJEACJEACJEACJBCFQNoZZ5wRpQhPkwAJkAAJkAAJkAAJkAAJVIfAJ+1Oj6n6WV9/EVM5VejgwYMQY0BxcbHK8uwlnoLaVODmyspKyJ/fduqpp+Krr75C586d/U7XQF4Bls9ejeLcKzHonBxHvp2HPjeh/2mSVYQPFy3BF8374qbLujpl7Lyd7fR6NaCeJnLXrl0p5KI1zEMSIAESIAESIAESIAES8CHw4Ycf+uSGZ5177rnhmQE5+/fvDzgTns0YC+FMmEMCJEACJEACJEACJEAC9YKAGBXEjVF2dravvuXl5W6+GBOOHj2KJk2aWHXknMRXUH9uwVQefLkFhdLepiWYvcloeM1szF4DtP7h6bDsJsWrMXv2am8hp16WxzDhLcIUCZAACZAACZAACZAACZBA8gnQsJB8ppRIAiRAAiRAAiRAAiRAAikhICsVgowKokB6erqrh1qlIK6P5FgMEmJUUAYHt2AqD07rj5usVQl6o+aKBQBnmW9ZpX7Fgq4hj0mABEiABEiABEiABEjgeCfA4M3H+x3A/pMACZAACZAACZAACRw3BMSQIJvEWpBjMTLIsYq3cNyAYEdJgARIgARIgARIgARIgASqRYArFqqFj5VJgARIgARIgARIgARIoH4QEOOBMiCIUUEMCrJaQVY1pKXVpWlBV/S/ScVSCGKbg3MH3RR0kvkkQAIkQAIkQAIkQAIkQAI1TIArFmoYMMWTAAmQAAmQAAmQAAmQQF0gIEYFibEgxgTlCklWLEgeNxIgARIgARIgARIgARIgARKIhwANC/HQYlkSIAESIAESIAESIAESqKcEZFVC48aNrT8xKJSWllpxFsrKyqx9Pe0W1SYBEiABEiABEiABEiABEqgFAjQs1AJ0NkkCJEACJEACJEACJEACqSYgqxRk1YIEbRY3SOICqe65QUo1FbZHAiRAAiRAAiRAAiRAAiSQCAEaFhKhxjokQAIkQAIkQAIkQAIkUM8IKKOCrFYQ44LEWVAxF8rLy+tZb6guCZAACZAACZAACZAACZBAbRKgYaE26bNtEiABEiABEiABEiABEkgRAWVEEKOCHMufGBlkX1FRkSIt2AwJkAAJkAAJkAAJkAAJkMCxQCDtWOgE+0ACJEACJEACJEACJEACdZnAWV9/UevqiRFB/iTOgsRbEAODbE2aNLFcI9W6glSABEiABEiABEiABEiABEggZgLnnntuzGVroiBXLNQEVcokARIgARIgARIgARIggTpGQIwJ8ifxFZQbJGVcqGOqHoPqFGLudQ3Q4LE1x2Df2CUSIAESIAESIAESIIHjkQBXLByPV519JgESIAESIAESIAESOC4JiCFBVi2I6yMxLoiRQdJ1x8BQgOWzV6MQQOs+N6H/aeoyFeHDRUvwRbFKq31r9L2pP7qq5PGy/3ouBre/ET9eU4Vx5x0vnWY/SYAESIAESIAESIAE6hIBGhbq0tWgLiRAAiRAAiRAAiRAAiRQQwQqKytx9OhRNGvWzGpBjAliWKhLW9FHn1pGhSCdsnKvxKBzcoJOM58ESIAESIAESIAESIAESCBFBOrWTCJFnWYzJEACJEACJEACJEACJHC8ERBDggrSrAI5K8NCnVix8O2HWLWpGK379EXr4+3isL8kQAIkQAIkQAIkQAIkUM8I0LBQzy4Y1SUBEiABEiABEiABEiCBRAiIEUFiLMjKBXF/JGllbCgrK0tEZFLrFPzzCxRnnY5ervujpIqvIWFrkNegAfI+8BNvx1UYPE8cO9nboK6dUDhvMMSwY/1dNzd8hcYHeaHzVrk8qMgMbt32N2IRgPF9HDlGObs1J66DaqvBYMz9WmkSHPNhzWMiM9Sm1LDzQm2Z/bX0svpi81D90/uuWuaeBEiABEiABEiABEjg2CBAw8KxcR3ZCxIgARIgARIgARIgARKISEA97BXDghgUJMaCHm8hYuWaPvnlcqzenYXTLzoXkRwdFW9agtmzZzt/y1FQ03rFKP+fW0PGg1CVrdj6JvDjTqH1F4tuaIM2Bb+y+FdVrcbEN29EGz2gs8ROeOcS53wVqqp247Vrx6OvY4BoPWShfW7HaxgEYOIaKaP+xqGP27g84G+DhVfvDp1f82Pc2F4ZF1rjkqsHAQ8/pRkbpPIarHgYGDT3FkeWbYDoi9UhOTtewz/7+BhTpC8N+gJKpzUTseiGuwz5roI8IAESIAESIAESIAESqOcEaFio5xeQ6pMACZAACZAACZAACZBArARklYIYGMSoIHvZ5FhWMtTeVoQP/1UItOmBc08O0iIH5w66CTfdFPrr26YQq2cvwoffBtVJRX4ndLo21E7ozX0AX2/FPzEIndqFzmPCalQ9pB7/98ElEwD8a2to1UK7G7DQPS/1HAPAm1uxVRMT7bBw3lMYf+1rmDokZNTAebfgtWsXYeH/2UaQ1kN+hYkIpS2ZH6zAeAzC4J849T54BTe+ORGrdZ3a3YBfTQDGv6PWUShtBuG1HVow6XadMAiLsNVdJaHKcU8CJEACJEACJEACJHAsEKBh4Vi4iuwDCZAACZAACZAACZAACUQhoFYqqFUKKpizvPGujAxRRNTI6aKPVuGL4tboe1nXuOR3vUxiMRRj5+aiuOolt3BrdPohsKhAHvsXYsVbi4A3F2KF+zD9x17DQgyNm26H2twgTo/i27YWiB6ygiDkvqhBgza48U2lq8izDRuL3lrhGjbWvDMemPAr3OAYQwq3/lMcLqGvR04D9H3YMIhY6hl9FSNJlWZoiK8LLE0CJEACJEACJEACJFDHCdSqYaGy7DBKikvcv9KjIVqRzoVK1fOjyjIctvp/GGWV9bwvkdQ/WupeY/16Hz6mOx0JCM+RAAmQAAmQAAmQQOoJSOBmMSqoGAvK0CCaSH7tbAX4eFMxsnJ7IT6zQkjb4gO1aVgAOnUd5Kw6kFUFr2H1XNirAr7easVBCGka/UiMCn0ftt/8Vy6Ods8Vp0cJbNe+ht2umyTlLqlKWzEB9Ln5NQxyDSG2G6SJl6kVFarNiVjtJ+eNGxhkWyHingRIgARIgARIgASOQwK1ueYZ3+zYgn2lIerp2Z3w/07JtDKKdm3FnpIq92Sj5u3QreNJbrpeHxz9Dru2F6LoSIWnG40ymqNF23b4QWYjT359TxRuL8C+UnlbytuTqu+BJid3Qtc2zbwnmCIBEiABEiABEiABEkg6AbVSoVmzZmjcuLHl/kj2sh09qr3hk/SWIwj8cov9trzETthklFszG7PXAK373IT+fgGdv/0WxeIs6NRETRJGewkmW3f6sV3zgxX459W3YNxPADywAmuu/idw7WB0illuIbb+C54VAzFXNQpaxo6HbfdJmjMkoxSAdpdg8LU3WoaQGzqtsNwn7T4vVMzu2z8td0Z9dJdOoSI8IgESIAESIAESIAESOE4J1KphQWfeKKstujhGBcn/QadTUfbvrfiuXC9V88eVJftxECcgu6Ye7h/egy3bvsFhnxUKlWWHsOerzShr2wXtsmvKuHAYRd9W4MSTT0BNtRB2laqAJjlnomsb/UwhCj7bh9Jvt6KgQVd0bZ2hn+QxCZAACZAACZAACZBAkglIHAVxeSRxFsTIUFZWZrUgb8bXWoyF0/rjpjCjQQGWz14NBBkULK0LsPxPX6A463T0C6ufZHDRxEksgTcX4i4Ag58ZZz+sRxs89dYg4Ied4nir33arZMdc6GPVk5gNtiskx3ihdGnXCZIjcQ7GnWeuMACs+Ak39EXf6zphd8SVBXYMhxvfWoG5PxyPQVfv9uprxWUYjxvb56FTlR4cWinCPQmQAAmQAAmQAAmQwPFKoG4YFhoAlcV78XXRCeiYIypV4uDOXTggRgV5yz20cKFGr1NlyS5s/aoIR7MaIDuzJlZHHMbOr/2NCm7HqsrxXeHXyMruiJrQADiIot37sLf4FJzWMTt1xgW3g+ogE1lZxUBFBcqK91uB6dQZ7kmABEiABEiABEiABJJPQII0y59s4gZJpUtLtSXEyW82SRJtY4MddtgWKSsZwo0SSWouHjHWQ/5FGI/XMNV6q995WH/DIgy6emo8ktDnodWY2KAv2jS40a4n7ozW/BhtwmwHfTBux2v4Z/u+aCDxDqxNXBaph/99MK5qNaDLssqIm6WFbgwFyVJGCCtIc5W5vqE1bnhjN3BdG/RtMN5uxvl/4hrGT/AAYYIESIAESIAESIAEjjMCDarkFaVa2go3f4bvGp+Crs0PoWDXQVRUpaF5207IPrIdO/aXoapRM/ygY2tU7d6G79JPQW77E2pMU2VUKK0CasztUtFWbNxVAp/FCmH9anJyN3RtUxNrCpyVAgDSmqfGuFBY8BmKM7sbKxacLn+3DRv3ZaBbV3MSE4aEGSRAAiRAAiRAAiRAAgaBv/71r8jOzjZyvcnTTs/F0qV/hgRXy8rKQtOmTZGRkWHtmzRpYrlBkpUME55+EX+cOgVfffUVOnfu7BXCFHbt2kUuvA9IgARIgARIgARIgASOaQL798sL4NG3p2a8gVpdsdC6S3dnqW02TsN2fLnrIA7t+hKHRHfLqNAZrcT9fpdu3iW50fsWVwndqBBXxTgLl5QcjcmoIGIHaJrjAAAgAElEQVTLSuUitoizhfiKVxzaiS+3oeZWLlQexJ6v9+HgUVgT2UDtjh5EwVffo2X7tjihJmwpgQ3zBAmQAAmQAAmQAAkcPwTE/ZEYEGST1QrK/VF6ejpq8V2j4+cCsKckQAIkQAIkQAIkQAIkcAwRqFXDgs6xUfYpaH3oML4+KAGNG6DZyR1so4JeqIaOi/bsh6xUqOnt6PexrFWwtaiq9AZ2rindKg59g93F2WiXlfwWSnYV4ptDdpCMRocKUHDYp42qCnyPdDT5/gB27czCCR1qblWKT+vMIgESIAESIAESIIHjhoAEalYGBDEyiDskFbxZGRyOGxjsKAmQAAmQAAmQAAmQAAmQQLUIyIroWtsqy0pRZj1rl5gKW7BTjAqN0pDWoAqH9xZgW5HzcP1oKUqP1pyaP+jYHtkZ9ttbNdcK0DQt9tfxGzVORTDjNGS2blcjRgXhqBtSKstLUXrE56+0AlWVh3HgSCWqqr6vSfyUTQIkQAIkQAIkQALHNQExJkg8BTEoyCbpiooKaxWDMjgc14DYeRIgARIgARIgARIgARIggZgJ1Kph4ZsdBSjYshPf7NyixVTIxWltT0J6gwoc2lWAbXsLsaWgAFt3fRdzp+Iu2OgEnNK55o0LGSdnITZzQSM0aR7ZV27cfQyrIEaFDujUQnxN1f5We5E+ar/v1IAESIAESIAESIAEUkmgYcOG1koFcYUkhgUaFVJJn22RAAmQAAmQAAmQAAmQwLFBoNZdIVWV7ceeMiOmQrN26ILv7ZgLe/dZpGN/1z/BC+MYF7BlBw41qCF7S5NWaNH8IHYeiuzmqEGTbLTKSbAfsVRrkIbMVqk1KmRkd0LbE32UO7IX2/fEFtDapzazSIAESIAESIAESIAEYiQg7o4knoLEV1CrFcTIQMNCjABZjARIgARIgARIgARIgARIwCVQ64YFpcn/Z+9u4KMqz33v/xFCAgYJbzqIiAHSEBQr1BoSW5UgUAF9aqjuCh/jrlDP0dB6LLSfo1L7bIXtPlvQ3Vb0PK1od3qIPVpjt0KogMHWmgG1xKLyYiIB5WUQCKBRAkF5PteaWckkmUkmbzMT8lvnM3vWrHWvdd/ruyY9sq65r6tHr0T1Cfo5f8/ERPU+SzoVeVkC91Rtf7fgQtrFbT++xSN7asCIC3Xiw0odOh66qEOP3ik6P9WjzptH4NHoiz0tjrQjGqSMyFCKJF/Fe6o+62ydHaqOw6mzpKTBumR0dMbUEdfFORBAAAEEEEAAga4oYMEECyrYYjMVLKhgsxYILHTFu8mYEUAAAQQQQAABBBCIrUBMAws9gsoa2MyFffvO0TnD+zkiB30H9UVQUKFnz4TYSnVY733lGTVG/Q77dODwpzpe+6VOq4d69Oyt5JQhGuZJUUxvSoddZ/2JevbsoZrD7+m9w/Xbgtd6nN15YZTgflhHAAEEEEAAAQS6s8DJkyedIIIFEqxoc1JSkhNocOssdGcbrh0BBBBAAAEEEEAAAQRaJxDTZ9jnjbpE54UZ75CRl2hImH1df3NPnT1omEYOGtb1LyWCKxiSevEZfC8jAKAJAggggAACCCAQBwIWSLBZC+5iqZFsBoNba8HdHtv3Cq0tKJVPkicrT1PTmo6mYl2BSve725OVPiNXmYPcz7wjgAACCCCAAAIIIIBANARiGliIxgXSBwIIIIAAAggggAACCMhJfWQOX375pfOqra11UiL16dPH+RwPRlVvbnGCCqHHEgg6DM1WXt7o0E3YigACCCCAAAIIIIAAAlER6KQqxVEZO50ggAACCCCAAAIIIIBAhAKWAsmdsWD1FWy2gr3bNnuP+XJ4k17bXi1PVraaVt+q0qaiUvksqDCFoELM7xUDQAABBBBAAAEEEOj2AnHwL4hufw8AQAABBBBAAAEEEECg0wWCizRbGiQLJvTu3VvueqcPoIUOKjbvUHVyui4Pkf5Ih8u1tzpZ6RMIKrTAyG4EEEAAAQQQQAABBKIiQCqkqDDTCQIIIIAAAggggAACsRWwQILVU7AAg6VBspRI9tlmLtjnmC7la1W63+olZGqgKpoOpeqYqpWsQVVrVbDaKjD4l+QxM5V7xUD3I+8IIIAAAggggAACCCAQJQECC1GCphsEEEAAAQQQQAABBGIpYIGEkydPOrMULP2Ru37q1Cln1kLsxlalTe/6pKHZYYswVx2pllSt0l1WX2Gqf6iHN6lo9SoVieBC7O4dPSOAAAIIIIAAAgh0VwFSIXXXO891I4AAAggggAACCHQrAQss2MwEm7GQkJCgpKQkZz3W9RWq3nxNO6o9ym6xdkKjNoMydelQqXpPuaq61Z3kYhFAAAEEEEAAAQQQiL0AgYXY3wNGgAACCCCAAAIIIIBApwtYQMHSHllNBXvZrAULNgTXXuj0QTTpoEJvb69W8pjL1ZbqCQP7J0vVxwgsNHFlAwIIIIAAAggggAACnStAKqTO9eXsCCCAAAIIIIAAAgjEhYAFEKymgs1QcGcv2MwFCzDEbCnfKadiwvZVKtjeaBTeAhV4JU9WnqaOGqbk7Xt1+LA0elB9u6pj1VLyMFFlod6ENQQQQAABBBBAAAEEoiFAYCEayvSBAAIIIIAAAggggECMBdwAggUV7GWzFizQYO8xW9KmKi+tce8VWltQKllAoW5fmoYl79COv2xSWq4VeJbkFHy2wEPgc+PT8BkBBBBAAAEEEEAAAQQ6TYDAQqfRcmIEEEAAAQQQQAABBOJHwK2pYIGExMRE52UBBgsuuEGH+Blt45EMVGbuTKlolVYV7AjsTFb6jLywBZ8bn4HPCCCAAAIIIIAAAggg0HECBBY6zpIzIYAAAggggAACCCAQtwKWAslqLLipkE6dOuUUca6pqYmzMY/W1LxQFRcsuJCnzDgbLcNBAAEEEEAAAQQQQKA7ChBY6I53nWtGAAEEEEAAAQQQ6JYCFlSwl9VbsFkKth7zOgvd8k5w0QgggAACCCCAAAIIdG2Bs7r28Bk9AggggAACCCCAAAIItFXAggsWWLAAAwsCCCCAAAIIIIAAAgggEKkAMxYilaIdAggggAACCCCAAAJdXMAt3GyBBKu1cPz4cWf2gm1nQQABBBBAAAEEEEAAAQQiFeCnSZFK0Q4BBBBAAAEEEEAAgS4uYCmQ7GVBBXu5CzMWXAneEUAAAQQQQAABBBBAIBIBZixEokQbBBBAAAEEEEAAAQS6uIAFFKx4s71s3ZakpCT16tXLqbfQxS+P4SOAAAIIIIAAAggggEAUBZixEEVsukIAAQQQQAABBBBAIFYCwTMVrLaCvYKDDLEaF/0igAACCCCAAAIIIIBA1xMgsND17hkjRgABBBBAAAEEEECg1QLuLAX3QDcVktVXaLzPbcM7AggggAACCCCAAAIIIBBKgFRIoVTYhgACCCCAAAIIIIDAGSpgQYTglEg2c8ENMsT+kiu0tqBUPkmerDxNTfOPqOrNIq3aXh16eMnpmpmbqYGh97IVAQQQQAABBBBAAAEEOkGAwEInoHJKBBBAAAEEEEAAAQTiTcACCKdOnVJtba1OnDjhBBcSExOdd5u1EA9L1ZtbnKBC47EMvCJXeVc03lqlTUWrtKPfIIIKjWn4jAACCCCAAAIIIIBAJwuQCqmTgTk9AggggAACCCCAAALxIODWWEhISFDv3r2dos0WUHADDjEf4+FNem17tTxZ2fJEMpjyt7WjOlnpE0ZH0po2CCCAAAIIIIAAAggg0IECBBY6EJNTIYAAAggggAACCCAQrwIWWLAggr1ssc82g8HSIJ11Vuz/WVCxeYeqk9N1eSD9UfOOVdr0rk8aeqkyBzXfkr0IIIAAAggggAACCCDQ8QKx/xdEx18TZ0QAAQQQQAABBBBAAIFGAhY8sBkKlgrJAgq2WHDBlpgHFsrXqnR/stKvjrBWgjNbQfJcxGwF5wbyfxBAAAEEEEAAAQQQiLIAgYUog9MdAggggAACCCCAAAKxEOjVq5cTQHBnKNhnS4t0/PhxJ+AQizH5+2z97IOKXT4p4tkNsbsyekYAAQQQQAABBBBA4EwVoHjzmXpnuS4EEEAAAQQQQAABBBoJWCChZ8+ezlabvWDrffr0qZu50Kh5VD5WvfmadlR7lJ0b4eyDw5u0Zb/kyYpwdkM0rmL7Kv3mr/sa9nTBVbpj+pigbdu16jd/VcNW5+uqO2aqvtUhvfFskd7/LOgw9dPFN96iK4cEb2MdAQQQQAABBBBAAIHYChBYiK0/vSOAAAIIIIAAAgggEBUBt7aCzViwFEj2snV7ufuiMpAGnVTo7e3VSh5zjSIMK8itxXBNRLUYGnTWeR/GzNQd9dGBMP2M0cwWGw3WlbfcoSvDnIHNCCCAAAIIIIAAAgjEiwCBhXi5E4wDAQQQQAABBBBAAIFOFnADCm5tBTew0Mndhj99+U75bO/2VSrY3qiZt0AFXpuZkKepbhAhMFsheUyaBjZqzkcEEEAAAQQQQAABBBCIngCBhehZ0xMCCCCAAAIIIIAAAjEVCA4ouAOxbTGbsZA2VXlu0MAdkCq0tqBUCg4oBPY5sxXkUfYVhBXquFhBAAEEEEAAAQQQQCAGAgQWYoBOlwgggAACCCCAAAIIRFvAaipYEMEt2mz1FSygcOrUqRgXb45Qom62wuURp02K8Mw0QwABBBBAAAEEEEAAgVYKEFhoJRjNEUAAAQQQQAABBBDoigIWSAhOfWSBBlt69+4duxkLISFHa2peiIoLgzKVm5cZ8gg2IoAAAggggAACCCCAQHQFzopud/SGAAIIIIAAAggggAACsRKwGQsWULCZCmeddZYze8FNjxSrMdEvAggggAACCCCAAAIIdD0BAgtd754xYgQQQAABBBBAAAEEWi1gsxUsoGCBheD0RwQWWk3JAQgggAACCCCAAAIIdHsBAgvd/isAAAIIIIAAAggggEB3ELDAgjtjwZ21YNftbu8OBlwjAggggAACCCCAAAIIdIwAgYWOceQsCCCAAAIIIIAAAgjEtYDNVrDAgr3cNEgJCQlOYCGuB87gEEAAAQQQQAABBBBAIO4ECCzE3S1hQAgggAACCCCAAAIIdLyAm/LI3i0VUm1trU6cOOEEGjq+N86IAAIIIIAAAggggAACZ7JArzP54qJ5bV+dPq29Bz/Thr9/pDfe26Nd+4+pYs8Rnfryq7phjBo2QOcO6KvMsefrqsuG69JR5yqhF7GdOiBWEEAAAQQQQAABBDpNwFIe9e7du+5lsxVs5oK9bDYDCwIIIIAAAggggAACCCAQqUDcBRZqT32lnz/1Vz27bmuL1/Dre6bohm+ltdiuMxucrP1Sazbt1BNFm7V99+Fmu/pw7xHZy/veXv3Hc28pMaGn/unaDP23G8brgnP7NXts8M6N7+/TPz3wp+BNdeuP5E/SzTkZdZ+DV9p6XPA52rr+XMk2/XT5hpCH/98Hv6uJF58fch8bEUAAAQQQQAABBDpOwE2D1LNnTycFkgUVLODAggACCCCAAAIIIIAAAgi0RiDuAgv7Dn2mTe/vi+ga1r+9S1O+mao+ibG5jHc/PKgHn/mb3ty2P6LxNm50ovZLFax5T//1erkW3Xalcq/+mnr1ZAZDYyc+I4AAAggggAACCLRfILhgswUY3FkKboqk9vfQEWeo0NqCUvkkebLyNLXBb4iqtKlolXZU1/eTPGamcq8YWL+BNQQQQAABBBBAAAEEEIiKQGyeyDdzaf+o+EQ79x1tpkX9LvsF/i7fMWWMGFS/MUprb7y7R3f/x3odPPpFu3s8Vn1C9/7v17T/cLXycycQXGi3KCdAAAEEEEAAAQQQaCxgMxPsZbMVbLGAgvuKl1kLVW9ucYIKjccuBYIK/bKVlzvav/vwJhWtXqUiEVxo6sUWBBBAAAEEEEAAAQQ6VyCufh5//MQp2SyESJcDVZ/rrTbOFoi0j1DtPvi4Sot+89cOCSq457daDL96/m0V/eUDnT7tbuUdAQQQQAABBBBAAIGOEXADC+5MBTurzWKwlxVzjvlyeJNe214tT1a2PI0Hc7hce6uTlT4hEFSw/YPSNCxZqj5W1bg1nxFAAAEEEEAAAQQQQKCTBeIqsGCzD2wWQmuW1//xsT4/XtuaQ9rV1moq/K743YhnVbSmMwsuLH12k96vPNiaw2iLAAIIIIAAAggggECLAlZPwRabpWBBhl69ejmzF9wCzi2eoJMbVGzeoerkdF3eIP1RcKfVahhDqNKxaim5P6mQgpVYRwABBBBAAAEEEEAgGgJxlQrJZh/YLITWLJaSaPtHh/WN9Ca/a2rNaSJu++7Og/rT6x+EbX+Rp7/uvHG8rrrsQg1J6auEXv5/wNlsjE+OfO7MSHimeIss/VGoxa7/T3/9QGNGDCIlUiggtiGAAAIIIIAAAgi0ScACCm4QwQILNnPh5MmTToChTSfsyIPK16p0f7LSZ2RqoCqannlQpi4dukOl3gIVHbHUR9KmIqvF4FE2NRaaerEFAQQQQAABBBBAAIFOFoibwILNOrDZB6GWsamDdfFFg/X8hu1Ndttxpe/t1YSvedSjR5PdHbrBUhRZX+FmSNx23Tj9bE6mkvv0btKvFZge4emve/7pm/rOxJG6a+krYWc9bCj7SLdNH6fh557T5Dzt2TDx4vO1+4W72nMKjkUAAQQQQAABBBDoogJuCiS3noJ9tmCD1VxwZzPE5tKqtOldnzQ0W5nNlE4bPSVPo8vXqsC7SgX2z4KhQfUWYjNwekUAAQQQQAABBBBAoNsKxE0qpA/2VMlmH4RarrxkmL5/bYbO7pMQardK/r5bVZ8dD7mvIzd+UVOrLRWfhDylzTD4798dHzKo0PgAKzb983++MuyMhIo9R1T+8ZHGh/EZAQQQQAABBBBAAIE2C1gQwYIJbj2F3r17q2/fvkpISHBSI7X5xO08sOrN17Sj2qPsKUH1E0Kcs2JdgQq81Uqfkae8vGx59peqoKBImw6HaMwmBBBAAAEEEEAAAQQQ6FSBuAgs2EyAv23ZE3ImQK+eZ+lbXx+urw0f6MxKCKVhD/vf/bDz6xKcqP1SB498EWoISh3aX/2TE0PuC7Xx8jEeZV0yLNQuZ5vVm2BBAAEEEEAAAQQQQKCjBCyA4AYWLLhggQZ7WfFme4/NUqG3t1creczlajasUJcqKTcwq2G0pubNVHpytXb8ZZMo3xybu0evCCCAAAIIIIAAAt1XIC5SIR37/IRKw8xWGHvRYNkv/M85O1GWyidUuiQrevy3f3ysb116QdhZAJ19i3d8VKVDR7/Q2Z7+EXVl13NZ2nkhr8dOYPUY4nk5ePQLbdj8kYq9H+q9nQdln20ZNWyAJk24UN+7Jl3pIwbprE7ITxWubwvsjB42QJljz9f1V47W1y4cGLPvQzzfO8aGAAIIIIAAAt1TwC3Y7BZtdlMjWSqkmC3lO+WzzrcH0hsFD8RrMxQkT1aeLj9SLSlZgxqkShqoQf0kfRZ8EOsIIIAAAggggAACCCAQDYG4CCy8U35Ab27dH/J6M8cO1aD+fZx9V156gZ54cXPImQ1vvLdXh44dl2fg2SHP09kbd+47qsf+71tafMdVEaVDsvEsvOUK59XZY3PPv/H9ffqnB/7kfmzw/kj+JN2ck9FgW6gPX5yo1dOrtuhXz78tm8HRePlw7xHZ66mX/6FpV6Rq0T9fqQvP65haERa4+eUf31bh2q2yYFLjxQpi/32Hz3nZ98QKaf/L3G/rqvHDOyXA0bh/PiOAAAIIIIAAAvEsYDMT3MXWLbBgsxgssBC8z20Tlfe0qcpLa9xThdYWlEpZeZrq7js8TMnbd6h0XYVGuymTDm/Slv1S8pg0DWx8Cj4jgAACCCCAAAIIIIBApwrEPLDgzjYI9aDYTYNk77aMOj/FSYcUatbC1spDenPrPt3wLfdfHx3vZjUeRg5LUVn5gZAnf/GvH6jsgwNOgeYpV6Tq7KTQNSFCHtwFNlrw5J5frdc75aHrTDS+hFferNTmDw7osR9PbryrVZ9tZv6mrfv0k1+/qr0HI/9JmqWTum3JKs26Jt2paTGgX1Kr+qUxAggggAACCCBwJglY+qPgtEc2gyG2RZtboTsoU7kzpKLVVlehtO7A5DEzlXsFYYU6EFYQQAABBBBAAAEEEIiSQMwDCzbLwGYbhFrcNEjuvubSIVmb1/+xR9/JHKneCZ0znTsxoaeTvuiF13a4Q2rybg+z7/7lelnbnG+McGYBTEj3KKUV9ReanDQONpTvOaK7lr6iDz5uXQZbS1uU/+haXTb6vDZdhQUV/vqPj/Sjx9bJZiS0ZbH79dkXJ/Vv//2autkvbTkPxyCAAAIIIIAAAl1ZwIIKFlywgIJbsPnkyZOy1EhuWqT4uD6rnxCi4oIFF/Iy42OIjAIBBBBAAAEEEEAAgW4uEPPAwuYdPtlsg1BLcBokd/+kCSP09OotOnzsuLup7v2Nd/foowOfavQFA+q2dfTK1ZcN18jzU2S/3m9usTRBazbudF7WzupEfGfiSF09/kJdkjpECb3iom52c5dQt88eyj+ycmOrgwruCSwg8Jd3PnI/turdAhn3/u+/tDmo4Ha29s1KDUnpq//39m91WuDJ7Yt3BBBAAAEEEEAgHgUs5ZEbRKitrXVmK1iwwbbZiwUBBBBAAAEEEEAAAQQQiFQgpv+COFn7pVMAONRgG6dBcttY3vxvpHtkD4obL5Ymp/S9vZ0aWLjwvP667bpx+sWK1xt33+znbbsPy15Wh8FmM1hx4ZtyMnT5GE/cFxhes/FDWVqjcIvdk/vyspR1yTCnyLaltfrgoyr9x3NvNXtcuPO52y2gsezZTWHTH1kNh/9x8zfrijQfrT6hl98o1y+fe7uumLR7Lnv/v69u07WXX+TMJAnezjoCCCCAAAIIINAdBNwAgs1YcGco9OnTx6mx4H7uDg5cIwIIIIAAAggggAACCLRfIKY/m99/uFpvbw9dtLlxGiT3Uq3OgT3ADrfYrIXPa2rD7W739h49pJtyxjh5+9t6MpvN8MfXdjiFlL991/9xCh1bUeR4XOxhvdWOCLdMvSJVRf+aq2mZI52ggrWzoNDY1MF6YuE0PfTDq9ocOPnrOx/r1b/vDtn1j753uR7/yVSnH7cGh6WbunXaJfr9A9c7s0oaH2gBjz+s3+qkRWq8j88IIIAAAggggEB3EbC6CvZyZzDYe5eptdBdbhLXiQACCCCAAAIIIIBAnAvENLBgBXnDpRQKlQbJtcwce37YXPlW2Lm1dQDc80b6bkWZ78/Llj1Ub++y71C1HvrdG7ruJ8856YKspkA8Ldt3H9abW0MHf742fKAW3ZYd9l7YA//ZU8Yq7zuXtPqSLDj00hvlClXU2+7/bdddEjalkaWdWnhLZsiAxt/e3dPp349WXywHIIAAAggggAACURJwCzbb7AULJthMBUuHZNtZEEAAAQQQQAABBBBAAIFIBWIWWLAHx+F+jR4uDZJ7UW46JPdz8Pvnx2v1ty171NkP6Af176Nf3zNFP52d6aQ2Ch5DW9at6PPt/1qs3770TsiH6W05Z0ccYzNKQj3ct3Pf+p1LNMLTv9lu7F7ePDlD5w08u9l2jXdarYyyDw403ux8nnnlaKdeQsidgY2WYspmvTRe7PvhDVMsvHFbPiOAAAIIIIAAAmeSgAUSTp8+7QQSLKBg61bM2eot2DoLAggggAACCCCAAAIIIBCpQMwCC809OA6XBsm9qJbSIZW+u0fHPj/hNu+096TevTR/1jdU8qvZyrvuknYHGOwB/v9auVFFf/mg0wMjkaAcP3Eq7K/7LbBitS4iWS489xx9ffS5kTSta1O576gOVH1e99ldsUCFzUhoaRl4Th9dPLJpYMGOs1kY8Zp6qqXrYj8CCCCAAAIIINBWAQsmWCDhxIkTzrudJyEhQYmJicxYaCsqxyGAAAIIIIAAAggg0E0FYhZYsF+Nh3pwbPehuTRI7n1qLh2Spe6xh8fRWi44t58emneV/v70D/Tojybrioyhbe7aggtW9Liz0zlFMkALLHzk+zRk09ShKRo2pF/IfY03WiBo1LCUxpub/bx1V+j7ZzMfBvRLavZY25nQ6yxZzYVQy27fpzpecyrULrYhgAACCCCAAAJntIAFF4LrKVgKJHvZrAWW7iawVctn/0Gj6l7rVdbdCLheBBBAAAEEEEAAgTYL9Grzke048NPPT6gkTFHeltIgud1eNLS/vpkxVH/euNPdVPduD+fXv1UpS4dj54vW0q9vb6eo86xr0mXX+I+KT/TS3yq0YfNuHTz6RcTD2HvwMz1fsk3/89asqI6/8QA/rzmpz46fbLzZ+TxsSHKrZmiMPD/ywELtqa906FhoL7OZfPezIccU6cbDnx7Xkc9qwtaGiPQ8tEMAAQQQQAABBLqSgAUVbLH6Claw2RZLgRRfaZAqtLagVD5Jnqw8TU1zhhn4P1XaVLRKO6rdbR5l503VaPcj760UGKv8wrHKl3TwlT9p4n+28nCaI4AAAggggAACCHRrgZgEFsr3HNHmD+yfC02XltIguUdYAeUrx10QMrBgbd54b68OHTsuTytz+7vnb+/7OWcn6ttfH+68vjp9WvZA/JVNlfrT6x/o3Q8Ptnj6DWUf6bbp4zT83HNabNtZDU6c/FI2ayHaiwWGvqjpvF/NHa2uCRswifa10h8CCCCAAAIIIBAtAQsshCrS3HgWQ7TGE6qfqje3OEGFpvv8AYfqMTOVd8VAZ3fFugKVFqyVCC405WILAggggAACCCCAAAKdLBD1wILVhSt9b6+siG6oZcuHn+iKH7b/5zJbKw9p8w6fpmeNCtVNVLed1aOHEyCYd/3XNXfm1/XxJ5/q//uvMv1h/bawhZEr9hxR+cdHYhpYiCpSFDuz754FTVgQQAABBBBAAIHuJGCzFCyw8OWXXzo1Fuy9d+/ezoyF4PRIMTM5vEmvba+WJytb8j/vnskAACAASURBVJY2GIYTcEhO18xAUMF2jp6SrZ0FpdryZpVGB21vcCAfEEAAAQQQQAABBBBAoFMEoh5Y+OTI51q7qbJTLqbxSTds/kjXXn6Reif4p3o33h+Lzz16SBeed44W//BqfX30ebr3f78WNriwy3csFkOkTwQQQAABBBBAAIEzUMCCBxZYsGCCBRksBZJ9tncr6BzrpWLzDlUnp+uaNOltb8PRVB2ry38UtGOg+idLvmNVkvyzGIJ2dunVsqf/oO+tdy8hSY/98ru6YYj7WdK76zXq4UP1G9JGaOO/ZCm4iWQ1FLbo0bpWIc5Tt48VBBBAAAEEEEAAAQRaJxD1wMK23Ye1dVfQfwS3brytav329v3af7haIzz9W3VcuMb2S3fL/f/h3qPONezcd1TvVx7S//PtNN1144Rwh4XcbgGG7347TW9t26/nSraFbGNBmFguyX17q39yopPGqfE4vvrqtOz/RXsZmzpYz9w3I2YprqJ9vfSHAAIIIIAAAgh0lIClPLIAQp8+fZzAggUYbElISIh98ebytSrdn6z0GZkaqIoIL3mgBvWLsGmXaXZAL/1ig+4pH6w/Fl6r8c64D+ilp706eLs/cODWQ3jsl98PBBv8x0yc/Xn9MQe9uuvu3dJtk/ThtPOcszjH3f0HfXzv95U/rsuAMFAEEEAAAQQQQACBOBWIamDBcudbIWN7j8ZiD/7/8s7HyvtO+wMLG9/fp3964E8hh20zECzocHafhJD7w220mRQZFw0Ktzvm25N691LfxNDXtNv3qY7XnAq7v/Hg7V5EuvRJ7KXzByeHbH70sxqnMHasameEHBQbEUAAAQQQQACBLiLgFm224br1Fmpra+UWdo7NZVRp07s+aWi2MsP8p/Hoizwq9e7Q2+WZ9QWdnWCEpKGxGXVn9HrwFa/uKbeZBW5QwXo5Tzfc7g8O2CyE5/6zRtNumxQ0g+E83TB/hP58926VviuNHyeVvbxbr9gshkBQwc4yZFqWHivdoHve2qr8cWM7Y/icEwEEEEAAAQQQQKAbCUQ1sGCzB/62ZU9Ued94d49mXZMuK/bcnmXgOUnOw+59h5pOw/5HxSf66JNPlTEizL+E2tNxDI81s7ThA2QzPxovew99Jl/V5xrUv0/jXU0+W9DFZnm0ZhlxXuhgkPnv+eQzfW34mTXdvTU2tEUAAQQQQAABBNoiYKmQEhMTnUMtkGA1Fiy4EOs0SFVvvqYd1R5l544Of1lpU5WntSrwFqjATZM0NFvZQ31qWI0h/Ck6dU/j1ETW2bWX6sPbW/cAf8/eGilthLIa5jSqH/rBY3pfSfrOBDfQENg1ZKS+k7Zbf953QBonfbxbmpY9slFqpPOUlZ0klR7TQQs01J+VNQQQQAABBBBAAAEEWi0Q1cBC2QcHZEWJo7lYqqFd+4/p4tTB7erWfiE/atgAhQosHKj6XC//rVxpFwxQr55nRdzP5zW12rR1X9j24R6uhz2gg3ck9Dor7AP8w8eOq2Tzbo29aLAsrVNzy/aPDssCPK1Zxlw0yJkBYkGJxkvpu3t01WXDm7UuKz+ghY+XaEhKX12Wdq4uTh2iEZ5zdOF5/ZXcJ6HZYxv3x2cEEEAAAQQQQOBMEbB6CvZyAwunTp2SBRx69YrqPwuCOCv09vZqJY+5Rs2EFfztLbiQFnSoqrSpSEq+IA5+cDLuWn1YGDw21hFAAAEEEEAAAQQQOLMFovYviJO1X+r1f4R/uPzD67+u/3lrVpse+H78yaf65yWrQwYt7AG4pV9qb2ChX99EXTpqiF7/x8chvxH/Z+37uvLSC3TluAtC7g+1cdP7+7T+rV2hdjkOqeenhNwXzY1ZlwzTeQPPlgVPGi9Fr+3QtCtSwwYfrL0FT1aufd9JFdX4+OY+pw5N0ddHn6vSd/c2afbSGxX67lVf0yUjQ//O6vRpOTNjLIhlL+97Dc+xcHam5ud+o8WASJOO2YAAAggggAACCHRhAZuhYC8LKthMBbeAc1JSUuxSIZXvlM9Mt69SwfZGuIHZCZ6svPr0R8FNyt/2z3S4Ig4CC8Hjasf6BcOSpPWfy/7VFPK/dIf018XarT9vPqAbgtIc6eBO/blcuvh7/pkMw0dIr5Tu1MFp5wWd54C8pTXSiP5B29oxWA5FAAEEEEAAAQQQ6NYCkf+8vp1MHx34NOyv1u1X/t/6evO/QG+ue8/AZH0zI3xyVfu1/NHqE82dosV99qv8yZdfFLaOwrHqE7r7P9brlTcr9ZU92W5msd1r36zU//jV+rD1Jq4YO1Rj4iC10qjzU3T1ZReGvBqrm/Dz3/5Vnxz5IuR+CyY9+WKZXnhtR8j9zW1MSU7UdRNHhWxiQY6HfvdGyNkjdsCWDz/R7//8XshjLUhy7eUXEVQIqcNGBBBAAAEEEDiTBWxmgjtbwYILwev2OSaLzULIy2v0ypZHkgUUbN/UBrMU/KOserNIBV6fPFlTW57pEJMLa1unQ6Z9TT/RIX3vF14nXZH/LIHizc6Hscq+VnrlP716yfIZOcsBvfS4v6bCzYGizOO/OVgq361fvHLAbaS6+g3Xty49U90JWEEAAQQQQAABBBBAIEggajMWSt/bq70HPwvqun7V0um0pz6BpeyZ+s1UPbtua/1Jg9asBsKHe4/oG+n2T5S2LzZOeyj9X6+XhzzJwaNf6I7/tUY53xih22dcqnGjzlX/sxOdh9gWbDj62Qm9X3nQeej96t+bL2JtD9Xt4XqsFyswbTUqXnlzpyx40nixotY3LXpR9+VlyWY3nHN2ohMs+eCjKv3Hc285gZbGx0T6+bqJI7XqjYqQ6aKs31t+8V9OvxaUsnoQNjvir+98pId+VxpyhoX1OyNrlJOyKtIx0A4BBBBAAAEEEDhTBGy2ggUXEhISnHe7LjcFklvIOX6vtUJrC0r9sxtskMnpmpmXqTNnroIrP1b5hYM0/BcbNHH27sBGK+b83bpZBuNv/742DvuTJt79B93jHta4noOlZvqlV3fdvUGj/tNtNFh/LAwqCn3Q9u/WK+5u1eh7s//gfLLi0E8Ez4ioa8MKAggggAACCCCAAAJ+gagEFuyBb3M59jPHDo2oCHBzN21s6mDZa2vloSbNLE//Gu+HTmqd1tRAaHyiPom9dMcNl8keaodKDeS2L/n7btmrrUv2uGHOA/C2Ht/Rx10+xqN/vm6cfvn82yFPvct3THf8+59D7mvPRquPkD9rgt6rPBgylVJr+7V0WD+84bI2pdtqz3VwLAIIIIAAAgggEA8CNkPB0h9ZMMHeLZhggQZ3JkM8jNE/htGamte44kKobfEz4o4dyXm64V++rxuaOemQad/Vh9OaaWC7hmTpicKs8I1a2h/+SPYggAACCCCAAAIIIKCopEKy4slWRDnUYg/6r/1marsf9g7u30dXNJMOadPW/bJ6C+1drAjwwlsy2z3ecOPon5yo+bO+0e5AS7jzt2W73aP/9t3xzsyFthxvx9i9GTakX6sPt5oV/+Omb7bb24IU99+WrfMHJ7d6DByAAAIIIIAAAgicCQKJiYl16Y/seizQUFtb6wQYYpYK6UyA5RoQQAABBBBAAAEEEOiGAlEJLFjx5HAP9S8dfa7Shg9oN709/J40YUTYB9CWd//9ELMZWtux1VrIvfpr+sXt3wrbV2vP6ba3oMLS/BxlXxJ5AWj32M5+t1RDD877tm7OGdPqrm74Vpr+7c5rdG5K31Yfa/f19pmXOn0nJvRs9fF2gAU0nlg4rVWFtdvUEQchgAACCCCAAAJxLmDBBFvc4s1WuNlmLBw/3v4f4MT5pTM8BBBAAAEEEEAAAQQQ6ECBTg8sWNHk5tIgZV18vgb269Mhl2R1GqwOQrhl7VuVqj3V/sJ09rD71mmX6On7pusiT/9w3bVq+9eGD9Tvf369pl6RGreFhZP79NbD//0aLZ2fI5sB0NJigYCfzs7UI/mTNKAd99i850y9WOt/eYus7oJ9jmSx/q3WxUv/NqvZ2SyRnIs2CCCAAAIIIIDAmSJw6tQp2csNMpw8edIJNJwp18d1IIAAAggggAACCCCAQOcLdHqNBSuabMWTQy32gPiqyy7ssAfpg/r3kdVrsNkJoZZN7+/TvkOfaUQHBANs5sLVl12oNY/erMK1W7Vi1T+071B1qG6b3TZmxCDd+d3x+s7EkUrq3em3o9mxRLLT7tlNk8ZoRvYovf7Oxyr66wf6+3afrHC1LaOGDdBlaedq2hWpyh53gfr17e1s/6LmVCSnb7bNheedoycXfkefHPlcf9uyRxYoKv/4iFOY2z3Q+rcZMFbM+6rLhkcUAHGP5R0BBBBAAAEEEDiTBSzdkVtTwdatmLMVcrYgg9VcYEEAAQQQQAABBBBAAAEEIhXocdr9qVKkR9AupMBXp09r78HPtOHvH+mdigPavvuwKvYc0YnaL+vaW6qjEef1dx58T7x4mLIuOd9J03OWRSlYEEAAAQQQQAABBBBopcD69es1YEDzaUXT0sdozZpi9ezRQ8nJyerbt68TUOjdu7ezbjMWLLDw4LIn9bvlj2jXrl0aOXJkK0dy5jfft28fLmf+beYKEUAAAQQQQACBbi1w5MiRiK5/6W+fU/z/RD6iS4l9IwsODD/3HOVdd4nydEnsB8QIEEAAAQQQQAABBBAIErC6Cm6RZnfmgvsbo169+GdBEBWrCCCAAAIIIIAAAggg0IIA/4JoAYjdCCCAAAIIIIAAAgicCQIWVLDgggUT3OLNFmCwmQuWFomlawiUPf0HfW/3CG38lywN6fQhH9BLv9ige8rdjpL02C+/qxs6v2O3Q94RQAABBBBAAAEE4lSAwEKc3hiGhQACCCCAAAIIIIBARwpY8MANKti7BRrs3WYrxDawUKG1BaXyNb7Y5HTNzM3UwKDtFesKVLrf3ZCs9Bm5yhzkfua94wXO0w3/8n3dYCd+d71GPdz6mnINxhQ4B8GJBip8QAABBBBAAAEEuqQAgYUuedsYNAIIIIAAAggggAACrRewQs32slkKFlSwgEJwiqTWn7HjjvBk5WlqWvjzOUGFz9I1M88fbKh6s0irVhdJBBfCo7EHAQQQQAABBBBAAIFOEjirk87LaRFAAAEEEEAAAQQQQCCOBGxmQvBMBUuDZIu7LY6G2nQo5WtVuj9Z6VfXz2AYeMU1Sk+u1o7NFU3bswUBBBBAAAEEEEAAAQQ6VYAZC53Ky8kRQAABBBBAAAEEEIgPAZuZkJSU5KQ+sqBCz549lZCQ4LzHxwjDj6LqSLWUPExpwWmPDpdrr2Xmqd6pCo3W6PCHd609TrqgQ0FjHqw/Fl6r8UFbNKK/hjRoF6r2wVYtn71FjwYfd+2l+vD2sUFbGrcJdZ6g5iFXA3UYRjQ8d3AtiD1WF2J9/cH33P0H3eN+TGtUL+KgV3fdvVuvhNvvbucdAQQQQAABBBBAIKYCBBZiyk/nCCCAAAIIIIAAAghER8BNeeTWWnBnKti77Yv14vMWqMAbGEWj+gpVx6qlfoPq6y2Ur3XaZmd5VOqt1uHD0ujgoEOsL6at/dtD9bfO14eF1wbO4H9o/71feBsWa16/RaOsgHPhtU4BZ+ch/uNeZdUVdLbjtujRJoGEoIEFHuDrtkn6cNp5zo6Dr/xJE+/+gz6+9/vKHxfUtp2r42//vj68vb5OQ9gaC3U1GL6vJwIFou3aJv5CDa+/nePhcAQQQAABBBBAAIH2C5AKqf2GnAEBBBBAAAEEEEAAgbgXcIs1WxDBggm1tbU6ceKEM+7YBhZGa2penvLqXjOVrh1aVbBW/iRHVTr8WT2v1VYoeLe/ZuZNPXNmKbiXNyRLTzSYUXCesrKTpPLPtcdtY++NfuU//voRmlZ+QN6DbqPD+rhcmjYsfLSl7OXdeiVthP4lEFSwI4dMy9JjadKjb211TxTF9wN66Y+HNO22LN0QCCpY502vLYpDoisEEEAAAQQQQACBsALMWAhLww4EEEAAAQQQQAABBM4cASvabAEFWyyQYKmQ7OVui58rHajMq9O1d/UO7SyXRqcN1KB+/tE5BZyVrbzc4MRHyRoU/vl5dC6rQVqiQJfNzRZoZlTO7IOgtEH+psnNHGERgf66WLv1sc/WrelY3XzbB5r4nxs06j8lNRnLAX28W5qWPdLfvO7sgUBG6TFZjCLo+X5di85b8QdDXikPjLlRRxfXXVujHXxEAAEEEEAAAQQQiIkAgYWYsNMpAggggAACCCCAAALRFbAUSMGzFiyo4BZ0jr/ggt+m+kiVpIEa2D9Z2l6qLWNmKu+KgXVwTu0FtfDQva51J66Mu1YfFrb//P6gQsM6B056IgsONLccPKb3JV0c1GbItO/qw2lu+qEtGrV+S5OZDkHN42Z12m2T9ETQLIq4GRgDQQABBBBAAAEEEGggQCqkBhx8QAABBBBAAAEEEEDgzBRwgwhWuNlmLFigwV72Oe4CC1XHVK1kDRvlDyIMHGDBg/rP/jtUpfI91dLQkWdISiT/LAJd+7UGqYAi+jb6PtcrStJwT4jWTtDj+/rw3sFSXbqk8zR8hPRK6U5nZkL9UQfkLa2RUxy6fmOU1gZpeJr0yt7DUeqPbhBAAAEEEEAAAQTaI0BgoT16HIsAAggggAACCCCAQBcRsBkKFlCw2goWUHDrKrjb4+YyDm9SkdcnDb1UmW6Ko7TLlZ5crR1/2SSbw2BL1ZuvaUd1stInBKdFCuzskm/+h/3a7U9DZJfgn61Q08LVbNXyhw+ppYDEwX3VTnBmeCC/0fhvWqBht37xyoG68x98xat7ypP02PVj67a1vNJ03KHTOUnynK1pqtGfN9f3WX/+83TD9wZL67forqAx1e9nDQEEEEAAAQQQQCCeBEiFFE93g7EggAACCCCAAAIIINBJAlZjITEx0amrYF3YLAWbrXD8+PFO6jHC01ogYfUO2WNv/5Ks9Bl59UEFZ+NAZebOlIpWaVXBjkA7j7LPsALO42+/VD+ZvUUTZ+/2X6MVab73c018OHDJki4YliSt313fRpKlD/owOH3QQa/uunu3Xqk/TNJg/bHwWo13t9lMhl9au+CaBo3aaKuWz96iR91jJN1z9x90j30OqtvQeNw2no23eTWxNOhAW7Xi1Pd+rlEPB/UZXIjaxnTv+ob77bjgNo1OyUcEEEAAAQQQQACB2Aj0OB13855jA0GvCCCAAAIIIIAAAgh0NYH169drwIABzQ47LX2M1qwp1pe1tTrnnHPUp08fJSUlOUEGWz958qQSEhL04LIn9bvlj2jXrl0aOXJks+fsjjv37duHS3e88VwzAggggAACCCDQjQSOHDkS0dUu/e1zIhVSRFQ0QgABBBBAAAEEEECgawvY7AR3cYs4uymR3LRI7n7eEUAAAQQQQAABBBBAAIHmBOr/ddFcK/YhgAACCCCAAAIIIIBAlxaw4s0WULDFZijYZ1vs3QIMLAgggAACCCCAAAIIIIBApAIEFiKVoh0CCCCAAAIIIIAAAl1YwK2pYMWaLcBgNRdspoJ9Dp7N0IUvkaEjgAACCCCAAAIIIIBAlAQILEQJmm4QQAABBBBAAAEEEIilgAURLLhgsxMssGAvCyjYjAXKrsXyztA3AggggAACCCCAAAJdT4DAQte7Z4wYAQQQQAABBBBAAIFWC1hAIbimgs1UsJe7rdUn5AAEEEAAAQQQQAABBBDotgIEFrrtrefCEUAAAQQQQAABBLqTgM1QcGcm2CwFq7Ngi6VEYkEAAQQQQAABBBBAAAEEWiNAYKE1WrRFAAEEEEAAAQQQQKCLClgqJEt9ZIEECzLYZ1u3bTZrgQUBBBBAAAEEEEAAAQQQiFSgV6QNaYcAAggggAACCCCAAAJdV8BmKVgQoXfv3k5dBbsSN9Bg77FbKrS2oFS+xgNITtfM3EwNbLC9SpuKVmlHteTJytPUtAY7+YAAAggggAACCCCAAAJREiCwECVoukEAAQQQQAABBBBAIJYCJ06ccNIf2WwFm6FQW1vrvFvAIR6WlgIFVW8WadV2KX2MR9reJAwRD5fAGBBAAAEEEEAAAQQQ6DYCsfxpUrdB5kIRQAABBBBAAAEEEIi1gKU+cuss2LoVbnZnKth6XC/la7VqzzDNzMtV5oC4HimDQwABBBBAAAEEEECgWwjEx8+TugU1F4kAAggggAACCCCAQOwELAWSu7gBhsTERGfWggUa4npJm6o80h7F9S1icAgggAACCCCAAALdS4DAQve631wtAggggAACCCCAQDcVsOCBm/bo+PHjTuFmCzbYrAULNMR68XkLVOANjCJkfYVYj5D+EUAAAQQQQAABBBBAwBUgsOBK8I4AAggggAACCCCAwBkscPr0aaeuQk1NjZKTk5WUlOR8tjRIbsAhNpc/WlPzRgd17S/QvKrgmLLzpip4T1AjVhFAAAEEEEAAAQQQQCCGAtRYiCE+XSOAAAIIIIAAAgggEE0Bd2aCBRNstoIFFBISEupqLURzLOH7GqjMq9OVLJ92lodvxR4EEEAAAQQQQAABBBCInQCBhdjZ0zMCCCCAAAIIIIAAAlEVCC7YbEEGe504ccKpsxDVgUTYWfWRqghb0gwBBBBAAAEEEEAAAQSiKUBgIZra9IUAAggggAACCCCAQIwELIhgMxQsuGCLpUay16lTp+KixkIDlqpjqlayho0a2GAzHxBAAAEEEEAAAQQQQCA+BKixEB/3gVEggAACCCCAAAIIINCpAhZEsKCCO2vB3i3QkJiYKCvsHDfL4U0q8vqkodnKHBQ3o2IgCCCAAAIIIIAAAgggECRAYCEIg1UEEEAAAQQQQAABBM5UAaupYAGE2tpap66CFXG2WQwDBgxwtsXsui2QsHqHqusGkKz0GXmNggoVWltQKl9dG8nnLVCBV1JyumbmZoq5DUE4rCKAAAIIIIAAAggg0MkCBBY6GZjTI4AAAggggAACCCAQDwKW8ujLL7+sK9RsgQZbgrfFZJyDMpWbl9lC16M1NW90C23YjQACCCCAAAIIIIAAAtESoMZCtKTpBwEEEEAAAQQQQACBGApYAMHSIQUvCQkJziyGs87inwXBLqwjgAACCCCAAAIIIIBA8wL8C6J5H/YigAACCCCAAAIIIHBGCLhBBUuH5NZUsICCW8z5jLhILgIBBBBAAAEEEEAAAQSiIkBgISrMdIIAAggggAACCCCAQGwF3FkJNkvBfdk2CzJYmiQWBBBAAAEEEEAAAQQQQCBSAQILkUrRDgEEEEAAAQQQQACBLixgwQRbLCWSFW22GQwWULB3d18XvjyGjgACCCCAAAIIIIAAAlEUILAQRWy6QgABBBBAAAEEEEAgVgIWTLC0RxZEsJkK7mcLNNiLBQEEEEAAAQQQQAABBBCIVIDAQqRStEMAAQQQQAABBBBAoIsLWNojN/2RBRZsxkJwzYUufnkMHwEEEEAAAQQQQAABBKIkQGAhStB0gwACCCCAAAIIIIBALAXcWQru7AQLKNTW1jqpkGydBQEEEEAAAQQQQAABBBCIVKBXpA1phwACCCCAAAIIIIAAAl1XwIIHwWmPLCWSBRZOnjyp3r17x/DCKrS2oFS+xiNITtfM3EwNdLcf3qSi1TtU7X6WR9l5UzW67jMrCCCAAAIIIIAAAgggEC0BAgvRkqYfBBBAAAEEEEAAAQRiKGBpj3r16uW8rGCzBRRssQBDPMxY8GTlaWpaOKAKrV29Q8lZecp12lRpU9EqlRZt0sDg4EO4w9mOAAIIIIAAAggggAACHSpAYKFDOTkZAggggAACCCCAAALxKWCzFSyAYEEFq69gS2xnKrTGabSm5gXPTRiozHEe7fDuVflhKXNQa85FWwQQQAABBBBAAAEEEGivADUW2ivI8QgggAACCCCAAAIIdBEBCyzYzAVLgeQGGuzdgg1dc6nWsaquOXJGjQACCCCAAAIIIIBAVxZgxkJXvnuMHQEEEEAAAQQQQACBCAVsloK93CCCvdvLgg3xkArJ5y1QgTdwMY3rK4S4xqojVm0hWf3rijCEaMQmBBBAAAEEEEAAAQQQ6BQBAgudwspJEUAAAQQQQAABBBCIL4ETJ04oMTFRffv2VVJSUl0aJFt3UyPFZsSN0xz56yesKjgWvjjz4U16bXu1NDSbNEixuWn0igACCCCAAAIIINDNBUiF1M2/AFw+AggggAACCCCAQPcQsHoKZ511llO02Qo3W0okm7FgQYV4mLFQfxcGKvPqdCXLp53l9Vvr1/yFnKvlUfaU4LoL9S1YQwABBBBAAAEEEEAAgc4VILDQub6cHQEEEEAAAQQQQACBuBDo2bNn3TisxoK9LNBgS2xnLNQNq8lK9ZHGBRQqtLagVD4lK33GVBFWaELGBgQQQAABBBBAAAEEoiJAYCEqzHSCAAIIIIAAAggggEB8CPTq1Uv2sqCCvWy2ggUZ4mqpOqZqJWvYqOACCpYiyQ0q5JICKa5uGINBAAEEEEAAAQQQ6G4CBBa62x3nehFAAAEEEEAAAQS6pYBbrNmCCRZYSEhIqEuB9OWXX8aPyeFNKvL6pKGXNggeVKxbpR3VNlOBoEL83CxGggACCCCAAAIIINBdBSje3F3vPNeNAAIIIIAAAggg0K0ELN2RvSyI4AYZbN1SJLkpkWICYoGE1TtUXde5BQ/yGgQVVL5WpfutQbV2rC7Qjrq2kpLTNTM3U8FzG4J3s44AAggggAACCCCAAAIdL0BgoeNNOSMCCCCAAAIIIIAAAnEnYAEEK9p84sQJJScnKykpyZm1EPPizYMylZuX2bxX2lTlpTXfhL0IIIAAAggggAACCCAQPQECC9GzpicEEEAAAQQQQAABBGImYOmPLLjQt29fJwXS8ePHndoKNnshuLBzzAZIxwgggAACCCCAAAIIINBlBAgsdJlbxUARQAABBBBAAAEEEGi7gAUQbLFizfZyFyvcHPzZ3c47AggggAACCCCAAAIIifEXPAAAIABJREFUIBBOgOLN4WRa3O7VksA/ytx/nLX+fYm8LfYT6wY+Fd7s/8dnjx5dYbyd4VV/r2c962tlB8F+rmOo95HKnjpL8x8plNUq7NRlT6FmBb67SzY27Mn37KzAw4Y4vddBY2/p723ouMmafPtCLX/WK9+phtfZkZ+8D7n3M07NOvJiORcCCCCAQJcWCK6tYP//qM1ScN9jWmOhS6syeAQQQAABBBBAAAEEuqcAgYXued+56rgTqJR3XZGW/2yOsoeO1Lxntqkm7sbYQQPylWjZQ0Xq7PiJ770SlTyzTPNnZ2toxiwtf6frivo2LNOSFztbrIPuL6dBAAEEEIhbAQseJCQk1BVqtkCD1Vzo06ePsz1uB87AEEAAAQQQQAABBBBAIO4ESIXU5luSodySV5UV8vijKnl4lpass51z9XjJbGWEbDc0zPaQjdnY5QXCfxdqfNtU+nqxCp8sVqUqteL2HCUN3qbHr0/p8lcdfAHbfjtDM+4oVuVNKzUneEdb1n/4uF69JfRflp3u6K4SFf9+hVZs8EkVRZp/3VwNfWulci9oS2exOmabVkyfoXlrKpVb2G6xWF0E/SKAAAIIxImAW2Ph1KlTTkDBPp999tlxMjqGgQACCCCAAAIIIIAAAl1JgMBCm+9WijIm5YQJDPjke9I9caomTMoJE4Bw2/DePQSa+y7kaPot+Vr8s0LNyZqjQp9Pyx9YobnXL9D4MwjnqM8CJx20DJ+gnEmhQ3v+HnKU+4OFmvvQdGU/4JV8hcp/Yq6m/2uOkjpoCHaarJ+f1umfd+AJG5zqqHxrOkyswZn5gAACCCDQ/QQsoGD1FBITE+UGGdxUSLaPBQEEEEAAAQQQQAABBBCIVIBUSJFK0Q6BaAhcNFsLfxIIJbyzUiXvRKPTM7mPFGX9dLHu9/iv0fdwicrO5Mvl2hBAAAEEEGhGwIIIbi2FxuuWFokFAQQQQAABBBBAAAEEEIhUgBkLkUrRDoEoCQy9IFVyHn+XqabrlgWIklYE3SRNUPaNkpxZRNtUuUfK6lLpkCK4RpoggAACCCAQgcDp06edYs0WVLB1W9x193MEp+mEJhVaW1DatP5Scrpm5mZqoNNjlTYVrdKO6qDuG+wP2s4qAggggAACCCCAAAIIdLoAMxY6nTiSDmrk21ioJbdPVnZaj8A/+EYq++b5WvasV76wM9O9WtLD337JRuvnqLa9uETzskYGzjFUY3PmacmL23Q0kmFEo83RShU/s1DzcsZqaGDsQ8dN1ryfrVBJyNq0ZVo2PmByc2HTf3A2GHONSn4WaDt+Wchfph+tKNaKn83T5HFDGxgtfKakGecGnXT6h+N193u8kprk7Km/57OeDQnmH9+eQs0K+Dbbri1Xc8on77PLNP/mbI0M9NEjLVuz7lqmovdCf9O8D/nvS/YDgQ6fn1N3/zt8fE2uKUUDBjfZ2GTD0e3FWn7XrBDfjWJVhr4s5xzutfXosUTe4LPW3YNZKtxjOwJ/n0Hf/ZFZszT/16HO797nbC0KnLNotvuddc9X31nNnhL/97rub7+HRmb5/66KK5oZfP0pWEMAAQQQ6AYCJ06cUPDMBFt3ZzD07Nkz5gKerDzl5QW96oIKNrSByswN2pc3U+naoVVFm1QV85EzAAQQQAABBBBAAAEEup/AmR1Y+OqETn36aQuvE/oqlvf9kFdLbkjV0Kw5WvRMibwV7mAq5X1+uRbOztbQjHlasb2Fn66fqlTR7RM0NneRVmx0c7L7tG3DCi3KHauMnEUqOeSeOzbvR9ct0uSMkZpx+zKt2LCtLkjge69EKx6Zp8lDR2rWr8vU8ErHK/euHP+An1+p1XU+Ia7haImKHvFvHz87p1FtgqMqeWCyMtJmaN4jK1TynvtQ3m+07PbJGpoxS8vfadh7iF46eVOlvC8X+fu4Ll+5l3Vyd608fc32FZqXMVTZsxdq+fPe+noJFV4VPblQs8ZlaPJPOrCOQivHF7p5pbY6gTfbmypP4yBD9TYV/jhbAzJmaP6TRSG+GzM0MmOyFq1rxwP6aq+W5GT4/z6DvvuVG4u0/Md2/jkq3BV69C1trXx+nsYOn+z/Xtf97UuVG/1/VzPSMjT5YW+jv6uWzsp+BBBAAIEzUaBv375ObYWamhp98cUXTr0Fq61gAYavvorpfxG3gXugMsd5pOq9Kj/chsM5BAEEEEAAAQQQQAABBNolcGYHFj5ZqxO/uVw1zb6eVm27CNtxsD1svD5bi162h9we5fzwcb1QtlNHjhzR/m2leuHfc2VJcVSxQvMmzdDyZvLtr/7pHM16plKeSQv0VMlW7XfO8aqeuidHll7et2GJJl+/RGUxem5es3GJpk9d4p+V4MnR3F+t1tb9R3TkyH5tLXlKCybZKCtV9OPpmvusGxjx26ZOmq3pzmqxil5vuC9Y/+jrxVrubMhR/o3BJY9r5H1ouiY/VOIEMzyT5urxYr/Rkf1b9erTC5Rj3VcUaf51c9v8gDd4LK1eP1Uj3/ZiLbt5suY8b0dnafGDc/z3v9Un66QDdhVq7qR5WuEEd1KV++BKlVbaPTyinWUvaOlN9m31qeSxGZrzUMMH2Vn3+Nutvjcwthuf0tYj/m0rbgwUQOikYVc+u0iL1gVOfmeOJjSYBVKpwrtyNOfX/rkGqTct1srA38+Rys1a7X43fCVaMnWC5q9pS3ChUo//IFeLNqjR3/hqPf6DQPFpX6Hm3LWiPlCjLC1wfFbr/sDQc3+z1bE+cmSFcgOpnGreXqI5N/uPS71pqV7wBr7XDf6ufCq5L1cLX27L2DvppnBaBBBAAIGYCFgA4eTJk05wISkpSQkJCc443BRJMRlUuztN1qBB7T4JJ0AAAQQQQAABBBBAAIFWCpzZgYVWYkS3eY1K/jVXi5xfUns0u7BUr/7GfqGeqpSUFHnGZCn3py9oa9lSTXciAyWaf2fo9D42bu9Grzy3rlTp2qWaOylDHuccOZr76KsqLZjtBBe0cZEWNXpoH5VrrinR4hsX+dPEeGZrpfdVPfWj6crwpCglxaOMSXO1tGSbXr3XHrL6VDh7fuDhdWB0o2dozk3+9eLnS4IevgaP/qhKXvSHFXTdbOWMrt9Xs2Gxch/wPzh2jEqeUv51fqMUT4ZyfrBUr777qu6faN03fsBbf572ry1Stps6qPF7Qh8NzZihhc/7g0Mrt5Xo/ssbPAFvf/ftOkOlVtw1R4XORI8sLfZu1Qs/n62si+wepij1slwteG6rtv7G/13zPpCrReuColjJ/nYD+gQG0auPBqT4t6V0ymXW6OiuMhU9MkuTZ7sptLK09I7pSglyqHxmvub83j97JevBUm197n7NDvz9pFw0XtPtu+FdrXz7bqhSy29fpOJWz/wpk3ejQvyNT1f+0yV69aeBwMqaQpUEzchJcnwGyCVT8gDH2rxdsrKXAn9XUx7X6ucWKHdi4Hvt/l29VKT7nVkvPi3/fXHdLKEgAlYRQAABBLqRgM1KsCCCW0/BTYNk263WQqwXn7dABQWBV4spjiq01utT8pjLFfSffbG+BPpHAAEEEEAAAQQQQKDbCBBYiNWtPlSswof9DzQ9P12pFbc4cxOajCbpsgV6/EH/7/W1cale2BD0sLZB67la/uhspYYox51662Itvs7fuPhXRSFrDzQ4VQd/8L24XEucS/VoQcEKzb4oVAcpyrlvsRY4z1iLtejZ4Gz1Hk2/Za7/oEYPX+vOdKhExc/4P+XeOiPol/4+FT25xP9A1bNAK5+YHbSv7mhpcI4WPbjAH4BZs0iFdalzgtpEadW3rUwl60rjpuaDc9kbC7VojR9g+m9W6v6J7qPtYJQkZfzQ/a75tOy3RZ37IPuB7ECdjEBdjQbBmj4akDpBs35WFAhEWfBupRY0SC1VpqJfFfsv4LqntPLnWXUP7IOvShdN11L3u+FbruUvh5810+C44A/XLdbikH/jScq5IfDdVokq/f+TEHxkM+s+VW4P7L5gqIaGapmcpVl5WcqYlKOcZOl4qDZsQwABBBDoVgJuMMGCC8H1FtztscEYranBtRXc+gkFaxUUc5dkBZzd4EOpfMnpuuYKf2nn2IybXhFAAAEEEEAAAQQQ6L4CIR5Dd1+MaF75UW+JVjgdejQ/Nyf0A83AgFJvylf+HZbmx6cVfyvT4kmB9CnBA/7pbE1vnDu+bn+qZtyaK60pkt4p1uaKBRoftZ92HdXm1wM1AzRXs6aEeiAdGGhytqbfKi17RPI9UaKyn2fV1UlImZSrfK3QcpWocEOl5o5uGIjxrVsZ8JyrOVOCUusc3axSJ7WQpB/Och6u1rE0Wkn69nTN0TItk0+PbyjT/ROD0yk1atymj3P1eMlsZYQ6tsanbd5SFT+7XMUVJVrx4xKtXrdUxYULND451AHR3VbmfSEQJMjVnCkN7RuOJFU5N+ZIa0qk51er1DdbuUG3o2HbaHzyKOOW+Vp8X75yLwmeqyDpnRKtDKQXaxiMajqupClztPCyZVr4jlS8xivfD1L9QaimTUNuGT9lQuiAlrW+aKxyJdlfybaPLbIQKZhHqZZb+nmf9Ey+5qSl6PEf5Si10fdl/D2l2npPyGGxEQEEEECgGwr07t1b9rKltrZWiYmJssLN7iyG+CAZqMyr07V39Q7tLJdGp7mj8hdwzgx8rHqzSKsKipQ+I1eZsU6HtH2VfvPXfe5A/e8XXKU7po8J2rZdq37zVzVsdb6uumOm6lsd0hvPFun9z4IOUz9dfOMtunJI8DbWEUAAAQQQQAABBBCIrQCBhRj5V1aUBnrOVmogX3rYoaRkaPwUSesk37uV8imryaPH3PFjmw1OeFInBB5dlmhbZY00upkH/GEH0pYdlSp7MXDcjalKOXpUzWV6H5BqszOKJd9mbdsjjXdtUnKUe69Hyx/2qcTSIf1wbtCDWp9KXgwEL+7MVU5wgKWiTC8Eus8dnqKjR5vtXanXS3pZ8pVZcenxTZzbIlB/TKomTMpRiLCQ0yTnutnKf3CxSu6b7hTb9b28UHMfy1ZpuF/S15+4k9d8qiwrC/SRoZSUo2qOcYDHAjIlkgq1bdfKyJ+Tt/Yqfvi4Xr0lZJhGkqWWytBQSycU5qt+9OPKutk7E1Jbepgf+Bu0QMTzlc4siJaOCL6cVE/I+QTBTdq0nnXLYk1/YJ4syVHxfZM18j4pdeJc5c7O0fQpOcoe7VES/yvfJlsOQgABBM5EAQsgWLFmS31ktRbsvV+/fjp+/HhdvYV4u+7qI1WSQs9KGHjFNUrfs0o7Nlcoc0rUfjUTmmjMTN1RHx0I3UZjNLPFRoN15S136MowZ2AzAggggAACCCCAAALxIsAjpxjdiZpq90HthJYDC+qjPo1+bN142C0+GL0gte5X0ZWH7OF6ax6LNu6tNZ9rrGyCf3lxnsa+OC/Cgyu133LZu4EFJSl7ylx5Hl4i37rlKnpnbn1am4rVWunMSvDo/ptyGuTQ16n67ovuGKuiOyLsvny/9kdRqX5UKcr51+VaumaC8+v4sgdWquRHWZrewv2vP75z1mrqMnAt0YwBSyLuZP9B+6510uCHT1BOqNk7EY6uptrusC25EfwNJqlPv0DzeHobPVcr36rR3FvmqyiQK6Jy4wots5czzlRNv3OB8n8yR9NHd9J9iCcPxoIAAggg0KxAcC0Fm7VgsxUsBVKvXr3iosZCg8FXHVO1kpU+KnRQIbhtcv+W2wS3Zx0BBBBAAAEEEEAAAQTaL0CNhfYbdo0znOoaw6wfZZnqH2b7tyZNmqWFTo78Mq3c4AZmpMrXi2yOg+SZq5ysMD9Prz9xZGvv1KjuWXpkR3Rgq/HKudkN/CxXmZtHvwN7iNap9lfHTjFa1xjrflIuz9cL245rp3ellt5pRdGDR1Sp4ifna0ZahjMLhrsRbMM6Aggg0P0ELLBgi/tuMxisaHNCQkJ8pUI6vElFXp809NJmUxxVrFulHdUeXUqdhe73ZeaKEUAAAQQQQAABBGIuwIyFGN2CpGRLF2MPxzerco+UVffL/FADOq7jzWXwkdTiL8N9lU4Odzt7xvAGTx5Dddg5235eqtMPhksEFEmX45Uze7z0TpnKCkpUds94jVelSp71F+D13DVDOc3EFe5//bQWfyuSfmLfZuhF2YHUVbEfS4MR3LhSO4vCFMBu0DD+PyQlu+mJipy/wfrZMaHGXqPjDXIdh2oTw229kpQ6cbYW2OsJqca3TaUbilX07Aq98LKl9fKp5L5cLZ5YqcWTmvkjieEl0DUCCCCAQOcLWBDBXhZYsJoKtm7vFmAILuTc+SNp1IMFElbvUHXd5mSlz8hrGFRo0kbS0Gzl5cU4BVLdmFlBAAEEEEAAAQQQQKB7CRBYiNH9Th1tD44tsFDa8kPNQ2XyrvMP1DM+I2QSo9KKSqmu1HHTi6os3xzYmKuxFzXd33lbUpVxq6TfS9q4VZXKCqqN0Ppex9+Yr5yfzVPJOytV8o4VNi5RoWMzXguvDxG0uChDs51s/5J3W6X0reYKD7d+PJ11xP5dbg2O8D0UOfc8TJDo0H6nDkD4o1uzx6OM8YEiwS9uVmXNbKWeAc+mU4anOn8xTniv0idNDGPpUG1TWeBvULdmtOs73Br5trZN8mQo5xZ7LdDiDYuUk7NEZVb8feM2LZ7U0UXJ2zpKjkMAAQQQiLaAzUywIIK9u+tWc8FNhxTt8dT1NyhTuXluSea6rQ1XImnT8Ag+IYAAAggggAACCCCAQCcKnNmpkDzX6+yFHyi52dedSuxE4HCnTsnK0Vxnp0+PFxQ3W9C48sUVWhE40ZzLQxerLSsoljdsnhP7VX+guPF101uYHRFuxG3d7tH4SVaQ2YpPW22E5s5zVMV3DdXIrMmaPHWRSup/tlZ/0Ogczb7OPvrTIVVuKHTKBOuyOcpx0iTVN3XWPOOV47SXSp4oqivW26iV/+OhYs0fOlLZUydr8gMlMUyFVKaS59zCFPkaH64Q4GfHw46xsqyk+WsNCRB+Y8bEuYGA1jIVrml++kzZY9kaOs7u4RytiOc0TpflaE7gO1P0q5XNetWsW6mlge9uzrc7uqh3ePdm9xz1avldszQ5a6RmPet+X5oekTJphmYFNvtOhf0fiaYHsgUBBBBA4IwTsFkJFkhwF3fmwtGjR1VbW+tu5h0BBBBAAAEEEEAAAQQQaFHgzA4stHj5MWwweLpm3+v/hbTvybnK/73NOGi61LyzTPMf8Kf60cSlmjMlzE/F31mkBY94QzxorlHZI/M1b42d26P8O2dF/dfWqdfnK9+51DItvHORSqwoc4il8tl8zX3Sp8qNJdp6eY6yk0M0Uqpm3Jrr7Chbs1xLni9x1qf/ODfMfI1Uzboz3/9Q/J2Fyr+vJEwQp1KFP5mr5b5KeddtVdakbIWRDjWoDtx2VN6H8p3CzXZSz725ymlQczdVqTcFuvv9ChXtCtH1rkItui/wnQmxuy2bnPoWE/1HrrgrXyu2h35AXbNxifJ/4pXvvRKV9MpRTrigyPOVHTijoi1XZMeMV+6PA0GvjQuV/5A39HdjV7EWPrDMX4Pck68FN8Zm1ot/hkrQtaYkqcZbpJKNlSr61Qp5QwXiJNX8bbVeCByWf1nowGTQWVlFAAEEEDiDBWy2grtYIOH48eNOWqS+ffvGV40Fd5C8I4AAAggggAACCCCAQNwKEFiI2a1JUs59RVrsPKz1qTAvW5PvsF/0V8p+NXZ0V5mKHpmlseMXqtj5MXKWFj+WH+bhuf8ivA9ka+zNy+rO4dterOW352jCzwI1CG5drkXXN3hK3cqrr9TmDSUqieS1PehX7YOna8Gjs/0P9zcu0eRxkzXv10Uq23XUudbKd4q14ieTlT27MPDwdraW35UT9sG+Z8oc/2yPdSu0wklPM1253w7/sDfl+gVadqs/iON9eLIycuZp+YtlqjTno5UqW7NCC3OyNef3/l99e25drvmdkoe+Ob9iFf56oeaMy1D2A17/ffGEcvBo+i3+uS7yFWrOlFlatmabfO535tfzNDlrjgqVpaxQMzhaecfrm49X/mOL5SSb8hVqXsZYzXqoUCXbfc499G33+r+vWYvkH32WFj84p0kQy+PJCZxytVavCXzXwzwQr++789ZSf/C4VrrfjQeyNeHmJSrcEPD0bVPJMws1OWuGlm+0MXg0+9EFmj6488bT9MweeaYEthavVnHgb6bG+bHpeM19MBA027hI2eNnadmLXm3z+f+unP8N+fU8zbjJ0iBJmrhYc6e05++/6ejYggACCCDQtQSsnoK7uOmPLNhg61ZvgQUBBBBAAAEEEEAAAQQQiFSAGguRSnVGu+Qs3f/yqzp+8xwt2eBTyW/nq+S3IToanavHn1+p/Mua+Q39j5Zq6a6lWvj8Qs16fmGTk2T96AWtfDQ3ZH2GJo3Dblih+TluUqawjfw7HizV6Z/X1zxIvWWlSpOHat4dy1TiK9GKH9srxDkm5uuFZx9XbnPFrAfnKPdOacWTgeN/MFezmq3bl6rZBaVKGTxPcx8rkW/DCs3fEPo6OsYpxHU5m1rhN3qunno5tEPKjffrhR+UaNYzlVJFkRZOL1KDO+6Zrac2LFKfB8bK22zqqXDjDL09aeL9KilL0Zyb5st+PV/0wBwVPRCirWe6lr68Ugsub/p9Tf3mdGWpRF55tWT6SC2xw9td1DvEGCLelKrZT5ToeK8ZmvdMpSqfX6Q5zy9qerQnRwt+85SWXh8+gNX0oI7YkqoJ12VJ67zSxiWakeqIyS1EnnL9UhU/WqnpPymWz74LuY2+C+4QJuZr9bP3a3zTW+K24B0BBBBAoBsIWBqkxER/EtDevXvLZipYYMFSIllwgQUBE/jss8/iDuKcc87Rp59+Ghfj6tevX1yMg0EggAACCCCAAAKxFuBfELG+A4NztLhkm3YWP6UFP8hRVt0D8lRl3ZSvpUWbdWTbC80HFewahmRrwUvbtLVoseZODDz8tAKuP1isld79Kv1VrlJjHEZKvX6pXt22U6ufXqC5U4KKONs4b8rX48VbdeT1x5XbYnHpFOXcdH9dkGTu9Tlq+XfYqZr+6KvaVr5aT/10rnJcI/sd+iUWqHhcq7cdialT6kQbx/16yhy2PaW5Y8I9BU5V7tM7tb/EvjP1jp5Lpiv/V6u1c9tKzR0zoFO+2UmX5euFbftVWrhU+TflKKOu3nGqsqbM1eLCUu2vXK0Fl4e5I5ctUPHrSzV3UlAR8vdinBYpOUNzzdO7UkvvzFXOJe5FeZQxaa4WPP2q9le+GoOggv8Wjr+nWKX/PjdoXNK2Sjd1WpLG37O6/nsd7Nro72p6i39XnfKV4aQIIIAAAnEkcPLkSWc0NjvBZi/Yy9atkDOBhTi6UQwFAQQQQAABBBBAAIEuINDjdPCc6C4wYIYYLODVkh7Zcn5f3WiGQHAr1hFAAAEEEEAAAQTOTIH169drwIDmf1CQlj5Ga9YU66tTp2S//LZfXNvMBXslJSU5wQWbtfCLf39cv1v+iHb9/+zdC3hTVb4//G96o4x1LDdNFUcKxVIQ3oaj0nSc8RCuFvBoQQ+2x6oUzxlpR0epnnGozDtYBl+lMKNU5lEL2jmtHLHBv0K4hzMzTlMGJfy5FaRQGLlEubQ49VDoJe+zdvZOdtIkTduUpu13P08me6+99tprfXZ9huSXtX4nT2L48OG9E6wTozp79myfcOGMBf9/JJyx4N+HZylAAQpQgAIU6NkCtbW1AQ1g+bsfgTMWAqJiJQpQgAIUoAAFKEABCvRsATErQSRtbmhokJY/ioiIkGYqiDJuFKAABShAAQpQgAIUoAAF2iPQzYvjtKerrEsBClCAAhSgAAUoQAEKdFRAmagslj8SMxREzgURXGhubpaOO9pu56+rxraSCtg8G4pJxMz0CRjoWY5L2G3ciKP1QMyomUi/t3WNVpewgAIUoAAFKEABClCAAhQIqgADC0HlZGMUoAAFKEABClCAAhQIXQERSBAvsYmZCiK/ggg4iOBCd29afRamjgygF8e+kIIKAdTspiotML3SjKc3Om6fVhCOd2fIE8WtTbhtnt1xYqYG1lcjcHMnevntlkboXm7dwLu7IpHmI+VV69oBlNRHoLIyHNv/okHlfuD4RfmaQUDKcDtGT7JjVkoTkga2+Gxs3wfRmFvsOj11cRPenNzkKjgfhWdnh2Gbs8SOdX++imTncaA7Edj46wjk7XLV/8XqBvxsjOuYexSgAAUoQAEKUIACnRdgYKHzhmyBAhSgAAUoQAEKUIACIS8glkIKDw+Xlj8SsxbEsXiJQIOS2DnkB4FqbLPYEDMqFbedrsCZkOywHQfloILo3th41+qzf6+RgwoA7krUdCqoALRg5ybvABsqW5A23XVf77UCKQ3DcVMk/uM1DU57q34RqLyoQeUeDdYgCilPNOPN7Eb80FtdllGAAhSgAAUoQAEK9CqBYPxrs1eBcDAUoAAFKEABClCAAhTojQJiZoJY/kjMThABBjFbQWziXRz3hO3S3/bDBi3GhfLyR1/b8aUK867blYMWVB9R9oH7Ejr5UezrFnzyuas99Z5pUwv+ri7o0L4Gp3dE4klfQQUvbVZ+EI4ZS6Nwwcs5FlGAAhSgAAUoQAEK9C4Bzljo0c9Tj0V2Oxb16DGw8xSgAAUoQAEKUIAC10NAzFIQmwgwiGWQxEyF6OhoiPJQCCzYLCUoscgS3vIrXNyN/zlSD60+HQm4BGU1nuth1557fFdjh/P7/hQNEm5UrrbjoGp5nrt+5Hgeytn2vdtx0Ky6j+fFn9vx16+BHzmDGp4VAjg+E4lXl2hwPoCq6irnt4Zh9cRwvJLazuW1hlzDm39Wt8R9ClCAAhSgAAUoQIFQFmBgIZSfDvtGAQpQgAIUoAAFKECBIAkoCZtFc8oySCKoIAIN4rj7tgRMzUpQ3d6RnHljyWWkZk2FcqZ671HUxyRq1KwEAAAgAElEQVTinwPJw6Bq7Xrv/r1adcdxGvxIOTxrxwHlp/yDNRh5q3KiI+8t+Otm1XWJGiy+344l77jK3v9TMx77t47PRDm9Nwx/cjUHjLGjILcZU4e34If95VwK18Jx+lAEXn9Dg22qtZJKK8PxXGozl0RS+3GfAhSgAAUoQAEK9DKB7vwE0csoORwKUIACFKAABShAAQqEtoAyO0HMVhDBBBFsEK/Q2gZiwv2JiIENJ47JPTu2DRXnYpB4/wQMDK3OevSmBccOuYoeTnDNSrj6d8CknJoIV8BBKWvH+9U9dvzhqOuCux7Q4D/uc8/ZcHCjHQddVdq5F47jir18ZeaTjZgzpskVVBDlUc0YqruKN160Y4j6Dp9ocEJ9zH0KUIACFKAABShAgV4nwBkLve6RckAUoAAFKEABClCAAhRoLSCWO+rfv7+09JEIJoiZCuJdBBtCL7jg6H997SVpZ/cBGxCXigmDWo+rW0u+acLT0+2ugIFHZza81IwN8LIk0Ho7ktY3AlM0sL4e0c4kznZ8UWnHt6p7paeEA4nN+FmiHUuUgMNRO8wH7LhrrCu4obqkzd1rV9yrbNsRgYwxjRgR40pArdTop7uKv3R2GaPzUXh2dhi2KY3CjnV/vopk57Gyo8F3ZyKw8b/D8NkXGljFTImhwNS7W5DxZBNS2hV5CsMFawTWbA3Dn3YDx+X1tXQT7Zj6kxbMmtiIwR2f9KF0mO8UoAAFKEABClCgVwowsNArHysHRQEKUIACFKAABShAAXcBZYaCSOAcFRUl5VUQQQVlWST32t18dOky6hGDxBEDgYu7caYeQH0FSkoq3Dt2ZCNKjgAxo2YiPZQTOrv3unNHdc3YsEbVRKIGP04Ux2H48QMtgBJYALD2f1rwH2PD0U9VPbDdZgwdGQlsddUWuRNmbO2H+x9qQcacZtz/Iy8BE1f1LtoLQ9VHkfj3VR65H04D206HYdsnUch8rRm6QO5eH4myN8KxRJX3QrnMuksD665w/H9rwrD4103ISOyOsSq94TsFKEABClCAAhQITQEGFkLzubBXFKAABShAAQpQgAIUCKrAtWvXpICCCCSI2QoiqKBsoixktou7YbSoZyhMQHrWBI/uOfIwnBnahwIKssB3e+34UKVx36Ma3CUda3BXith3LYH07ad2fPEfwI+jVBcEuJs0vgU6hMHqUf9Pn4RBvIYMj8CsR1sw+8fNGHHT9VhOS4PTO7wEFTz6V/rLcGxra2bLlUj84cVw/E61bJVHM47D0xoseToS362242djrscYvfaChRSgAAUoQAEKUCAkBRhYCMnHwk5RgAIUoAAFKEABClAguAIimCA2JbDQ3NzsDC6ogwzBvWsArYlAwqajEJMSHFsMEmdkhd6yR0r31O+3ROBd1TfvB9c0Ytpbjgo3/zwM1nnyOjpfN+FfH7Tjc3EqRQPL6ogO5lhowaYN6g4AD92jWqsnUYP0RDsOKrMWLthhqmzBj3/agcBRQhP+MzsKc4vd76ccnT+hwZrXwrEG4Rgx2Y5nZjdjypimDsyOUFps4/1yJP6wxH2mwpAf2/HGC41IGdICXAtH1Y4I/Pw1DU7LSxp5bzEM+z5yDyroZrdg8ZNNSBIBEtHOnyOwZInGGVT53YoI3F98DUneG2QpBShAAQpQgAIU6JMCDCz0ycfOQVOAAhSgAAUoQAEK9DUBZckjkWtBBBJEYEHsi/wK3TpjYZC3GQltPZ2BmJCe1Val63zePXFzmipx83c1clBB9GicpoNBBQBft2CzFJ2Qh3afBj++XT3McDzwaAuWvOoqe9/cgv/8aRh+6CoKcK8FyU804v2mSLz4AXDez1XHd2iQtyMCQ8aH4z+fa8LM+OAvHXT6r2H4WN2HMXa8tfgqkvvLhVHNSEprwfvN/TD5DXVFj/3LEfhYHSxJacEbz10TaRocm2hncgveuKJq51gYPq4IxyupwR+Xclu+U4ACFKAABShAgZ4m0IGfrvS0IbK/FKAABShAAQpQgAIUoIAIJiizFoSGCCZERERIQYZunbHQWx7NNTsOml2DuSve9VHr79Wu8odVAQdXaWB7B/9kx05V1UmTw1oFKX50jwb3qerg/9ix8xt1QXv2m5GSfRWbPmjBLyYDQ9q49PxeDfKeiMQfDrnG3sYlAZ8+fsS96tTZza6ggvOUHUN/2oI5zuPWO98d0rgFKFJ+0uIKKjir2zH0nhZMdR4Dpf83DFdVx9ylAAUoQAEKUIACfV2AMxb6+l8Ax08BClCAAhSgAAUo0CcElJkKIrgg9iMjI6Vxi+CCmLXArZMC6lkJ0OBO50wC95kMY3/U0S/dm/HXje59fDjFS1u3h+Gh+5rxuWpmw4bKFjz8L17qujfn48iOH8Zfw88WAz97LgKVe8Kx/S8a/GkXcNrHFb/Lj0TS+1dx/00+KnSg+IRHPgTdsCbvrdzUghEjw4Bj3k+fOeHKLSJqVL4RgVFvBPCxuNqxDNNg782ylAIUoAAFKEABCvQ5gQD+BdXnTDhgClCAAhSgAAUoQAEK9EoBsfyRCCyIQEJjY6P0ErMV+vXr1yvH2+WD+qYJT0+3w9TqRnY8qGtsVSoKlsxtxBLlzBQNrK9H4Gbl2N/7ATv+oOROkOvlTm9Err9r5HM7d7Tg7//SenZDAJe6V7mpCSmTxQt4ZXEYTh+JwPatYSj9xCPIcFGDsr9G4P40H1/+u7ca0NFVt0CBHUP8BC2GiHWN3Oq7bnG1o6sZ7dHggqsZ7lGAAhSgAAUoQIE+L9DRn630eTgCUIACFKAABShAAQpQoCcJiKCCkrBZSeAs3sXsBW6hLmDHX//Hjm872s3P7djsEZToaFPO68JbMHTMNTz1QgN2mJpQMM15Rtr505EwfOdexCMKUIACFKAABShAgV4kwBkLvehhcigUoAAFKEABClCAAhTwJyACCeIlZimId7EckpLA2d91PNfNAtdaYF7TuT4YK5vxH4mBBZFOb+2HyUtVSwY91oz/+0wjfM5riWnCnFnhyN+quuYycK1zXXa7evA9APYoRRqcFlEWH0kfGuqVem2/T13chDcnB29mRdt3ZA0KUIACFKAABSjQOwQ4Y6F3PEeOggIUoAAFKEABClCAAn4FRABBBBPEMkjKkkjiAnVCZ78N8GRrgVsi8K41Emf+rMGTqrPLP43EGVFujcCn/+468eTvw+Vy+XyAyyB993kL/uBqpkN7BzfbcTDAK4cO8/jO/sNwrPWbkDkM+/aoggriPjcBUQHeL5BqQxPcax0+5+M3cpdFX9zrqo+G/siuPoT1jEe/3c7ygAIUoAAFKEABClDAlwADC75kWE4BClCAAhSgAAUoQIFeJPD999/j2jX335CLxM0i2MDgQicf9NdQ5VlwT9z81X5X23fFd+TjVwt2bnG1IfZaBSikIIYSzJDfP9XgPvVlR+0w7XH/Ul192m0/sQXzRrqV4Hf5Ucgvj8TxS+oxhOE7WyQ+XhWFn3/gXn/quBb80L2oU0ej73Lv+7bycOy74tlkGPZ9EoaPPYtVx4PvtON+1fH5T8Kw0cbggoqEuxSgAAUoQAEKUCAgAfW/CgO6gJUoQAEKUIACFKAABShAgZ4nIBI0q/MpiGCCSOAsAg5iFgO3jgv8vUaV/2AmcLvS1D/sOFgpHwzWYKzzhFIhgPevW7Bhu7qeBmkpAXyMuz0MD7lFFoAPK1twVd2Uz/1GzPo3u/tKQxeBj38fjhkPRWHUT6PlVxTufTQc+R8B59VtDbIj48fBXV7ohxNa8At1sOOQBj9f0g+V52WLaxGo/K9I/LxY3REv+7c14anHVOUXNcj7TRQ2VivLRIXhqi0Sf3g5Go/9uh9+Z4rCvr+Ho8NJn1W34i4FKEABClCAAhToTQIB/Iu0Nw03+GOxfThbWqNWrFMrveKWwtKu21hRqJOvldpo7/XtuhkrU4ACFKAABShAAQr0UQExM0HMUBD/ZhWbeBfBBVHOrTMCdnx9zHX9XYka3KwcqmcyTAR+pJS34/3ve+zYqa7/hAZ3B7TGUBh+PFl9IfDtmhb89R/uZb6OBk9sxFvZvs76L/9FQSNS+vuv0+6zUY146gU7dKoLz/9Vgydny4GOyRF48h2NFOAYMkhVqdVuC1LmtGDOUNWJQxrkzYt0Bkv+n0fD8bu/AtZdGvzhtTDM/bdIrD3C/05UYtylAAUoQAEKUIAC4L+Ogv1HYFsFs/KrpEDa3mdG6b5AKrIOBShAAQpQgAIUoAAFOi7Q1NQkBRPE7ARlhoIIKkRFRTmDDR1vvS9f2eKalQDgvgTXRyz1TIb7Rmk6sDRQMzZ/5G77s5Qw30mU3aviR+M1mORRZtoT6OyUFiQ/0YgNz9mh/g7eozn3w6F2LH63ET8bE+g93C9v66jfmGt44zU7UvwEDoamteCtn7kvm9Sq3SHXULCiBfPGtzrTumAQMO+1pi4bU+sbsoQCFKAABShAAQp0n8CVK1dw5MgRfPnll15f4pyoIzYfGa+6r/M9/842lP/FikUp6t/S+B6VdVcprL5P8wwFKEABClCAAhSgAAWCIiACCyKgIPIsiICCWBopMjJSmrUgZjJw66DARTsOHHVde9ePlPX63Wcy/FNH8isctcOoahvQwDBead91T597t4fhgfuasfNzV40P/9yCxYawAIMczUia3Ywd0yJQWRmO7X/R4PgpoPKEq70R4wFdYgtSUlrwU11TgO26rm/fnh1DU6/i/eJIbPwsDB/v0jj6MghImWDHzGlNmKNrxoUd/dpuVnsNL/0uHBm7w1G2KwzW/YD1tHzZUCBlpB33/6QFs37ahMFRbQQq2r4ba1CAAhSgAAUoQIEeIXDq1CmpnwMGDPDaX/FZQqnDTxBeiTpWqEvWwbrPCmuZGdYXdW7TdL23aIW5RIQVtNBqbbDZvNdiKQUoQAEKUIACFKAABTorIGYmiEBC//79ER0dLe2LNkXeBSZv7oTuoAissgKrWjWhwY9/EYkzv2h1IvCCxAhs7dSvkMLw2FthUKcUCPzmqpoxTUiZLF6qsnbuJj/RgCNP+LloyDW8+Wc/59WnBjZi5hOQXupiZX/w5Ks4ElBfmzF0QjNemqBcyXcKUIACFKAABSjQtwVE/jVfQQUhIz5T1NbWSkiuebp92ywoo5+dlekIJuwrhTmQ5Y2UZZCS85D3dFC6wEYoQAEKUIACFKAABSjgU0Aka25ubpZe4tdGYhYDcyz45OIJClCAAhSgAAUoQAEKUMCHAAMLPmA6VKw3IDNZXGlF6fa2f1pk3e5YBkmXYUBqZIfuyIsoQAEKUIACFKAABSgQkIBI1qzkVhAXiGMxW0GUccZCQISsRAEKUIACFKAABShAAQrIAgwsBPVPQQdDliO3grQckt+2rTCXieCDDplTAsvHADTAVlmGpfMmIXWkRvowqNEMR+qjuSj80AJbk68bWrBU46i/VCSWPmlE3oOjESfKRqZi9oIiWC54XNtkg+XDQuQ+morh8rWOuoUwHqzzqMxDClCAAhSgAAUoQIFQFxBBBDE7QQkoiGWRlNwKoowbBShAAQpQgAIUoAAFKECBQAV6d2Ch5SqavvuujddVtASqFUA93cQAl0NyLoOUCYM0y6GNxi9YsPTBeMTpM5G/1gxLtVK/Bpb1RcjLSEVc0nwUH2lQTnh9v3KsDJn62Sj8rApSSodqC4wbzuFKjKt6w5FizE+KQ2pGHorWW1CjnBJ1V+dh9tgkTHrB5CpXzvOdAhSgAAUoQAEKUCBkBcTMBBFYUGYoiGCCWBZJCTaEbMfZMQpQgAIUoAAFKEABClAg5AR6d2Dh2224+s7daPD7WoPGYD6WZNVySLt8L4ekXgapzfkK9RYsnZWK/M9EKEALw9OrUG49ISXKOFdVgfLX0xEvxlBdjPkTZ6DIT36HpVmZKEMaCkyHca62Fies5Vi1YjYM0TLCyTJkT5yPYilwEY/0JaWoqKmV7iXqLn9E3MkG88oZyHzVAv9hjGDCsi0KUIACFKAABShAgc4IiECC58wEkXOhoaGBSyF1BpbXUoACFKAABShAAQpQoA8KRPTBMXfxkOXlkPZZYS0xw/q8zpHQ2e2u7VkGqQHm36YjXyxhBC0yyipQ+pgURnC0GKtH+qhypE0pxOwH8mCymZH7TCFSLQu93FdcosOi9eVYdJ8cSUhOR45zxkQNihdkokyayqBHgcWMRSlKxAGITU7Hwo/SkPZuNgz/XgbL4nTkp9Rg+RRXHbdh8oACFKAABShAAQpQIGQExNJHnrkUoqKipP55BhxCptPsyHUXuPHGG6/7PQO5Yaj2K5C+sw4FKEABClCAAhTojQK9e8ZCNz2xNpdDas8ySBdMKFsmfdMP7YulKFYHFVTji05eiFVL0hwllctRvsvHXILkTMxWggqq66XdyjLkb3YUpr1T6hZUcFWNRtLTBSh4QJTYUPiu0bGkkqsC9yhAAQpQgAIUoAAFQlDg2rVrbsmbRRfFMkgi9wIDCyH4wNglp4BnQMx5gjsUoAAFKEABClCAAt0mwMBCV9CrlkMy7XFmKHDeqT3LINVZzCiWrtQiN90Af3MD4h/JQY5U14biz30swzRFhyRnT9x3rJZyOUiQjswpqlkR7tUAxMPwsMFRun4TKhxxj1a1WEABClCAAhSgAAUoEDoCYtkjz018YSteIu8CNwpQgAIUoAAFKEABClCAAoEKMLAQqFS76ulgyHBkTjCvN3skOW7PMkhATXWFfOdUxA9toxOxSdBNcdSxHajxPpPgxv4+ghM21FiVYEQSYmPrUFfn+zVAq2SGKEPVyTb6xdMUoAAFKEABClCAAt0uIJY9EjMUxKb+BbgIKly5cqXb+8cOUIACFKAABShAAQpQgAI9R4A5FrroWemmZEIHK6zby2CuzkZ2gnyj9iyDBKChXvmyf3zbgQX0R/9Y/wNKH6b1WaHBuXrSUswYsNRnPc8T587XAWjjxp4X8ZgCFKAABShAAQpQ4LoKiOWOlMBCc3MzxNJIIu+CKIuI4MeC6/oweDMKUIACFKAABShAAQr0cAF+guiqBygvh2TdZ0bZrhpkJziWFnIug5Rl8JFcuas6JLcb0T/oNzhX74xIBL1tNkgBClCAAhSgAAUoEBwBZdkj0ZoIMih5FUSQQQk4BOdO7W2lGttKKlrPto1JxMz0CRgoNXcJu40bcbTes20tUrOmQvkNj+dZHlOAAhSgAAUoQAEKUIACXSPAwELXuAKQl0PaZ4W0HNLT2YiHahmkicpSQv47EB0j6olZC3tRcxrQ+10O6QquiMkDnd0eLsUJYwb8ZVno7C14PQUoQAEKUIACFKDA9RVoamqCCCJ4buogg+e563ms1Wdh6kj/d4wZNRPp9zpCDf5r8iwFKEABClCAAhSgAAUo0JUCzLHQhbqO5ZAAbDfCXA2gncsgia7FJ6TKPayQAgt+u3vBCst2Rw2tLgm+Fz3y1ooWSTr5ig17UcNJCN6QWEYBClCAAhSgAAV6rIA6r4IIMIhAgygTsxXU53rsANlxClCAAhSgAAUoQAEKUOC6CfTuGQvaWbghb9Z1w2x1I+dySCaY9tgw3lYqzT3QtWMZpFi9AdkoQjFsWFViQk5Kms9sBjUbilEsdyLz7qRW3WmrICklG1oshQ2FKNucD8PDvvMmWFemIm1Nf4yO0yLjzVJkj2qrdZ6nAAUoQAEKUIACFOhOAZG8WWzh4eHSuwguiICCePc2k6E7+8p7U4ACFKAABShAAQpQgAKhLcAZC136fOTlkAAYNxSguEQsaaRDZoDLIEldG5yGjJcdMwlsq7OR88carz1u2FeI3MUmx7mU5cicEu21nr/C6ImzkZfiqFG8IAfFR7xPW2ioXIqcFyywHTTDHGGAgUEFf6w8RwEKUIACFKAABUJCQJmdIJY+Ekmb+/XrJ+VZuHr1KlpaWrq9jzZLCUpK5JdxNy556VH9kY2uOiXbICYFc6MABShAAQpQgAIUoAAFrr9A756xcP09W91R95PZ0MIK2/oiFImzU3KQntyqmp+CaBh+ZUTBrlTkV9pQlpUK21/ykbMgDYZhA4C6GpjXFyDvJSMcIQc9ClbmdDAxtA45KwtQrs+HxVaG+UkWmJYUIOcRA8Zro9Fgq0LFZ8vd77Ukk7kY/Dw9nqIABShAAQpQgAKhJCACCI2Njc7kzSK4EB0d3c2BhQRMzVKnX3Ykat5YclmVmHkgJqRnYYIKs3p7CSpKjLg4Ix0TBqlOcJcCFKAABShAAQpQgAIU6HIBzljoauIUA3JVyQ4Mjxja/0V8jB6LPtuJRRNFQzaY383FbN1wDBgwAAPix2O2ElRISMcqqxmLUto/W0FhiE5ZBLN1FdKlz3Y1MC7OxKSkOOlecUmprntp07B8jwmL7u74vZR78p0CFKAABShAAQpQoOsFxIwFEVhQZieIJZHE7IXQy68wEBPuT0QMbDhxzLdLwpRUaFGPM8e9zW3wfR3PUIACFKAABShAAQpQgAKdF2BgofOGbbSgh2GBElkwIGNifBv1fZwebECBuQonTO9h4VMG6J0/6oqH/pEcLDfuRW1VOXKSO/9Ff3RyDsqrzqGibLk0WyFJ6T7ioZ+SjYKyCpyr2YSFd/vOweBjFCymAAUoQAEKUIACFOgmASWAIIIJIqig5FpQkjh3U7f83ra+tu2gQf3ltuv4vQlPUoACFKAABShAAQpQgALtFuBSSO0mc79A+1g57I+5l3ke6V85B/srnqXux/pX7G3WAWIR/0A2lj+Q7X5xm0d6LLLbsajNeqoKEVroH1sovVSl3KUABShAAQpQgAIU6KECIrCgzFIQQ1BmMISFhUG8Qmq7dBn1iEHiiIG+u3XxIuoBaIc5f3Hjuy7PUIACFKAABShAAQpQgAJBFWBgIaicbIwCFKAABShAAQpQgAKhKRARESEFFpRAgngXsxeuXLmChoaG0On0xd0wWmxAXKqf3AnV2LbpKOpjEvHPI0On6+wJBShAAQpQgAIUoAAF+ooAAwt95UlznBSgAAUoQAEKUIACfVpALHkkAgiRkZHSDAURaBDBhRtuuMG5LFK3AIlAgggSOG8eg8QZWR5BhWpsK6mAzVkH0OqzkMWggkqEuxSgAAUoQAEKUIACFLh+AgwsXD9r3okCFKAABShAAQpQgALdJiBmJ4iXMlNBLIUkXiLA0L9//27rFwZNQHrWhDbun4CpWVzyqA0knqYABShAAQpQgAIUoMB1EwixxVSv27h5IwpQgAIUoAAFKEABCvQpAWUpJBFcUPIrKO+ijBsFKEABClCAAhSgAAUoQIFABRhYCFSK9ShAAQpQgAIUoAAFKNDDBRobGyFezc3N0uwFEWwQwQVxzI0CFKAABShAAQpQgAIUoECgAgwsBCrFehSgAAUoQAEKUIACFOjBAi0tLYiKipICCSKYIF5K0maRf4EbBShAAQpQgAIUoAAFKECBQAUYWAhUivUoQAEKUIACFKAABSjQgwWuXbsmBRNEjgXxErMVxEvJu9CDh8auU4ACFKAABShAAQpQgALXWYCBhesMzttRgAIUoAAFKEABClCgOwREMEFsyruYwSACC+I4PDy8O7rEe1KAAhSgAAUoQAEKUIACPVSAgYUe+uDYbQpQgAIUoAAFKEABCrRHQMxMUF7iOhFYEBvzK7RHkXUpQAEKUIACFKAABShAASEQQQYKUIACFKAABShAAQpQoPcLKAmbxUjFLAXxEmVXr16VZi70fgGOsHcIHEZRxn6scA5mMD4umwyd8/j675zf+glSPmhw3njaExPx9rRbnMfSzoEdGLHsgqts8jgcnzfaddwb9pQxjrwDlb/RY0hvGBPHQAEKUIACFKCATwEGFnzS8AQFKEABClCAAhSgAAV6j4CYrfC///u/zgTOysj69eun7HbTezW2lVTA5nn3mETMTJ+AgR7l1dtLUHFOKYxB4ox0TBikHPfgd+VLWV9D6KYvoqUvzStuCaEvikcjp2w0cgA4vtD3BdZG+XkLFjx3Cls9qr3w8lzkjPUobONwyLSHcHyaqOQIehzyVn/sZBwvEye+wae/3oXnvdUJuExu445OBCeCOP6Aux1QxSCMLaD7sBIFKEABClCAAp0VYGChs4K8ngIUoAAFKEABClCAAj1EQAQXmpqanMsfKTMXRFl3b1p9FqaO9NcLOQARl4qsrAR/FXvmOecXz6L7ji+o0YEvuXvm4Luv1+pAghSoWPYJbv/9Q3iwj/zcXj1+SMGtdTjkbcZFII/I7W84kAtYhwIUoAAFKECBnizAHAs9+emx7xSgAAUoQAEKUIACFAhQwG63O5dAUi5RkjaLgENob5ew21gBmwgqTOmFQYXQxu8zvRsy7U68gAZs2ftNnxmz20DHTsbHk4GtFSdw3u0EDyhAAQpQgAIUoEBrAc5YaG3CEgpQgAIUoAAFKEABCvQ6ATE7QQQSIiMjpSTO6lkK4lxIbxeP4Ux9DBLvZ1BBek6eyyZ5rmkvnQc+LrsVFap8BF7X/g/Wg/fsk3rpJulcPVZ6zgSQl+OB+hfynkv0eI4tWP31086YW5X8CN6X5bGuWYc5p7ooj4C/8XueO7YfI3bsd47EbfaBs7R9O0NviwZ2fI/TgDNHgmcOCaifrWje37OXby+ZYRyO33NWlWsi2vU30a6xyc/lmGps3fB3oro7dylAAQpQgAJ9UoCBhT752DloClCAAhSgAAUoQIG+JiCCBxEREVJQoaWlBY2NjdIrKirKuTRSd5rYLCUoscg98MyvcOky6hGDQZe2oWSTKxtDzKiZSL/XMwtDd46i6++t5BVY+fu58nI9ji9ZUzK+90hifAFzMi5AfNl8XOQMkL783YWiW9ufQ6CtUTn6FIOPy+bKSZQdfRqxBo4ExWNvxQvYj+c/O4wHVQmLz+/9BlsxGB8riY6dAYi5eFteikh8IZ3ya1yXHA/WNSIp9GB83M4cC235BBhFWSEAACAASURBVHy+rfEP0ePtMr0rT0Nnciz46NTpMw3AyFswVD4vBQR2iATZD8nP1rFM14hTl13PxLkEkvyFv4+2sWM/RoiATNlkDFFyTayyQC8SPbdjbNY1IkeFaIcJon1Rs5wCFKAABShwPQRC/KdJ14OA96AABShAAQpQgAIUoEDvFxCBBRFQEDMVxNJH0dHR0gyG5uZmKcDQfQIJmJqVhSznayYScRQbS7ahWu7Updp6ADZUnBzuqjcjETiyEca/Xeq+rl/3Ox/GRx80YNoTelUOgFvwYO4dmIYLqDjg3iG3X7CPHYuVI4EVew67V+r0kaNPL7w8Wf7iWTR4Cx6cMxjYcRZWqf3RePQJ8Ut45VgUfgNLRQMw+VZXMOLjCx5jA3Sz7sC0Y9/A0kVr86xYtg4jMhyvOTvEL+jV4+g0Tjsa+AafdsP41R0UAaI5O4AX5shf2J+34F1x7PZsRyPn5cFAR56J26yCW6BPjQaOOWZHqPvhf/8bfH0KwB03OWdU+K/PsxSgAAUoQAEKdJUAZyx0lWyvateKQt145O0Tg0rDe8c2IbtbZ6HbUPZoHDLXA+ll51D+mDYw7cql0OjzARSgwr4I4rc+3ChAAQpQgAIUoEBfERA5FsRLBBfEJvZFUEEEGUIrx8JATLg/EWc2HcWJY0CCM6GzFqnq/AqDJmBc3FFUnD6GS/dOQLfOW/BcCkYAey4XE4w/tPOXcQjRmD5eWapHbnTIcEwfeQpbzn4DjFXOReN2t38m34Lb7wBw6rK0fn7QchNLfQK2LluHFa3GGI2vzwO6IcCQ8bdg2genpOCHTswIOH8CW45FY2XuaPmqi/j6GLD12C6M+KBVQxgjJqoErdOu9t2CL+I5PrcOW9RLM7mqdvFe94xfBFZcz009M0HE8r6XZpQ87TmDQ56B8nUXPRP/0I6g1fPL5GWg3IIV/q/kWQpQgAIUoAAFgivAwEJwPXtna5UmLJeCCmJ4Jhj/UoPshPjeOVaOigIUoAAFKEABCvRSARFQEAEEJZ+CEmQQORdCdauvFbMRfIcMBt4UA5y7DP+1rsPonEvBXId7dfYWXfRLb7cv6L31cYgeT08+hTl7DiNn7GhIyyCNvAW/8QgWdGkeCG/9UpdJyYvXYY5IXjztlq6IY6jv5nX/eo+/zefmtZfdXKj89ybnZUjJEFMYRFCku2abdLMHb08BClCAAhToJgEuhdRN8D3ntg0wf7oK4sco2c/kQPzoyfSmUZ7S3HNGwZ5SgAIUoAAFKEABCsAZWBDBBRFkEMEFsa8EG0LGSM6pcNsIR1Bh4IjbEIN6XLzo3sNLl+uBmJv8hB7c6/f4oyE3YQwasGXvN+5DkX79D7iSDrufdhw5lpCZdtsgbyc7Xib1CTgkZku0senuUZZHciyD5FxyR7puEG4fCWw94/GQ22izS053UfDFf19DaPxKR7U3eF1iCwfOYgU8Z8QoF13Hdykvw1wc/733pcCuY094KwpQgAIUoECfFGBgoU8+9nYMuqECpmUirGCA/t/TkS0iC/uWo3xXQzsaYVUKUIACFKAABShAge4WUIIHyrJHIqgg9pWZDN3dP+f9L+6G0WID4sZhgvId+KCRuC2mHkf/tFuanSDVPbYNFecA7dhuXgbJ2fHrsTMaqZOBrR9Y8Kkz58A3+HTVKWwdeQce9VyyRtUlKeHtscF4WkmUrDrXuV1H/oStH+xCkUeOh1btSkvoXEDFVrEM0mCkuvVXycuwHwu2th2kaNV2MAoO7HDkGLhHWZ7JffkocQtHMuNg3MyzjfaMX+6XW84Kz/aCcCwtsQWsWLZD9cOywyhadgGYfKcqz0cQ7uVsogNjk5ZsCoFAh3MM3KEABShAAQr0DQEuhdTDnvPVj+9E40n/ndaMr8ANhsH+KwV4tm5zGQpF3eQ0jE9ORfxTWixdZsPS9WbkTUxDbIDtsBoFKEABClCAAhSgQPcKhIeHSzMURC+UJZHEMkjKzIVu650IJGw6CpGe2bHFIHFGliuoIBUOxIT0mYBxIzaWHPVTTz7Vi9908+ai8rZPkPLcOjyvjNNrPocGPK+uI9aiL5OT8irXBfp+7BQcy82oLlDdc8i0h1CJT5Ditl6/tzwTIgjxFVI+OAWx5I9O1Zy0K5a4eXkHRizzyLOgXkdfXv5mq/PaBszJWCcddWQZIfccAyJ581y3L8x188bhhYz9zvGLe1Q+YUFKhbMDrYMNHyj9dy3PIxIjp3yg+nHWMTlHAMQ9H3LcM5Dxy7fVzZuIlad2OccuioO/rNEtePA3c3H7mnVu9xEGx1UBqoDG5uJqc8//2A6jKGO/Ki+EaE5l2GbrrEABClCAAhSgQLAENHbxUyVuPUbg6sergTnPoJ+vHu9fje8vPBKkwEIdjPMGYPZaQPf6Xux9UYeGXfmINyyFDdkoP/8e0n3ELyyvapC6WE6u/AhgWV+M4jeLUVxZAyAe+kfSkPlMPnImumWUcx+VzYyiJYUo2mBClU2LpFmzsXBxAbLvbghK8uakg0YUrViO4rUWSL1KSUdaRg7ynzFA6yvk1mSD+Y/LUfZHEzbtqpKWiIr3e50FSzWpyEc6Sr8uh35PHnIXl8J0ENJ4cn5VgJwUVXimrgrGd4tQajTBKFlpkTRxBjJ/vhA5Dyd1LJDTqk0gPsUAw08ykPFCNgw+H0EdajaXonBtKUzrHUbauwyY8YDv65TnXmCxY9HdNphXF6DwnXKYDtoAbRLSHs5B/pIc6OW/G9uuIhSsLEL5Z8JS/F2kI3dxPjLuUpm4/1XAtqsYy/9YBtNmM6rEZJoEPdKnZCJncY6fsXg0wkMKUIACFKBALxHYsWMHBgwY4Hc0IxNHYfNmE8I1GkRFReGHP/whbrjhBkRHR0vHIrDQ1NSE//eNIrxf9AZOnjyJ4cOH+22zL548e/Zsz3GRkknXu76w7osPjGOmAAUoQAEKUIACFGi3QCCfL2pra7Fr73FwKaR28/ahC6rLUbxWjFeHzCmO3xNF6w2O5ZBQjOLPxNfxbWx1ZiydqkNqRr4cVBD1a2BZX4Rcgw6T3rBC9bsdZ2M16+djeNwk5K4WQQVRbEPVZ0WYf894zF8fwH2dLXnbOQfzsklIGjsb+XJQQdSqqTSi6NlJ0E0thNVbp06WYX5SHCbNK0SxHFRQXxeXNB9lfmaTnFufi9T0QseX7NJ4KtAQ7foCve7zpZiUNBqzXyqSgwqidRuqdhUjP300kgxLYanzNh7fZQ37ijCjVZtirGYUvzEfk+KGe/ess6LwwSQMT8tFkRxUkHpzUHXd2iqvz07qTa1Feu6Tni2SxyuGUgXT6lykjs2E8XQDLMsmQWfIRZEUVBBXib+LQmSOTcPSSi8PoKkGZfOGI84wH4Vr5aCCuKzaAuPqXMdYPuzs34bUe/4PBShAAQpQoNcKiCCC2MRvi5qbm6VlkMQ7f2vUax85B0YBClCAAhSgAAUoQIEuEWBgoUtYe0ejNX8xwiSGkpwJQ7I8pmgDZixw/MQ9kCTOxgWZyK8ajYVle1F7xS59aL1yfi/ee1y0YYP5pXyUVrt7NXyxFJmPFkuzCPQ/L8Xe847r7P84gZ2/TcKmZxdi1TH3a9p3VIT8X5kRL7V9ReqT/Uot9r6TISWntu3KQ77nF9QXTMjVZ6K4GtBOXITyqlpcscvjqdmJgllaoLoYmfo8mF3z+FXdMiLvhSLE/7wcJySHK6itKke24rqvEGk/yYfZBsQ/tQoVNXK/7FdQay1FTgpg25WP1AyHi6phP7tWFD2TC5MNcDgqbdohPYOn4qUv84ufLYTJLWBhReED45H3mZhlkIYC02HUNrqeXenzBmhRg+J5BmR7Osm9WTUvHflV41FgPoEr8rW15gLoxXlbGQoeMSD9VzVIfX0nzil/F19vwqIUUcGC/CWl0vN3Da4OpmdTkbm2BtAasMh42Pn35Pi7SHP0KSMVedu9BCVcDXGPAhSgAAUo0GcFRFBBvEROhcbGRmdgQcxWUAIOfRaHA6cABShAAQpQgAIUoAAF2iXAwEK7uPpSZSuMb0phBeiyDG7rn+pn5TmO9y2HqbItEx0Wrd+E5Y/pEBvtqBs9WIfst4uRIx2aYNojTUmQG6qD6e18WABoHy9F6ZsZ0CnLLcXEw/ByOYwLAMu+tu7r/7z2xZ0wS20rnYqF7ulilL4oB002W6RljhytNMC8IhtFopspBTB+WoD0UbGQr0T0MAMWfVqB9x4QX5oXIm+11fvNtYtQ8Ho64qULoxE7Kl5e2qgGxb/Kc45555oc6Ic5W0dscgZWbd+JhaJrm+dj6Qa3KID3e4nS6r3y81mIgteFo9Im4HgG72FRQhIMY6tQowru1KzNR570XNOwatcmLHogCbHy0lDiuowVm2BcIkIENpS9UAjThdZdsNmAhSXlWDQxHtHytbETF6FwicPXWmlB/IpylL9ogFbuVvTQNBSsLJCCO9hshlX1Z9GwazmyV4sCPQo2bEKBWBZKGY70d7EJFe+kSX0qfKlIlVyudd9YQgEKUIACFOirAurAgjJbQcm7wMBCL/urEGv1l8nr9veyoXE4FKAABShAAQpQgAKhIcDAQmg8h9DrxT4zSqUv7w3ImeWRVi3ZgEzpl/Y2rPrU7Hs5HDGq5EzMvk/5Blg1zJjxSH3EcWysVi1fc9qEUnn5pbwXMiB+U+++RUP/fL4clHA/E/iRDnkZBmdgwHVdNMb/ZLbjcH2N6xfzdWYYlzm+5V64ZCH0Ma4rXHvxyHx+oXRoXWGSggSuc/Le4wakeqHAPiOKNos6BhQs9jZmADEG5CwxSA0Vf2hSBT1a3cVVUF+HWumoCjWnXcXOvWgDCo4dxs5tO5Fzt1JaA/OHckDp9QLkjFLK1e/R0D+Th2xRZCuCydv6TMl5yJzSerDxCalyQ+nIfdjj70qcGRoPR40GNDQp96yDeb3I6wHgxQIsTGndrjgV//hCSE8goICX0jbfKUABClCAAn1HQMxUEAEFEUQQAQXxfu3aNfTr1w9hYfxY0Hf+EjhSClCAAhSgAAUoQAEKdF6AnyA6b9gLW2iA+aPljl99T8mAIcFziDoYshxfCtuWlXn9xbrziik6JDkP1DtaxI9VHzv2G6r2wijtpiFVWSbIs1rMeBge9yxsz7EBOq9fmAOxQ+JaN3TEiiKpNB3jk7x/qS1ORyeNR7rYsZlxWDUDQGkwfWy8l2CGSD1QIf/C3oDRrayVq4H4sY7AAtbvxeFAVvsZpUOaNEHAhPkPzEDuW0ZYT7Zxoc0K83bHPdP0Xr74V7oz2ID0ZxwHRXuqlFLXuz7JS1AI0MaPl+uMR/wwV/XWe0ZVMKQK1tWOGum60V4NpbPRozFeClbZYD6gCla1bpwlFKAABShAgT4roA4giOCCSOYslkISQQduFKAABShAAQpQgAIUoAAFAhVgYCFQqb5Ur6EC5rWOX+inPWbw+gWxblYO5N/P+0/ifGN/318EezGtuyB/IfzwaMeSOF7qAFrEjfR6IsDCAejvOz7Qqg1bzV65zIjM2x1rEytLCbi9354pB0XMsHlZHggR/Vu1LQpqqh2hFCAfqfLax27tKmX6fPn6Gu/te7YebUD+BjmvQbUJRc/Oxvj4/tDEjcaMBYUo21WFOuesAPni+lp5NkQ6Rvv94j8WA5QYzJGa1jMo4gbIyzx5dqoDx6dr4HwCGXHSryu9+mjikLne0b5ZrMXEjQIUoAAFKEABNwGRoFn8f6jYxL4IJohjJZGzW2UeUIACFKAABShAAQpQgAIU8CMgr37upwZPhZjASjQuX4lGP73SOH627aeG/1N1241YKn8va5o3HJp5/uubPjSj5qlsrwEI/1f6ORsBeP8a3s81PNVKIDplESrOGVD27ioUvF2GKvFcbVUwrc6TXiIR8sIVq1DwWJIjAHTBBnOrVlhAAQpQgAIUoEBvEVACCSKoIF5K4mYRXOBGAQpQgAIUoAAFKEABClAgUAEGFgKVCpF6/eZ8hX5d2pc6mDc4Fv4J+Dbbi2Dcl42FvpYuCrghVcW6K7iiOgyN3QJU2BdBpC3uku2RUpz7KMPPTI0O3lWrR8Yr4lWMuiNWmC3lML1jRHFljbRsU2GGAQ0xVVg1KxYYrJVmooRqcKHAYseilA468DIKUIACFKBAHxcQQQURTBBBBGVJJJFjISIiQnp1H081tpVUtJ4BGZOImekTMBDApb8ZsfFIvfcuqup5r9BTSg+jKGM/Voy8A5W/0WOI3O3zWz9BygcNmPbERLw97ZaeMhj2kwIUoAAFKEABClCglwswsNDLH3C7h+dMngykvb0XpY+1Tp/sbPNkKTJ1uTDBiuUfmZGT7C0hsrN2QDuxg+X7ba9CTQMQ73XJogZc+UdAzQWlkvZ2JUvEXmndf/3QoDTrbEQ7TGRmMAJ/cSSMltIiOM8GcycasaP0SBevp5bjPZsJ+Q/PwNJKG4r+aEL+rAxoB8dJOTHMMOLwSZFM2df961B7Tj43Nj74wRD1bYfGO/N07K2xASldJ6S+LfcpQAEKUIACvU1AWf5IvIsgg8ixIAIMyuyF7h6vVp+FqT6Wuxx4bzqy7vXs4SXsNm7E0RsHScEHz7M99vjYN7CcBx6UIgvfwFLRRo6sHjtQdpwCFKAABShAAQpQoCcLMMdCT356XdD3mu2lcp6AbGQ/okNsbKzvV3Imsp9ydKLNJM4B9tWZABmlMFt8fIgSOSD+GGCDwah2VypypHaMMO+pC0aLbm3Ej02FlCbZVo6KfW6nOnVQsyEXs6emYvgCE7z2WpuG3GeldNPAekdQA7FJ0E1x3LbYZIaPJwBcMMMoJ1TOGOUn+NSpESgXJyFVThRt3F7hfSxKVb5TgAIUoAAFKOBToLm5WTqnzFYQAQWxiRkLyr7Pi0PxxLEvcLQ+BonjE0Kxd+3v0/nLOITBWPkEsGXvN47rz5/AljvG4ePJ7W+OV1CAAhSgAAUoQAEKUKArBRhY6ErdHtd2Dcwfmhy9fioNhsFtDSAWaY8vkn+tXozS7UFImDs0DdnPiF+k27B0tRFyKme3jtSsL3LmgHA70VUHsalIk/oEFC8ogMnrt/RAzYeZiIsbjUlTc2E83Y7OJBuQKS3vY0Xer4pQ5ZlQWWqqAZZXU6EZmYpJDxbC4rWO+z3jYmNRsd2CmtXFMInZB622BtRUy8KPJ8k5MuJheCxNqmlbVojiI60uAtAAy+rlKBantDnInNjVMwhikfpAjuPvbG0OCjb7eAAny5AZF4fRhknIXR+Ev0VvQ2cZBShAAQpQoIcLiJkK4qVsyuwFdZlyLrTfL2H3ARsQNw4TBoV2T9vbu9vH3wJUnMB5ANbPTmHMPaOlJraeuehq6sAOjMhY53r92iLVd1UQyyqtQ9EBQCyl5Kq7A1ZXJQDf4NNfq9rJ+ASfihtzowAFKEABClCAAhSgQBsCDCy0AdSnTu8zomi7Y8Q5DxsQG8DgoyfOQK78vbLxj5u8BgICaEZVJRZpLxUiQ7S5PhOpDy6F+bT8u/kGGyxvzcekLKOq/vXYVfXJVogZD+SiuNLm+jV/fQ0sa3ORmVEGm60Kh5PTkeZzCSFv/dUhZ2WBI3fD5lwY0pfCdMT15XnDhSqYls1G+mILUG1B9Kx06ANYxCx64mzkSQELIzIfy0XZvjpXnyXLXGQuFh8ttVj4eJpzOaP4pwqwXLrOhNyJM7B0cxXq5EBGwwUryl6Y4egLtMhYsRBpbQagvI25fWWxsxai8HFHwKkwLQ25ay2wKdMpmhpQU1mM3McyUWazoapKh/QHujrY0b7+szYFKEABClAgFATE0kfKzAQxa0FZCkn0Tcxa6O7NZilBSYn8Mu7GJX8dkmYrANphvWS2gnqsQ4ZjOsRySIdRsWMwUseqT8qBgmX1WPn7uTheJl4TsRKnkJLhGTQAVixbh5SKW1Cp1Bt5AXPWHJYbFMGHXdiSOlFuZy6OvxyD559jcMFdnEcUoAAFKEABClCAAt4EGFjwptJHy6zbSx2/YNIuQvqUQMIKAkqPtBekhXyAzSKJcxDwhmWgeEMBDFrA9lk+Jt3eX/plnaZ/HFKfLUZNglimKQj3aU8Tok+bVyFdfHatLMJ8fRz6y7/409w4HKnzimABEP9UKSp+2/5cE9Epi1D66ULnmGckDXCMWaNB/yGjMeNXJtigheG3FSh9OtClh3RY+GGpI0hTWYRM3QBXnxVLqU0jCqaok1nosHBzBQrETASRhyFtNAZEOn7d2H/IeGSuNMOGeGSvMaPYXw6O9vi2WTceGW+bsOoRMXYLiualIq6/o0+ayP4Yrp+PokoACdkotSyHIabNBlmBAhSgAAUo0CcFGhsb0dTk+MWACCyIgIKYtdC9WwKmZmUhy/maiUQcxcaSbaj20bHqkzYgJhF3+8jJ4OOy0C62fY+tUg9vgT4V2PLZWRyafKtjyUxnzw/jIymRs17OwSBO3IIHc+/ANFxAxQFnRcfO5HE47kwEfQtuvwPAqcvS7IbzW7+SEkX/Rp0QeuxYrBzZ4FqKyaM5HlKAAhSgAAUoQAEKUEARYGBBkejr7w1mlK9wTIzWPmVAqvp75jZsdA/nwLF4jiOJs/JD8jYu83tafNG+s+owypdkQ6/8EC1Bj+wl5Ti85z1ke/xyy29jQToZnZyD8gPnsHPNQmRPTHL+wh8JeqQ/sxyllnM4sSYD8R38wV/8rOXYeWAvyl/PQXqKK3igvcuA7Bffw6ZjVdj5sj6gmSTOIQ/LQGnVCWx6Mwfprfq8ytlmq8cdq8cicxVOmFYh5xG9vEwSIPVlSSkqzp3Ae08lodV1zht3wU6MDjkfHcY583tY+JQBSc5JCfHQP5KD5WUVOFf1HjKGdcG92SQFKEABClCgFwhcuXJFmqWg5FS4du2aNKqrV6+ioSEY/4ILFtJATLg/ETGw4cQxL21e3I395wDt2Amhk7TZc2kisUyRc2aAlzG0UTRk2p0Ys+OCcxkkqboICEh5GKIxXSyXpN7ELIeRwKGzcm4G+dy029zXidLNm+sMNJw+0wAcEzMd1Esh7cLzxwC3ZZfU9+E+BShAAQpQgAIUoAAFZAGNvft/osSHQQEKUIACFKAABShAAQp0QGDHjh0YMGCA3ytHJo7C5s0maOx2xMTEIDo6Gv369ZNeP/jBD6RrxUeC3yx/G+8XvYGTJ09i+PDhftvs8pMXd8O46SgwaibS7x3odrvq7SWo+EciZqZf38DC2bNnu9ZFBCeWAR+XTfaYpeBY/kha0igX+PVz32D67x9SzVgQPCJXgmNZo7elGQhimaP9OPTERDiO3QilA+uadZhz6g5UOmc0tK7DEgpQgAIUoAAFKECBviUQyOeL2tpa7Np7HJyx0Lf+NjhaClCAAhSgAAUoQIE+KiDyKogAgvK7IiVhc3Nzc+iJXLqMesTgthHuQQXIsxViho4MndkKQdI7f7YeGHkD/KbqGnITxsDLUkXnT2DLMWDMrR4zGfz0beht0cCx73HaTx2eogAFKEABClCAAhSggC8BBhZ8ybCcAhSgAAUoQAEKUIACvUhABBDE8kfiXSRxVhI5i5wLSrAhJIYrZitYbEDcOExwX8kH1XuPoh5ajPOYxRAS/b4unRiN1MnA1g8s+PS8csNv8OmqU9g68g482o7lQsVySy/gAub82iLlXFBa4zsFKEABClCAAhSgAAUCEejgavCBNM06FKAABShAAQpQgAIUoECoCIjggQgiiMCCElwQsxbEskhiNkO3bfKyR/XODsQgcUZWq6CCc7bCqLuhpOByXtIXduTZBSJPQuVtnyDluXV4Xhm3SNI8b7RyFOD7aOSUAcjYj5SMU6prorGy1VJLqtPcpQAFKEABClCAAhSgAAAGFvhnQAEKUIACFKAABShAgT4gEB4eLuVX6N+/P0RuBRFQEJsIOCizF7qFYdAEpGdNaPvWgdZru6WQrDFk2kM4Ps171zzPeR63vkoEDQIJNDjq5bRugCUUoAAFKEABClCAAhTwK9CNP03y2y+epAAFKEABClCAAhSgAAWCKCBmJyjLHokZC2JflImgQkgthRTEMbMpClCAAhSgAAUoQAEKUKBrBBhY6BpXtkoBClCAAhSgAAUoQIGQEhDBA7HkkTI7QeyLAIO6LKQ6zM5QgAIUoAAFKEABClCAAiErwMBCyD4adowCFKAABShAAQpQgALBE/AMIkREREgzFURggTMWgufMlihAAQpQgAIUoAAFKNAXBBhY6AtPmWOkAAUoQAEKUIACFOjzAsqSR+JdeYmggvLq80AEoAAFKEABClCAAhSgAAUCFmDy5oCpWJECFKAABShAAQpQgAI9VyAqKkrKqSCSOIvZCiKgoORZ6LmjYs8pQAEKUIACFKAABShAge4Q4IyF7lDnPSlAAQpQgAIUoAAFKHCdBZTcCuK2yowFEWQQCZzFOzcKUIACFKAABShAAQpQgAKBCjCwEKgU61GAAhSgAAUoQAEKUKAHCyh5FMRMBbGJ2QpKmQgucKNAYAKHsOa1uXhp+7eBVZdqfYstq+fi7nWH2nENq1KAAhSgAAUoQAEKhLIAl0IK5afDvlGAAhSgAAUoQAEKUCBIAkoQQcmpoAQTxHFjY2OQ7tKRZqqxraQCNs9LYxIxM30CBjrLL2G3cSOO1jsLEDNqJtLvddVwneGeJGDbhpfeXwMz7kTBk0swXUsXClCAAhSgAAUoQAEKBEeAgYXgOLIVClCAAhSgAAUoQAEKhLRAc3OzcwkkEUwQORdErgWxidkL3b1p9VmYOtJXL+Sgwo2pyEpPcFS6uBvGTRthBIMLvtQuHvgc5mHzUFC7BuYD32K69mZfVVlOAQpQgAIUoAAFKECBdglwKaR2cbEyBShAAQpQgAIUoAAFeqaAyKMgggliE4EEMUvhypUrUrAh5Ed08RjO1McgcbwcVBAdHjQSt8UA9ZcvhXz3u6eD32JP9VcwDErGPQl3SNU9pgAAIABJREFUwly9Dxe7pyO8KwUoQAEKUIACFKBALxTgjIVe+FA5JApQgAIUoAAFKEABCngKiKWPRNJmEVDo16+flLBZybcgjkN/q4cUQxik9PQSLtcDMUO5FJIi4vZu2wfz5TthGHszBuE+GL78HHtsU13LIUnLJH0Ow5O5wIZnkX9ZvnrYK/hi7hi3pvavm4t5J92KYHA/DOjIMGgILm5fjGlffuWof9M8bH1mKpyPVJQ6l2+Sm2xVR+R4eBWYvg7/cl7VFqZhzS+fwjhnT0ReB9W4OrEclFufpfZbLy3Vqo7acd9a3L0FWDMdmLdlKyD19V588dqreLtVv4LXbycFdyhAAQpQgAIUoEAXCDCw0AWobJICFKAABShAAQpQgAKhJiCCCCK4IN5FvgURYBD7YiaDEmDozj7bLCUoscg98MyvMGgCxsUdRYWlBMZasfQRsNso8jJokcocC14fm7QM0k334T+lvArJMNzkbTmkr5D//rNYMH0dvkgGIH0B/irW7FuHeeIY8pfcmIetv1QCAI4v9o94vav/QvOXz8IsvnD/pQhcONqZtu42VyBDun8NCp5ch9flfBAiqDFtNVoFIN7eMhdvi6DDL5dgkNzPeevulduS+/hPb+KLKfLyT6Lt9xcD7c01sW8tpn0JqU++clQ4Ai8isLFEDmw47n/3anXgZCvmWUR/X8H/ee2/8V+ra2B48k0UiKDO/xzCdCmYE8R++38UPEsBClCAAhSgAAU6LcClkDpN2IsbaLDB8mEhch+dhNFxGumDqEYTh9GG2ch9owyW0w1dMnjLq/K9XlU+WXbJbdgoBShAAQpQgAIU6FMCIqigDixcu3ZNWhJJBBnETIbu2xIwNSsLWc7XTCTiKDaWbEO1qlMJU7KQpdei/shGlJRsxFGRbyFrKlSLI6lq9/VdeRmkhGR5NsDNuHUAvC6HJIIKjiACgOR7sQDAkfPfOgD3bUL+5TtR8LASVOikq/pX/BiDu4cBqD0jL9H0LbZYtsLwT7muWRUAxv3zPBgui9kWHvcWbTlnOzjGp7R1cft/S0GH/1SCCuLS5BkouOkrKdeER0t+Dy+erwEQj1t9Jb62bcN/nQQWTFfPlhiDedOnAR79XqBXHL+CecC/uo1TdCKY/fY7KJ6kAAUoQAEKUIACQRDgjIUgIPbGJuq252N21lKYPf8BDxuqdhmlV9FLWhieL8Z7K9IQ3xsROCYKUIACFKAABSjQywREbgWRZ0EEEkSQISYmxjl7IXSGOhAT7k/EmU1HceIYkCAndK7eXoKKczFInJGFCYOqsa2kAiUl+5E4Ix0T3NbSCZ2RtL8nnsvgiBZaL7vTZrvSMkjAqCGuZM3jRk0Dtngsh9RGQ9KX6jfdh3t8fanexvXtO30eZy8DYlbD3V+2vnKU+Fyi6odYVkm9jZu7Dl/IBfsvfgVc/grTXlujruLYv3gegMuldQX3kkFT/hULvnwV814TSxh5eRa2MzBjGv5NmuGhulYEabZsxVnn56k73YITnv0XV54JYr9VPeEuBShAAQpQgAIU6BIBBha6hLVnN9rwxVKkTV0KMV9AOzEb+T/PQKpuPOJjxbhqUWOxwLQ2H/nra2BeOQOZAypgfkWP6J49bPaeAhSgAAUoQAEK9GoBsfSR2CIjI6UcC0oi5+bmZmdS51ADqK8ViZkHAse2yUEFJYggZjkMxG7jRhz9026MTJ8gavWC7WZMf2YdpndyJNIySADMYrmgLe6NmQ98i+nawL9Yd7+6648M//QmXlfPNOjoLVvlZuhoQ2Mw75frME9ZFur9uciHmKGgmunR0aa9XRe0fntrnGUUoAAFKEABClAgeAJcCil4lr2kpRqULs53BBUeL0XFtveQ87ABumGxiI0Vr3joHsjAoo8Oo2KJXhqzZXEOivb1kuFzGBSgAAUoQAEKUKCXCog8CiKYIAILIq+C2ESwQewrQYeQGfqly6hHDG4b4QgXXKqtBxCDQW4zEwZi0I0h0+MQ6ohjGSRIuQzW4Ytful5rhnlfDslv5y+fwRl1BdsZdCS/groJ7/tDcOtNgFmaUeC9RqCltw26E/Dsd6AX+6znCPp88cs3UXAT8PaRQ46a2ttgwFZ84fl5aN/fpMTMPpdQ8nKfrum3lxuxiAIUoAAFKEABCgRBgIGFICBezyaufnwn6pf7f31vvtDxLtmsMG92XJ797xmI9zmnJRr6V4qwXJrya8Xyz5gPoePovJICFKAABShAAQp0vYAIIEREREhLIIm7KYmbRblYFilktou7YbTYgLhxziWOBo64DTGwoWK7KuvCxd3Yfw6IGTqyl8xWCNYTcCwptGCUSJDsvjm+uPaSr8C9mvNo0Nj7pC/N/2u7nHPBtg0vvb8GZmeNYO7cjOn6acDJV/GScr8ONi8tX4StmLd6m5y/oYMNeb3M4etcykgrEmMDb29Zi/3O+oewZstWYFjrPArOKl52urbfXm7IIgpQgAIUoAAFKNAJAZ9fG3eiTV7apQLPIzLvGfTzdY/9q/F9J+IKaGqAkpK5f5t/HTqkzgJQr8fo2lq4lj21oezROGSuB7CkAvZXHDMb3LvsqpNedg7lj6kWTFVXbLLBvLoAhe+Uw3TQBu1dBsx4NBvZT2dA7+MS2MwoXlGGss2bYD7o6FXSxFQYHshEztPpSJKWdFLfhPsUoAAFKEABClCgbwiIAILIr6DkWBBBBWW/2wREIGHTUYg5CY5NyaOgHAMYNAHpMwDjJpFXocJ5ImbUTKTf2zsWQXIOqrM78i/lC7z8W1kKFHy5RkpgPH1sADfSTsXr08/g7i1K3oNpWPPLN2FY/WzXBBeSn5LyJLjuJ/ex3csDieWLXgFee9Ujz4KXHAltMOxfNxfzTrpXcl+uyTGT4VZRT8rD4Kgr6nzR7iWdgtdv9x7ziAIUoAAFKEABCgRfQGO32+3Bb5YtdpXA1Y9XA3PaCiw8ghsMgzvWhQYz8vpPQiEA3Ss7YV5iQPu/h3cFDToSWLC8qkHqYgA/L0DBwVXI3+XMeOYak9aAgg2bsCjFPbODbXMu0tOKpKWcXJVVez6uU9XgLgUoQAEKUIACFOgxAjt27MCAAQP89ndk4ihs3mxCuEaDH/zgB9KshRtuuAHiJZZFEssgiYDD0t+9g/eL3sDJkycxfPhwv232xZNnz56lS1988BwzBShAAQpQgAIU6EMCgXy+qK2txa69x8GlkPrQH0ZAQ41ORdrLjp83WV+dhPFpuSjaXIU6ZRpDQI0EqdJb+cjf1R/Za/ai9oodIgZ2pWYnCmZpIWYl5D+cDeNp1b0umFAwTwQVtEj77U6c+IfjGsd1m7Boonzd88WoUl3GXQpQgAIUoAAFKNAXBJSZCmIJJOUlxh0dHS29+oIBx0gBClCAAhSgAAUoQAEKBEeAgYXgOPaiVqJh+JURBeJLeAA1m4uQmzYaA/prMFw/G7mLi2GsvF6BBi0yynbivad0iJUnJkQPM2BRmREFKQBsZShYa3Eu3dRgNaNITG6YUoBVLxsQH+N6LNHD0lDwTgHSEvQw3FiDGi+TIFy1uUcBClCAAhSgAAV6p4D4wYUSYBDv4ri5uVkq650j5qgoQAEKUIACFKAABShAga4QYGChK1R7epsxeizaZsXO1zOQpFqbtabSiKJX52O2XgQa4jD6wTwUV3bhN/TJech7LL61ZoweOS9lS+XWt82wyjUaGuRpFQeqUONapNd1fUI2Nh2rwM5ty5GmGperAvcoQAEKUIACFKBA7xYQgQSRV0G8xKwFsQSSKBMvbhSgAAUoQAEKUIACFKAABQIVYGAhUKm+Vi9CC8OLpTh87grOWTeh9PUcpKeov+S3oeqzQszXxyH1WRNqusBHl2WAzke7sToD0sU5Wzkq9jkqxSbpkCaVFSJTn4mlH5pRdaE71nDy0WkWU4ACFKAABShAgW4UUIII4l0EFpRjEWDgRgEKUIACFKAABShAAQpQoD0C/BTRHq0+WTca2uQ0ZLy4CuWWE7BfqcUJazlWPZMGJcxgeWsGMpdZnUsSBYspXhvnu6lh8UiSzlqhTFRAQjZWlWVATEawHSxDfsYkjB7SH5qRqZj/UjGM+2xB76PvDvIMBShAAQpQgAIUCD2BpqYm51JIYgmka9euSZ0UQQZuFKAABShAAQpQgAIUoAAFAhVgYCFQqZCptxKNy+9Eva/XtpVd29PoWMQnpyPn7U04UbsXy0UiZQCWXxXBdKFrb+3Zen/PAgDxj5Wi6tgmt8AHqi0ofmM+Zuvi0H/kbBR+XuflShZRgAIUoAAFKECB3i0ggghRUVHSTAURVBBb//79pSWRuBRS7372HB0FKEABClCAAhSgAAWCLRAR7AbZXtcK9JvzFfp12S2sKHowD6VVZsQtPoHyx5U5CT5uGKvDwhUFMH02H2YUY++R95B+n4+6XVB8xUebsQlpyHk7DTlvNqDmoBmW7SaUlpTDdNAGVBuR95NzgLUCC5N9NMBiClCAAhSgAAUo0EsFlJkJIrDQ2NiIyMhIZ66FXjpkDqszArZteOn9NRg1fR3m8d/OnZHktRSgAAUoQAEKUKDXCTCw0OseaWcGFIe4WDMs1WIKQhXqHo9HbFvNJYyGAYAZQF2tmAnQ5hVyi1eAJv+N19jOAdLCRl7qnaxBlVRsgHawl/OiKCIa8clp0kss5VR3sBg5U+ajzGbB8s8sWJis93EhiylAAQpQgAIUoEDvE1ASNouRiQCD8hLH3TtjoRrbSipg8ySPScTM9AkY6Cy/hN3GjTharxRokZo1FQnKId89BA5hzWuv4m1n6Z0oeHIJpjsmHDtLuUMBClCAAhSgAAUoQIGOCDCw0BG1XnuNFrqJacAfTcDqIpS/kIbstj6pVR+WggqADvG3K0EFLeLHAlgPoNEHVkMN9m7wcU4utlqqYHte5zW0ULOrFEZRLzkN46U+NsD6Vi7yNlTgyqxSVDzfOu1z7F3ZyF0wH2WLAduBGtig99q2/17xLAUoQAEKUIACFOiZAhEREc4AgggqqBM4d29gweGp1Wdh6khfto7gQ/2omci61xFqqN5egoqSbQCDC63R5JkG+Kc38cWUm+Xz32LL6rXY/8xTGNf6CpZQgAIUoAAFKEABClCgXQLMsdAurt5fOf6RhVgo/YrJhPmP58J40s+Y66tQvCTfEVh4IAfpqunR0THyF/ufVcDqpYma9UUo9FLuVrR+OVZ93uBWJB3UW1D8pkna1WcZ4LhTNGJjzsG8qwqWknJYnL9kU19uQ80Bx7FWl8SggpqG+xSgAAUoQAEK9HqBsLAwafkjZaBKImflXSkPxfdLf9sPW0wi/lkOKog+JkxJhRY27P/bpVDscrf26eKBz2HGNPybM6ggunMzpjOo0K3PhTenAAUoQAEKUIACvUmAgYXe9DSDMZYYAwo2FEBaJKiyCLPjh2PGgiIYK6tgq6tDXV0dbEcsML6Vixm60Zj/RzFpXY/lv82GOiODbmKm4wv/fXnIebYMViWxc30NzG/MxqQsI7TatuZhW7H0kRnI31CFOnnZpLp9Zcidkoql+wCkFKDwadfMhPhZOcgRTe5bivSMpTCfVAUlLlTBuDgTC8UsCqSh4BHXdcFgYxsUoAAFKEABClAg1AVEXgURRBCzE5QZC2LWQnR0tJRrIZT7f+myt1+NDMRNMUD9ZQYWvD+7Gpxttb6UqqaY1fDaXKwR/652bmL5pLl4afu3zhLgTtyqFbMd5uLu1+TXukOq847di9sXu85L9RZji7/7t2qBBRSgAAUoQAEKUIACPUmASyH1pKd1nfoanbIIpr9EI/v/Z+/uo6Ou77z/v1Lugg5VQNtJsUdCkwaweIRSITndsxJKUEDPNlldTHazFWh/Pw2XPQrrZUt0TyW0Xgr2Vwt6nUuDbvojsHWJ+9tC0KCD17YnA9QCB7dAmmjiqcK0mhuOuWq4UX7n/Z35TmZyO8Ekk8k8v+eM37vP93Pz+PKHmfd8Pu971quqoVHVz65V9bO9NJ6Rr60v7VBJxGwFp+RNJdr22G7lPOqX/+dFmvfzoqgKsv/bXm35Rrlyip0FjaLuuSf5z+zQvIoilebP1ib3ortfWKK9Ozco2+NekHTNMm1+uUxHskvl/1WpFv+qNOKme5iu1b/c2v8ST25x9ggggAACCCCAwCgR+PTTTzV+/HjZ3mYv2LFtFmgYCUshBfwVqvCHsLvlV+jpJUzR1Ek9Xefa1CV/p/t+t1GlL65U6fRH9ObKGz4Dyh9U+uL9uu/WXXrT/p/fWWZpo7Yfi0jofOwFLf2dVPadXeRw+AzSPIoAAggggAACCCSSADMWEultDWNfr/7mOu0+2aoT1c9r3T25yv1axOyCjGzl3rNOz1efUOvJ3Sq5KbWHnqUq+5FanfFtVcmd2aHZDF7Nur1EW31nVPv0MqX3F9a6Olcb9p3Q7sdWKzuU68H7tWUqefp1nfn1Vi2b3r1ZC4rUnqnVjsdWK3dh5xwK79dytfqxHao9846ev7PzevcauIIAAggggAACCIxOAQsmWJ4Fm63gzl6wGQwXLlyIc2AhQ3nFxSoOf1YoS3XaU1GjhtCryJjuldrr9GZ9xLupr1HtmYhzDiMEbtCqh3dpu/3/ctPG0EyCF3Q8osRADi2osMr9IZE3T38/XXrmVOesheYPGiWl60sRfzIMpH7KIoAAAggggAACCCSeQH9f7SbeiOjx4AmMvVqzblutzbetvuw6vYtKtHVRSY/Pe+/erUt3d7+V/cglXXrEve5V/iPPOx/3Sr97b7YKH7FPvyUpgAACCCCAAAIIJJ2AzU6wWQsWVLBggwUaRtY2RQv+Okvv763TO/VShiV0zsxTsWpUETmrIS1HOWkB1Y6szn/G3tiSQ/er9GxkNV9V2Xceu6yZADeu3KU3rapQMudVjzdedl2RPZo29atSw/tq1g2aKsmdIbHq8VdlSyddbn8j2+AYAQQQQAABBBBAYGQLEFgY2e+H3iGAAAIIIIAAAgggMCgC7iwFm7Vgm+3HjRvnHI+EpZB6GmR7q+VPmBK8ZcEFCzKEtxYdqpI814Xuh68n8oElWN6lWwd7CN48PfHwNG1/fKNK3/i9bv1MSyNJ7zf/QdI3I3oZnCGxSqHAiC3BJDnLJ4VnOkSU5hABBBBAAAEEEEAg8QVYCinx3yEjQAABBBBAAAEEEECgXwGboWCzEyZMmOB8LNDQ1tamc+fO6fz58/0+P6wFWs6qXR5N+0ofQYP6N1XX7tWNN/dRZlg7nSyN/VmnWyVNnubMVogedTAw8ubDT6vsqujlkqLLcYYAAggggAACCCCQ6AIEFhL9DdJ/BBBAAAEEEEAAAQRiELBkzbb0kQUSPv74YyfPQmpqqjNzwZ3FEEM1Q1+k+ZCq/AEp7UYtsHV2ethaDlepwh+QNztPoVRcPZRK3kvHdz2qVwLR42/e/696xpYpuiWUyNk7TTMlnfrgz6GCv3dmNDwT/Vi3s+b9W1V6NqKebiXswgc6fVbKnXptj3e5iAACCCCAAAIIIJD4AiyFlPjvkBEggAACCCCAAAIIIBCTgM1YsOCCfcaMGeMEFWwZJDuP22aBhL11ag93wKOs5cVdggoNqqmoVfi7ck+WVhQvcBdJCj/JQVDgxpVrdfrZlZoflathqbY/fI9uDCPdoFW3LtX8V+7X/N/ZRcuN8LTKXr5fPrdMKPjwzCsr9cwr7sWu9UjHd63Uqib3fnCf+/Wn9cSSL0Rf5AwBBBBAAAEEEEBg1AikXBqpC6qOGmIGggACCCCAAAIIIIDA0Ai89tprmjx5cp+VZ2bN1L591bp4/rw+//nP68orr9QVV1whm61ggQZbEslyLWx86n/qxW1PqqmpSTNmzOizzmS8efr0aVyS8cUzZgQQQAABBBBAIIkEYvn7orW1VQeOvK04/jQpid4IQ0UAAQQQQAABBBBAIM4Cn376qRNEsG5YQMF+XxR5Lc7do3kEEEAAAQQQQAABBBBIIAGWQkqgl0VXEUAAAQQQQAABBBC4XAF3uSMLJlgiZ1sKyRI5W36FEZVj4XIHyHMIIIAAAggggAACCCAwbALMWBg2ahpCAAEEEEAAAQQQQCB+Am5eBZut4G527f/8n/+j8+fPu5fYI4AAAggggAACCCCAAAL9ChBY6JeIAggggAACCCCAAAIIJL6AzVCInLVguRVsOSTLr2D32BBAAAEEEEAAAQQQQACBWAVYCilWKcohgAACCCCAAAIIIJDAAm5QwYZgAQULLNiSSJbIOfJeAg+RriOAAAIIIIAAAggggMAwCRBYGCZomkEAAQQQQAABBBBAIJ4C7gwFd+aCBRdsCSQ7Z8ZCPN8MbSOAAAIIIIAAAgggkHgCBBYS753RYwQQQAABBBBAAAEEBixgwQN3pkJqaqozU8GWQTp37hwzFgasyQMIIIAAAggggAACCCS3AIGF5H7/jB4BBBBAAAEEEEAgiQRsySP7WAJnCzLYNn78+BEi0KJDVXtU1+52x6uc4jxluKeSGvZXqPaMe8GjrOX5WjDVPWePAAIIIIAAAggggAACwyVAYGG4pGkHAQQQQAABBBBAAIE4ClggwQIK9oncbCbDhQsXIi8N/3HzIVXtrZNmrlDxzVN6bN8JKnyUpRXFC2QlWg5Xac/eKongQo9eXEQAAQQQQAABBBBAYCgFPjeUlVM3AggggAACCCCAAAIIjAwBy7FgmwUY3NkKXYMM8elpg2pCQYX8XoIKqq9R7RmPsv46GFSwfk65+RZledpVd6QhPt2mVQQQQAABBBBAAAEEkliAwEISv3yGjgACCCCAAAIIIJA8Ap9++qkTULC9fdzZC3ZsuRbittW/o4C8urG3oILNTmhtlzzTlBm57FFzvd63ZZPOvCNCC3F7ezSMAAIIIIAAAgggkKQCLIWUpC+eYSOAAAIIIIAAAggkl4DlVrCZCjZz4eLFi87yRxZQcIMM8dJwgwY6XKWKU+EEC/JmFysvM9irlrPt0qSpzhJIzpX6GlX4pZxsr2r97WpuljIigw7xGgztIoAAAggggAACCCCQJAIEFpLkRTNMBBBAAAEEEEAAAQQsqGAzFSyvgm127gYc4qXjBA3a63RcK1RcHMqv4AQOKlQjCy60qPkjSZOCPXRyK7w3LZhrwZZIilfHaRcBBBBAAAEEEEAAgSQWYCmkJH75DB0BBBBAAAEEEEAg+QQi8yrYzAXbIq/FRcSTpVsil0LKnK8sjxRoskWOpmhqKKhgCZz3nL1RxfmduRYkj6YyWyEur41GEUAAAQQQQAABBJJXgMBC8r57Ro4AAggggAACCCCQZAI2O8GCCW7yZlsGyc5tP7K2UDDho2a1WGjhKo90plbHr1qh4iUZ4a46yyiFzzhAAAEEEEAAAQQQQACB4RIgsDBc0rSDAAIIIIAAAggggEAcBWzZI9vOnTun8+fPO0sgWY4FO7Zr8doypnul9rNOAKGzD+7yR8G8ClMme2QzE6Z9JbRUklOwRfXvtUtpM9QZauisgSMEEEAAAQQQQAABBBAYOgECC0NnS80IIIAAAggggAACCIwYgQkTJjh98Xg8uuKKK5zljyzYYNctwBC3LXOGvAqodr8texTcWg6/obp2j7LmhUIGztJI7ar734fCAYhuZdyH2SOAAAIIIIAAAggggMCQC5C8eciJaQABBBBAAAEEEEAAgZEhYEsg2XJIFlDo6OjQlVdeqbFjxzqzFuLXwwzlFUs1FbWqqHBTMXuVU5wXMRNhihbkr5Cq9mhPRV2oq13LxG8EtIwAAggggAACCCCAQLIJEFhItjfOeBFAAAEEEEAAAQSSUsCWOxo/fryTT8ENMIwZM0b2if9mwYX+FjSy4EKxFsS/s/QAAQQQQAABBBBAAIGkF2AppKT/JwAAAggggAACCCCAQLIIpKSkOEO1vc1UsACDHY+M4EKyvAXGiQACCCCAAAIIIIBA4gsQWEj8d8gIEEAAAQQQQAABBJJUwJYysuTLvW2R92y2ggUT7OMuh3ThwgVnBoNdY0MAAQQQQAABBBBAAAEEYhXgL4hYpSiHAAIIIIAAAggggMAIE7j++uv17rvvqrW1tceeWeDB3c6ePevkVLBgg5u02WYr2Pmnn37qFmOPAAIIIIAAAggggAACCPQrQGChXyIKIIAAAggggAACCCAwMgUmTpyomTNnxtQ5K2t5Fmz5I4/HIzt3ZzHYzAU2BBBAAAEEEEAAAQQQQCBWAZZCilWKcggggAACCCCAAAIIJLDAhAkTnFwK7nJI7pJINiSWQkrgF0vXEUAAAQQQQAABBBCIgwCBhTig0yQCCCCAAAIIIIAAAvEQGDduXDjHgi1/ZLMXbLaC7dkQQAABBBBAAAEEEEAAgVgFCCzEKkU5BBBAAAEEEEAAAQQSWMDyKth28eJFJ8eC5VewjwUW3HsJPLxR2/XAzgKlpGySf8SM0K9NKSkq2BkYMT3Se5UqSEnRpoMjp0v0BAEEEEAAAQQQGO0C5FgY7W+Y8SGAAAIIIIAAAgggIDnBAwsqpKamOgEFm6VgAYWRM1uhRYeq9qiu3X1dXuUU5ynDPXX2nWW82cXKy4y6GecT+8I9R6WSyvyXtGFhnLtD8wgggAACCCCAAAIIDKEAgYUhxKVqBBBAAAEEEEAAAQRGisDnPhc9WdkCCrY0kgUbxowZE99uNh9S1d46aeYKFd88pce+tByu0p5TUtZMr3RqBP1a3u3tQZ9K79yhHXOKVLTfrw0Ls9077BFAAAEEEEAAAQQQGHUC0X9djLrhMSAEEEAAAQQQQAABBBAwAQseWHDBlj+yoIKbY8GuxXfWQoNqQkGF/F6CCqqv0Z73pmlFcb4WTB6Z79O/v1Sak67CJWXSo74RtHTRyPSiVwgggAACCCCAAAKJLUBgIbHfH71HAAEEEEAAAQQQQCAmATengu1ts8CCuxRSXHMs1L+jgLy6sbeggnU2M0/+zMBoAAAgAElEQVTF+QvU81yGmIY/xIX88j0qlS3Jlhbmqkyl8kWt9x9Q5V3BvATBnAnB/BY95k4I5Qtw31daYdVl9j2YC8GtJyWlQJXvRVYVvG95Cfrrk3+j21/bB5d7iqzJOT64yQlahdvbGJ0VwmnjrkoFFN2vbrkauow/xXmma2tBz3BbXy5Sz0puWyMpR0XXsXCOAAIIIIAAAggkpgCBhcR8b/QaAQQQQAABBBBAAIEBCVgg4dy5c84z9oWsbbaPd/LmltZ2yXOVdLhKFRUV4U9N/YCGF9/CtgySypTr5FXIVu5jUun+6C/WrYNVhWlKa1jvzBC5dKnWCUDkRH4Bb1/Of7lI8/yXQmUu6Uxl/sDH5nw5n6MjlWci6pGKvtw9wXFpdorSXi7QmUvW5hntuLNUnX0KfoGf89aO0H0rY/2O3pygQbZU69QRquetHKVEjs0eealIaSk5kjs+f5mqCks6Ax7O+Her4I+d46+dU6S0qOCCBQvSVDSnNjy2S3/coctQih4EZwgggAACCCCAAAIDEiCwMCAuCiOAAAIIIIAAAgggkJgCY8eOdXIquDMVbJbC+fPnNXHiROcTr1G1nG2X2ut0XLeouLg4+Mn2KuCvUKIEF5xlkB7LlZtVIT0jv+flkB6r1aVH3FLBAITealQwY0RAlU+VSo/VfubEz/4XilR15w5tu9sbfq3eu7dpx509BDysT78sVLCkV+lzpHCfDpar6KV87XjKvR+uLuLAr/LCKpX5N4THL3lV+GBPS0Lla8cfIxJbX5eufFWp0ZlJERx/fuU2FV7XWX32PTuU/9Ju+UKzLQI7NztBnNqwY2fZ7kfZ2uAEOyL71r0UVxBAAAEEEEAAAQQGLkBgYeBmPIEAAggggAACCCCAQMIJuAEFy6lgQYYJEyY4AQWbteDOZIjboDxZuiVyKaTM+crySIGmhrh1KfaGg8sg5Wekhx/x/lWB8rsthxS+3ctBoxpfCi2n1EuJ2C4H1PiWlP/t3FCwwH3Kq9xv53cGDUKXI/ttl7IfuRQONAQaj0h3Fig34ot+t7bw/r1GHZFkMx/CSxOlpCglu1TSkVDQwC09T+mRdV1XqN2X3EBDcPw2qyOqHmeZIzf4IDU2VEkRQRy3ZvYIIIAAAggggAACwytAYGF4vWkNAQQQQAABBBBAAIG4CFy8eDHcriVrdhM2W1Jn9zhcIO4HUzR1kqSPmtUS97700wFnGaTgMkfhL8RDa/73tBxSP7Ul7O0yd3mj8HJI9m9sd9Tsg1gGlx+xfJP779T2G5xlpmKpgTIIIIAAAggggAACwyFAYGE4lGkDAQQQQAABBBBAAIE4C9iMBQsi2GbHFmhwkzbbDIZ4bRnTvVL72S4BhBY1fyRp0tQRnLA5KOYsg3RnZA6CYNDGyY3wqE/dMy30LX2kMbgwklvK+YW+exLTPricUdXLvtASS+5DAflerpLmpHeZyeDe72X/UqMaI2+FZiiEL12Xrnk2N6FLv8P3Yz5IV/qdUlVDVGs9Px1ePip0+73GXpI39/w4VxFAAAEEEEAAAQQ+uwCBhc9uSA0IIIAAAggggAACCIx4AQsq2DJI4V/Vp6Q4gQbLs2DX4rZlzpBXAdXu71z2qOXwG6pr9yhrXkbcuhVbw70tOyR50+3r9lL5DsZWkxTMuVBVWB4ORvg3pijn0Vif7yyXvaTMSZRcsrMzSBHYWRLMl3CPm+Ohs3xvR+6STpvdeiwpdGg2Rucz2Vpdme8kpt4U81g7n+48cvMy5KjAba/zZvjIHVu525YlfHaWXQoXiTiwRM+2RNOmsGnETQ4RQAABBBBAAAEEPoNA/H6a9Bk6zaMIIIAAAggggAACCCAwMAELLNgMBVtWxg0kWFDBNvd8YDUOVukM5RVLNRW1qqioDVXqVU5xnjrDCg3O/c6vyeUkd66w6QCeLK3IXxCfmQ3v+bT7JWneg51JksMqC3NVZqGF/X5tWNiZfyF8v4eD7EfOaMdbacpJsfwEkrMskL9cKbHHAoK1LtygS39MV8GX05RS6DZUptpLA0xibDkQ/I1KyXbrsTrOqOCuNO12q5XkvXu3zqhAadkpCvY8dDMqWXXEA70dWr/9imgvVNBmhLgJphdu0JnKI51tObNFalWektNbrVxHAAEEEEAAAQQQGAKBlEsjb0HVIRgmVSKAAAIIIIAAAgggMPoEWltb+x3UmHHjtW9ftcaNGaPx48c7CZuvuOIKpaamaty4cU4i5wsXLmjjU/9TL257Uk1NTZoxY0a/9SZbgdOnT+OSbC+d8SKAAAIIIIAAAkkm8Nprr2ny5Ml9jtr+Bjlw5G2xFFKfTNxEAAEEEEAAAQQQQGD0CEQug2TH7uwFN9fC6BkpI0EAAQQQQAABBBBAAIGhFCCwMJS61I0AAggggAACCCCAwAgRsITN9rFgQuTHrsV3KaQRAkQ3EEAAAQQQQAABBBBAIGYBAgsxU1EQAQQQQAABBBBAAIHEFbBZCRcvXnSCC26AYezYYMo1WxKJDQEEEEAAAQQQQAABBBCIVYDAQqxSlEMAAQQQQAABBBBAIIEFbFaCBRIsibP7sXO7boEGNgQQQAABBBBAAAEEEEAgVoHgT5RiLU05BBBAAAEEEEAAAQQQSEgBW/7I3SyQYAmbbZswYYITaHDvsUcAAQQQQAABBBBAAAEE+hNgxkJ/QtxHAAEEEEAAAQQQQGAUCNhSSG5uBZulYB/3fBQMjyEggAACCCCAAAIIIIDAMAowY2EYsWkKAQQQQAABBBBAAIF4CbgzFtyAgvXDlkJy8y3Eq1+0iwACCCCAAAIIIIAAAoknQGAh8d4ZPUYAAQQQQAABBBBAYMACtuSRm6TZkjh/7nOfc5ZBssDCyMix0KJDVXtU1+4Ozauc4jxluKfNh1S1t07h2+py3y3HHgEEEEAAAQQQQAABBIZcgMDCkBPTAAIIIIAAAggggAAC8RewQIIFFMaPH+8EGCZOnOh0yk3kHNcehoIGmrlCxTdP6aErDarZWydPdrHyM+12MAhRW3VIU/IXqKcneqiESwgggAACCCCAAAIIIDBIAuRYGCRIqkEAAQQQQAABBBBAYCQL2KwECyycP3/emaFgSyJZsMGWSLLj+G3BoIEFFfJ7DCpYzzKUV1ysPCeoYOdTtGCOV2p/X/XN8es5LSOAAAIIIIAAAgggkKwCBBaS9c0zbgQQQAABBBBAAIGkEnADCJZXwQIKtlmwwQINltg5blv9OwrIqxt7DSr01bN2nW3p6z73EEAAAQQQQAABBBBAYCgEWAppKFSpEwEEEEAAAQQQQACBESbgzlBwlz6yQIObW8Hdx6PLLa3tkmeadLhKFaciMihkR85Q6N4z5zl5dBXrIHXH4QoCCCCAAAIIIIAAAkMsQGBhiIGpHgEEEEAAAQQQQACBkSJgMxPcj/XJZi9YUud4zlhoOdsutdfpuFaouDgUJaivUYW/QjXqJbjQfEhvWBAiLUcLpo4UXfqBAAIIIIAAAggggEDyCLAUUvK8a0aKAAIIIIAAAgggkOQC7iwFm6Fgx7adO3fOyb0QVxpPlm6JXAopc76yPFKgqaGHbgVzMrTLq5wlGT3c5xICCCCAAAIIIIAAAggMtQCBhaEWpn4EEEAAAQQQQAABBEaAgM1KcJdDshwLbsJmm7XgHo+Aboa6MEVTJ0n6qFnRKRQaVFNRq4A8ylqeJ8IKI+eN0RMEEEAAAQQQQACB5BIgsJBc75vRIoAAAggggAACCCSpgM1Q6Jq42WYuWJDBrsdry5juldrPdgkgtKj5I0mTpqozhUKLDlW5QYV8lkCK1wujXQQQQAABBBBAAAEEJBFY4J8BAggggAACCCCAAAJJIuDOVLAgg7sUUtxnK2TOkFcB1e7vXPao5fAbqmv3KGte55yEhv17gteWE1RIkn+uDBMBBBBAAAEEEEBgBAvEPbDQ9vIaZ+q1/UGTMneLjo44rIAq70oJ9vGuSgVGXP8G2KH3KlVg1ikpKtiZ8KPpf/DJNt7+RSiBAAIIIIAAAkksYP8PGBlQGDNmjGzWwsWLF+OokqG84hx5z9SqoqLC+ew55VFOcUQAob5GtWesi+2q2xss45atqDrUZbZDHIdC0wgggAACCCCAAAIIJIlA/OY8O8CN2v1ceSf1sc3afaBEcxeldl7jCAEEEEAAAQQQQAABBD6zQGQQwYIJzg97UlKcoMK4ceM+c/2frQILLnTOTuhWV2aeijO7XeUCAggggAACCCCAAAIIxEkgvjMWGnyq3GcjX6Zlt9k+oE2/qFZbnDBoFgEEEEAAAQQQQACB0Szg5lmwIIO72bE7i8G9xh4BBBBAAAEEEEAAAQQQ6EsgroGFoy9vk896tyRfpfeWBPv5QrV8H/bVZe4hgAACCCCAAAIIIIDAQAVsloJtNlPBci3YZksg2TGBBYeD/yCAAAIIIIAAAggggECMAnEMLByVrzKYUcH7V7OVnZ2r1U6ny1X+q8YYu08xBBBAAAEEEEAAAQQQiEXAza9gQQT72LkFFj755BPnE0sdlEEAAQQQQAABBBBAAAEETCBugYWOA7u1+Zh1wau1S7Kla3K17J7gS6l+umoEJnHmHwwCCCCAAAIIIIAAAokrYDMT3OCCjcKdudDR0SH7sCGAAAIIIIAAAggggAACsQrEKbDQodp9mxSwXnrXKnehHVyt3NuDcxbkJHHu+4+bwM4C54+hlLsqg/W0nVTVxjVaPCcteD1lhnLuWqtt+xr7z9lwMSDfC+u1Jne20lJSlOI8u17lbw5mtocOBQ5WatOqxcrJtDbcdtZqy06/Ahd7e2V+bXLKpmjTQUlNVVp/R6ifmTkquG+b/F2Xjgr4VP5QhIWVe6hcR7uW661Ju97WqOookxSlzVmsNQ+Vy+e8uJ4f9m8MjW2jX7rYqKqHlmt2WudYtx3sbmouW+4r6O7y8sn+35114zOMN/zvKCVFBTv7GFjPw+UqAggggAACCCCQMAI2O8FN2uzOWpgwYYKuvPJKeTyehBkHHUUAAQQQQAABBBBAAIH4C8QnsPBhtSqfDA5+7oPLlB1yuPq2Qq1zjgeWxLn14CYtnjVbBY+Wy/df7pfDjfK/tE1rl83QrOJK9ba4Usepcq2ZlabFq7ao/MDJYJBC9uwWrfnGLC3/aa1aP+t7+tCvTXekKy27SKUv+ORvcCsM9nF9YY7SZq1R+am+gykf11eqKLtAW34V6meDX1Uvn9HH4b8DO3TyhTWakbZYa56MsLByT67RvDnLteW3/Y+mbX+pFs+aoeVRJlLgv3wqf3KNFqfNUMHPj6rP3l5oVOWqHBU8Wa2Tziuxse7WmY9T3cFL7SdVvmqG47L+2aruLvmzNSt3vaqbOh+JPhqc8UbXyRkCCCCAAAIIIDA6BdwZCjY6CzC4yyBduHDBOR+do2ZUCCCAAAIIIIAAAgggMBQCcQkstP26WuXOaOaqaMncznGl5mjZD7zB81iTONdv1epvl8qnXK1+ereONLaqtfWMTlRv1WpnJoQU+EWR1r7QQ2jhvSqtXrRG5c4X/enKf6Lr8wFVP1igtS91dnHAR+1+bbo9R6W/sm/Xvcr97lbtPvqOWltbdeZkrXY/ka90q7ShXGsWLdc2Z3monlvZVFykSi1TWfUJnWlt1TtHd2vrUwXKDX1XH3hptXJXlQeDKBn52lx1RO+0tqr1zAntfXq1sgPVWp+/VlU9V+9c7Ti4ScvyNgVnJXjNdK9OnAmZ+p7XukX2fhpVdf8yrd7Zg6lb98YiFf1CWvbj0PONR7T76S0qWOQGFhpVeV+u1oTeS/qdZdrhD7q0WtmQS+DAFi2/e5P87W7FnfvBGG9nbRwhgAACCCCAAAKjW8CWQnKTNluQYcyYMU6uBTfAMLpHz+gQQAABBBBAAAEEEEBgMAVSLtk86GHdGlW+bIbW7JN002YdObpOEaEFdRwoVXpucJmkZdvf0d57nK/du/XQlrBJKwx9Re4t1A7/DhVO71Ks3af1mYu1xb7TX/K83qlZHfwS3ynWId8P07X4J3YzW2V+nzYsdL/0DtXTflRb7pqn9dZX2+7coTO/LFQo9BG62Ncusg2vCitrtePu7uPpOLZFBbetV7V1ZeFmHfFHmthSSDkqdZqZqw2/rlXZN7v00+51+FSavlibnDrKVLt/g7LDMxmCfXTambte1aEu51ee0e67I0YTWUdvpmqT74fLtPgnfknL9Hz9Xq3OCFUoyZZCynk0eD73kVrVPpatHnqrxheWa8aqYE+yH6uV75Hu5Ww2iQV+KgOS959eV+MTuZ11RfZ14WWOt7PbHCGAAAIIIIAAAgkpYD9W6W8bM2689u2rVsqlS5o4caKuuOKK8PJHFlywGQv2J8Gm/+d/6cVtT6qpqUkzZszor9ohuN+iQ1V7VBf+QYlXOcV5Cv6vZtd7kjxZWpG/QFOGoCc9VXn69Ol+XP6k//jnA3qgXnrwBytVMqenWgbh2luv6Ss/6WGN08zrdfBH2bp2EJqgCgQQQAABBBBAAIHkFHjttdc0efJk7dmzp0+A8xO9cUje3OBTZeiL+tz78qOCCtbb1EUFWn9TsN+xJnFe9uOy7kEFq8KTq4Lvhgz2N4aWOQqdt/lU5QQVJO8PyrSua1DBeX6u1j39vJaFHhnwzpZ8ctv4px0q7yGoYHWm3rROWx8LtXJws3Yf6GWRoZuKVNBTUMFSIuyvCgYV5NWGH6/rFlQIt/O/eh9N4OVt4TrWVZT3bGq5MH5YpnVOPKJapTstwNDTNldF+d2DBcGSflX+MBTeuO157eghqGDlUmeuVlnIJfDkNlW919nOYIy3szaOEEAAAQQQQACB0S8QufyRHX/yySfOoC3PggUY4ro1H1JVxR69f90KFRcXhz5uUMF6NkUL8t3rtl+hLNVpT9UhtcS148HGP3j13/WVQr+Uc80w9SZVP/3ZSr1dGfEhqDBM9jSDAAIIIIAAAgggYALDvhTS0Ze3yefYL1Phou6/3pfmKrcwNIchhiTOTvm5PdUTfMHps/JDb/qkGiO+mO74rU/bnDterb0j4pfwodLhXUau8peEzwZ00Ob3hZZ88mptfh9tSEq/s0QlTu0Blf/maM/tLJmrWT3e6dCRXwdHY8mwl4eXG+peOH1RvnK7X7bQhI782l0kabUKlvQ0zyD0oCdHy/4heBx4xqeee5uruTN7bEg6VqvdNrNCUv7duRGzSLqX7+xvlfb6Qw9pMMbbvS2uIIAAAggggAACo1nAXf7I9u7HZiq4AYb4jb1BNXvrpJkrlH9zrPMPpmjBHK/U/r7qm+PXc6flt17Twtov6mDl3+iOL8W5LzSPAAIIIIAAAggggMAwCYwdpnZCzRyVrzL0NfSdRVoesYROZD/mfrtEuQ+tkU8BbXrJp/WLlunqyAJRx+lKu4wfBp0JuPkBcpR+XVSFXU7SNfuvJO3vcjmG08aG2lCp/tqQdPUszbUAxn4p8JbNrsjuvuTSpImdSwFFtX9GATch9F+l9/lFvTJmO4GFYHAnspJGHX05dP7tdF3d1qa2yNtdjien28yHailwRCffk+Z2M5ysib3EJgL1R8LBiFnXTFZbWx8tXZ3mzGqx/laeatQOR2UwxttlQJwigAACCCCAAAKjXMANLLh5FtwVUe26exwXgvp3FJBXOTEHFSJ76dHUqZHncTie8y29PVTLHn2m4ZzQtsLjeipch81y+BvdEbVWUixlwhVwgAACCCCAAAIIIIBAWGBYAwsdB3Zrs5uc+KUipaUUhTvS68GzVfI9tkz5lxE86LVOSYEm99f56fL2U7fXa7/x7/5VfF/1272Odve3/PP6CV5Y6Yma2Hv0xGkqf3pEPoSoxgNqdIMC0719BGHsIa+8oQBGVBXqUHitqJfXaPbLa6Jv93rWqDO2xGvXwMK307sHRtw6LnYu9bRp2WRtcq/3tz/T6gQ7rtZgjLe/xriPAAIIIIAAAgiMLgFL0mxLIFkQwf24MxdsH6+tpbVd8kyTDlep4lQ4wYK82cXKy+ytVw2q8QfkmbkilIOht3JJev0Dv+77/rvSPy7S20u/6CDYck0Lv79Lf3TzP8RSJkn5GDYCCCCAAAIIIIBA/wLDGFjoUO2+YFLm/rsVWaJc5b/aoPxekjhHlhyq44mefr7xH6qGu9Y7dmLXK5dx3n8AY2CVHlVHZ5yg89GxFioZ5O3DNgt/DHAb7PEOsHmKI4AAAggggAACI0TAkjSfP39eY8eOdQILkcEEdxZDPLracrZdaq/TcVl+hdBSSPU1qvBXqEaRwYUuCZwtefNlzXKIxygHu80OPfD9XXogotql/7hIz4SCCEd/9a5etWTOoXMrdu3SbP209oAe+O0JlcyZrVjKRFTPIQIIIIAAAggggAACUQLDF1iwRMZPhtq+c7P23ju3l2V9QmU6jmrbsvWyeQVOEud71nVL9Bw1kgGeeKdb7gWrvVGBnn5xH1FfY4M7uyHiYgyHqR7LFWGzFo44+R2yu/6qP6qOj/VxHysCRRXtduJV+rcl2ayFpoDzq/7e5jbYeBtf6lZB9IVHanXpsezoa0Nylq8djbt7SRLdV4ODPN6+muIeAggggAACCCAwSgQskOAmbbbZC+7yR+4shrgO05OlWyKDBJnzlfXWHtU1NUiZ7vqpwQTOC0IdbTlcpT0VVcpanq8F8V4OadjxelrWyO3En/THd6WlOTMUteqRvqjsnFSp9qw+UCxl1OV5t372CCCAAAIIIIAAAggMY/Lmtl9XhxIZSyX/sFrLFuUqt6/PbatVdE/oFcWUxHlgrzM93U2DXKUjJ/v6HXxAjW8NrG63dHpGTuiwNipxtHs/av/hUflDeRy8c2f1voxQ1EPuSbrSvxY6fumITvQ1nPcadcR9LGqfrlmhhMw6eEJuBoqoIoN04s2cFxpflY7U99XZ3hocjPH2VjfXEUAAAQQQQACB0Skwfvz48GwFCyzYx7Zz5845yZxH1qinaOokSR81q6WXjk25+RZledpVd8RNNtZLQS4jgAACCCCAAAIIIIDAoAt8btBr7LHCRu1+rjx0Z53yl8SytNDVWvYPG0JfQAeTOF/2D/p76tP8XG0I/ax/x8u+3hMVv+fT7v5+4d9T/ZaPOTtXq517AW2tqO69DZs38XJ5OPBSNN8NevRScQ+X5y5yrXaoan/vUoFf73bmaXSvwqu5iywhsyWQ3qYqNxdG94KS2lR9X5pmZC/W4rxS+TqXwu2xdLeLX8vW6pD9lp19u+jYFuWkzdbivMUqeuFkuKrPPt5wVRwggAACCCCAAAJJIWBLII0bN04WYLDPmDFjnICCzVz46KOP4maQYXnE2s92CSC0qNm6NGmqQosj9do/z1X9lej10VF644v68vXSq7Xv6IOoEf5J/toO6fqrdK1iKRP1MCcIIIAAAggggAACCEQJDE9gocGnyn3Bdr0/WCabgRvLlmpfzLtr+lgSZ1uyaLC21FwVPBRc7ifw7GqV7OzpN/qNqvzhul6+iI+hI9csU+EPggNw2vhFT21IHce2aO2j1cEKF25W0ZIYgSK6kLqoQOsX2oWAtn2vRJVNETfdw6ZKrXuw92Wd0m8vUYnT3aNaf29pr96NO0u0+tmAGg/6dGJ+rnI8bgMx7iPs9UKJSp472XPuhHa/Nt27Xv7ASfn2pyr3rzoDLoMx3hh7SzEEEEAAAQQQQGBUCLjLH1mAwXIqWEDhk08+cYINdi1uW+YMeRVQ7f7OmQcth99QXbtHWfPcZZC6965h/x7VtXt1Y+QSSt2LjbgrR7fv0lcKd+kr208MWd/mfuMaqf5d/fOrfwq38cGrfj1Qn6qf3j7buRZLmfDDHCCAAAIIIIAAAggg0EVgWAILR1/eJp/TsFerl+T0nVshsoP2BfSDlqfANkvi3PMX86ECA97N/e4WlYW+jK8szNHiB8vlOxVQW1tAJw+Ua31ujop+ERhwvZ0PpCr3h1WdbRTnaPH3bDZAo9ra2tTWdFRVTxZo9tz1qnaayVbZT0suM5fEXJX8tExOqCRQqaLsxVr/gk8nA21qsy/mX1ivxdlFquxrONcs07qnCoOzRA5u0uI5i7Xm51U62tTm9LfxWLXKH1ysnMJKOdV4C7XtvtzY32cnjKLsvzdbs+/apMoDJxUwl8BJ+V/eooK5OSo9GHwo+8dlKor6u3IQxmthmJ0Fzi/1bM3hgp194UR0nkMEEEAAAQQQQCABBSyI4OZVcPMtWH4FCzJMnDgxjiPKUF5xjrxnalVRUeF89pzyKKc4IndC8yFVhe65ZWqVo+LiPEX9L2JcRnFC2yxQYJ+fBH8J9dRPQuf/7O82a8DyHwz5Nudbevtn10v/ciDYr8JdWvgvHv1b5d/oDjfxQixlhryjNIAAAggggAACCCCQqALD8NOko/JVWgJjSd61Wr5oYL/Gn7ukSHN11EmBPOhJnD3Z2vCr1/XxXUXadCAg30/XyPfT6FfpXVSmtV8rVenPo6/HfNa1jefWyvdcD09n5GvrSztUctPAfCJrSl24QdU1H6ugeJN8AZ+2rPJpS2QBeZX747Wa9cNSbYu63nmSfvcO1XrStOZ7W5w6yu/3qfz+zvvho4Ul2r1zq/L7TEgdLt39wFz2H9HVqwq09iVLKF2qopdKu5eTV8ueqtaOB7on+x6M8fbQIJcQQAABBBBAAIFRK2ABBQsk2OYe20yGuM5YcHpjwYU+QgRTFyi/2E3bPNJez2yVVM5WSUzd+qLu+NFK3RFT2V4KWUCgspd7kZevzdYzlcEZ2pGXo45jKRP1ACcIIIAAAggggAACCAQFhnzGQseB3docWq9/7oPLgr+oH4j+TfkquS30wBAkcdY1uSrzndQ71VtVcntn0uT0hfkqefp1Ha3ZoFz3Vz0D6Xdk2XAbz2vdPbnKDv/NlK7sO0u0ueqIWk/u/kxBBbe5q5eU6fWT72jv0yVa9jV3HalgO1t9RzARg/UAACAASURBVPX6D3KV5hbuZZ9+++ZgHdvXafWSbKW75byzlHtnibZWn1Drr7cqf7p74zL3nrkq+eU7OuPfoc335is33F8pfWGuVj+2Q7V/bNTeB+aqt6wcgzHey+w9jyGAAAIIIIAAAgknYDMWLly4IJupYJsbXLA9GwIIIIAAAggggAACCCAQq0DKJXc+dKxPUA4BBBBAAAEEEEAAAQRGhEBra2u//Rgzbrz27avWpU8+0ZVXXunMTrCljzwej/OxPwcs0PCjzc/oxW1PqqmpSTNmzOi33mQrcPr0aVyS7aUzXgQQQAABBBBAIMkEXnvtNU2ePLnPUdvfIAeOvK0hn7HQZy+4iQACCCCAAAIIIIAAAsMi4AYQbCmkMWPGhBM4W+OWf4ENAQQQQAABBBBAAAEEEIhVYBhyLMTaFcohgAACCCCAAAIIIIDAUAnYrAT7WFBh3LhxTmDB8itYwIFJzEOlTr0IIIAAAggggAACCIxOAWYsjM73yqgQQAABBBBAAAEEEIgSsJkKkTMTLMhg5+fPn48qxwkCCCCAAAIIIIAAAggg0J8AMxb6E+I+AggggAACCCCAAAKjQGD8+PFOfgVL1GwzFCzQYDMX7Nj2bAgggAACCCCAAAIIIIBArALMWIhVinIIIIAAAggggAACCCSwgM1QsGCCBRbc4IIFFcaOHRs1kyGBh0jXEUAAAQQQQAABBBBAYJgEmLEwTNA0gwACCCCAAAIIIIBAPAXcZZAsqBC5Wc4F917k9eE/btGhqj2qa3db9iqnOE8Z7ml431nOM3OF8m+eEr4Tt4MP/Lrv++/q1XAHrtG/VX5Lc8Png3dwdPsu/e1rXerLvF4Hf5Sta7tc5hQBBBBAAAEEEEAAgaESILAwVLLUiwACCCCAAAIIIIDACBKw4IEla7a9zV5wEzZboMGCC3Hdmg+pam+dNHOFivsLFNS/GRF8iGuvQ42f0Lbvv6sbfrBSz8yxS3/Sf/zzAf3tP/uH7sv+qEDCCW0rPK6F26/S26tmjwQQ+oAAAggggAACCCCQBAIshZQEL5khIoAAAggggAACCCBgAYULFy44yZptb8EFCypYsKHrLIbh1WpQTSio0P/sgwbV+APyzMxRlmd4e9l7a7NVUrlSJU5QwUp9UXf87TVS/Z/k/6D3pwbvzmzd9Y+p0mundXTwKqUmBBBAAAEEEEAAAQT6FGDGQp883EQAAQQQQAABBBBAYHQIWPLm1NRUJ8+C5VqI/PzlL3+J3yDr31FAXuX0N1NBUsvh4+Gyze/Fr8uxtdyhPwakYVufKPNKXRfVseBMhqcirj34g8gASPC+frBSd53+dy38l45QyaFbximiKxwigAACCCCAAAIIJLgAgYUEf4F0HwEEEEAAAQQQQACBWAQskGCzFmxvm81UOH/+vJO82YIO8dpaWtslzzTpcJUqToUTLMibXay8zIheNR/SG6fa5c3OV4Za1Bxxa6QdfnDaxpGqL3uHoWcf+PXP/9Khpf84IyKGYcsxnVaOzaQIdeGDV/9dC3/y7/ryz/5Gd0QkY3jqJ7v0lC2tVGk5GkLLOG0/wbJKw/DqaAIBBBBAAAEEEEhkAQILifz26DsCCCCAAAIIIIAAAjEKWCBh3LhxzrJHFlyIXP7IDTbEWNWgFms52y611+m4Vqi4OJSIub5GFf4K1agzuNBwpE7tnizdEhlsGNSeDFJloS/69a0bo77AH6Tag9XUv6uFhe92VvmtG/X20i92nttyTD+KPJeunfdFLf2Xd7vPorBnw7kZvqgvXy/p3bOyVZwi4g8RdXOIAAIIIIAAAggggIBEYIF/BQgggAACCCCAAAIIJIGAJWt2AwoWVBg7dqzzsWPLtxDXzQIGkUshZc5X1lt7VNfUIGVmSPU1qj3jUdbyBQqFHuLa3d4bDyZyflXX6N/CX9b3Xvqy70Qlbw7OMvhK4Wn9W+W3NNet9K3X9JWffOiehfc3hI+CB0unTY26MnfVSr0ddYUTBBBAAAEEEEAAAQS6C5C8ubsJVxBAAAEEEEAAAQQQGHUCEyZMCCdqtmBCZKBh5A12iqZOkvRRs1rUokNvBaS0G7Ug+jvwEdZtN6dBqn76s4gv+Ie8l1/UHWuv11J9qNq3Qo2FggpL/3GR3q5cGfz8zMqwIYAAAggggAACCCAwOALMWBgcR2pBAAEEEEAAAQQQQGBEC9hSSFdeeaXTxwsXLjizFyy3ggUZ4rkUUsZ0r2r9Z9UiRcxGaFHzR5ImTdWU5nq9bykL2mtVUVEbbXxqjypOSZ6ZK5QfOeMhutQwnNmsgeN6ShZUiM5hMAyNh5rozOkQzPFwjb4btTzS8PWElhBAAAEEEEAAAQRGvwCBhdH/jhkhAggggAACCCCAAAKOwJgxY5wggru3gIIFHOIZWFDmDHn9tard36CMJRlOP1sOv6G6do+y/jpDmpqh/OIFXd5giw5V7dH718U7oBDs1tHtB/RAfWxBhaPbd+lvX5MsB0NnboMuwxvQ6Z/0H1vf1auZ1+tHoaQI137JY5EY/fEDaa5d+8Cv+77/rl6V1HUppAE1RWEEEEAAAQQQQAABBEICBBb4p4AAAggggAACCCCAQBIIWPDg/PnzsiWRbJaCBRc++eQTJ79CXAMLylBesVRTETkjwauc4jwFwwwj/OW89VowUKAOPfD9XXogsrtRuRDsxp/0x4icy5FFB3TcU/LmyJwOc76lf/vWLv1tuD8W9LhRN3z/+ICaoTACCCCAAAIIIIAAAr0JpFyyxVXZEEAAAQQQQAABBBBAIOEEWltb++3zmHHjtW9ftcakpDgBBVsO6fOf/7yuuOIK59wqsETOP9r8jF7c9qSampo0Y8aMfutNtgKnT5/GJdleOuNFAAEEEEAAAQSSTOC1117T5MmT+xy1/Q1y4MjbYsZCn0zcRAABBBBAAAEEEEBg9AiMGzcuvOyRzVJwz205JDYEEEAAAQQQQAABBBBAIFaBz8VakHIIIIAAAggggAACCCCQuAK27JG7BJLtbeKyO3mZwELivld6jgACCCCAAAIIIIBAPAQILMRDnTYRQAABBBBAAAEEEBhmAZuhcOHCBSeY8OmnnzpJm60Ldmz5FtgQQAABBBBAAAEEEEAAgVgFCCzEKkU5BBBAAAEEEEAAAQQSXMBmKlhwwWYvuJsbbHDP2SOAAAIIIIAAAggggAAC/QkQWOhPiPsIIIAAAggggAACCIwCga4zEyzIYB/b3CWRRsEwGQICCCCAAAIIIIAAAggMgwDJm4cBmSYQQAABBBBAAAEEEIi3gAUWbJswYYLGjh3rBBMssGDnBBbi/XZoHwEEEEAAAQQQQACBxBJgxkJivS96iwACCCCAAAIIIIDAZQnYkkfuDAXLt2DH586dc3IsuEGHy6qYh5JA4M965dmVmv/4Sm0/djnDDT2/6/eX8/DQPBOo0UOXPZ6h6RK1IoAAAggggAACiSTAjIVEelv0FQEEEEAAAQQQQACByxQYP358+EnLsWDBhIkTJzrXLNAQ/61Fh6r2qK7d7YlXOcV5ynBOu97rqYx7jX2/Aval+ovbNfPWXVp1U9fSFgS4X76Mp/XEki90vdn7+bEXNP+VRpV95zHd6u292ODc+b22P75Rz4Qr++owtRtukAMEEEAAAQQQQCDpBQgsJP0/AQAQQAABBBBAAAEEkkHAggf2sZkLY8aMcZZAcmcwxH38zYdUtbdOmrlCxTdP6bU7npkrlN/H/V4f5Ea0gHeaZkZf6XY289rIoMIXdOu9u3Rrt1JxuBAKiujrT+vNcODDgiEv6Pi99+jGOHSJJhFAAAEEEEAAgWQUGAk/TUpGd8aMAAIIIIAAAggggMCwCrhBBHfZIwsu2GbXL168OKx9iW6sQTWhoAJBg2iZoT479cGfe2jiA50+28PlEXKp+a3fyKel+vtwUME6ZoEPggoj5BXRDQQQQAABBBBIYIErr7xS58+f73UEds/K2MaMhV6ZuIEAAggggAACCCCAwOgRsACCLYGUmprqfNwEzjbCvv54GHKB+ncUkFc5zEQYcurOBq7Vl66STnVe6OUouCxSaTjQ0H3JoeO7VmpVU+fjpS+uVKl7etUqvXpvnqaGznOnXqvm/Y9q6e/+ELzS5b77WP/7Rp0OSDf2tuRST8sy9bj801f1JW+XMU5/RG+uvCGqC1F9du50d4h6gBMEEEAAAQQQQCBBBa6//nq9++67am1t7XEEFlSwMvr1cQILPQpxEQEEEEAAAQQQQACBUShgsxQuXbrkBBhsloLNXpgwYYLziddwW1rbJc806XCVKk6FEyzIm12svMzoXrWf2qOK8LfhkTkYostxNjAB54vzhm9GBAHsC3erI2IJpNCX9V1rvnHlLr1pF3v6Mr9LYd/v7pfPvrh/2L64D+ZJWLprWrcv8rs8FnU6dcnf6b7fbZQTwOghCBBVuN+TP6j0xft136279KblmnCCDxu1/VhE7oljL2jp76Sy7+wahtwR/XaYAggggAACCCCAwJAKWA62mTP7WzQz2AVmLAzpq6ByBBBAAAEEEEAAAQRGhoAFEexjeRYswGAzGOxjgQb7xGtrOdsutdfpuFaouDiUX6G+RhX+CtXIDS5M0YL8Yi2I6GTD/grVVlSpeXm+Frg/iY+4z2H/Ar7mD5zgwfvNf5DOSr8N5OlWve/MZPhS/48PvERUIOAGzZ8uqfV9NeuG8KyG/iu9Qase3qX5zkyJjZr/uD2xVNsfvrylkCyoEE5g7c3T30/frlWnfq9VNwVnLTR/0CgpPRRo6b93lEAAAQQQQAABBJJFgBwLyfKmGScCCCCAAAIIIIBAUgtY0mabpWBBBDfIYCAdHR1xDSw4L8WTpVsil0LKnK8sjxRoauj1nWUsyZFX7Xr/7ZZey4zOG7Z0z0rNfzzy86heCQxktF/Qlya75X+vN1tXqWz6H+R7y825MPK/SHdmSjy8S29+Z5Vy9apWPT5QA3f80ftpU78aCnYErzszJJz6zXtw2ohukTMEEEAAAQQQQCAxBZixkJjvjV4jgAACCCCAAAIIIDAgAQsm2OYGFdy9BRss38LI2qZo6iRJHzWrRRkKzWPosYvtZy2w0FeJHh9L4IsRyxMNxiiOHdYzk2/WmzOXqtR/TM1zBqPSYazDm6cnHp6m7Y9vVOkbv9etXfIjDLQnzuwNfTPiseAMiVUK5WII5ZCImukQUZpDBBBAAAEEEEAgWQSYsZAsb5pxIoAAAggggAACCCS1wPjx450Agi2DZB9bEslmL1gCNlsSKV5bxnSv1H5W0fMOWtT8kaRJU3sPGTQ3yzIyeKdnxKvrCd2u+8v8V069qvtm3iDddLPuO/sb/fat9+VL6JF9ls7/WactT+HkaT0szRQM6Lz58NMqu0p65tTvP0tDPIsAAggggAACCCS8AIGFhH+FDAABBBBAAAEEEEAAgf4F3CWQPvnkEyegYMEFCzbYEkn2iduWOUNeBVS7v3PZo5bDb6iu3aOseb0FDRpUs7dO7Z4sze+S4Dlu40jIhn8jX9NSzbfExbKcB39Q6e9ela6apmkDHY93mnIVuZzSQCuIrfzxXd2XI2re/696Rl9V2S3BvAgK9eW0uzyUk5R5e78Bk+b9W1V6NqKeHrv0gU6flXKnXtvjXS4igAACCCCAAALJIjDS5jwnizvjRAABBBBAAAEEEEBgWAVshoKbuNkatqWQbKaCBRUswBC/LUN5xVJNRa0qKmpD3fAqpzhPnWGFBue++z2xFfJmF6uYoMJlv7ap16ZLv3tVvqu+qf8equXGmUulplcj6vy9s8TQMxFXSkNLASkqEbO9kDw9cev7mv/K/Zr/u9ADV63Sq/fm9fDr/4gKB3h448q1Om05Js5GPtglebM3T//967/R0ldW6plXrJzdf0QzH9/Y+ZB3mmZKeiZcxi0XnQT6uJMkuvMxO8r9+tN6YskXoi9yhgACCCCAAAIIJJlAyiX76RIbAggggAACCCCAAAIIJJxAa6ut29L3NmbceO3bV61PL17UxIkT9fnPf15XXHGFE0ywgILlWLDtxz97Ti9ue1JNTU2aMWNG35Um4d3Tp0/jkoTvnSEjgAACCCCAAALJJBDL3xfmsfm5X4qlkJLpXwZjRQABBBBAAAEEEEhaAZuh4C6DZDMV3BwLqampcc2xkLQvhIEjgAACCCCAAAIIIJDAAgQWEvjl0XUEEEAAAQQQQAABBGIVGDt2rBNMsOCCBRkil0WaMGFCrNVQDgEEEEAAAQQQQAABBBAQORb4R4AAAggggAACCCCAQBII2CwFN6Bgw7Vj92NBBjYEEEAAAQQQQAABBBBAIFYB/oKIVYpyCCCAAAIIIIAAAggksIClVrNZC24wwc7t4y6JlMBDo+sIIIAAAggggAACCCAwzAIEFoYZnOYQQAABBBBAAAEEEIiXgAURLLBgyyHZx92YseBKsEcAAQQQQAABBBBAAIFYBAgsxKJEGQQQQAABBBBAAAEEElzADR64exuOHdusBTYEEEAAAQQQQAABBBBAYCAC5FgYiBZlEUAAAQQQQAABBBBIUAE3oDBmzBhZsmb72PHFixd17ty5BB0V3R5agT/rlWfvV+lZt5Wvquw7j+lWr3vOHgEEEEAAAQQQQCBZBQgsJOubZ9wIIIAAAggggAACSSXgLn1kMxQsmGCfcePGOR9L7Bz/rUWHqvaort3tiVc5xXnKcE9D+4b9Fao94170KGt5vhZMdc/ZxywQqNFDL26Xr8sD9926S6tuci9+Qbfeu0u32umxFzT/lUb3BnsEEEAAAQQQQACBJBcgsJDk/wAYPgIIIIAAAggggEByCFhuBdtsloIlcbZgggUb7DzuyyE1H1LV3jpp5goV3zyllxfSoJqKWgXSclRc3DXc0MsjXO5XIDKQ0Lz/US195VF9ycushH7hKIAAAggggAACCCS5wKjJsdC4s0hpKSkq2BkY3lf6XqUKUlKcP8zsj7OBfDYdHN6u0hoCCCCAAAIIIIBAcgvYkkcdHR26cOGCk8TZlkdyZzLET6ZBNaGgQn6vQQWbzRAKKiwhqDBU72rqkr/TffqDfG/9eaiaoF4EEEAAAQQQQACBUSIwKmYsdBzcpKLCSg1zSGGU/BNgGAgggAACCCCAAALJIGBBBJu1cP78eSew4I7ZlkRy8y+414Z1X/+OAvIqp9eggqTmer3f7lHWXxNUGI53M/PaLwy4GWe2w+/+0PncVav06r15YpWqThKOEEAAAQQQQACB0SSQ8IGFtt9sUsGdpfKPhLfy3a16/e5ZMfckjb+LYraiIAIIIIAAAggggMBnE7Alj8aPH+/kVLC9LYdkQQULNFiuhXhtLa3tkmeadLhKFafCCRbkzS5WXmaoVy1n1S6PprbUqGJv58+JPDNXqPdZDvEaUeK2e3zXRj2jpdoezrEQ41iOvaD/obV682E3IPF7bX98o5bumqY3V94QYyUUQwABBBBAAAEEEEgkgcQNLFwMyPfkahX9sHrkzFT48jzlLspOpPdPXxFAAAEEEEAAAQSSRMCWPLIlkCyg4G52PGHChKhr7r3h2recbZfa63RcK1RcHMqvUF+jCn+FahQMLjjBB7WrtsnyK+QFu+bkZdijKhFc+Czv6plXVuqZV9wavqqy79yjG93TWPc33aMnosreoPnTJbW+r2bdwKyFKBtOEEAAAQQQQACB0SHQ+VdFwoynQ4ED21TyvfWqakiYTtNRBBBAAAEEEEAAAQTiKmDLINmsBfvYZucWaLAcYXFP3uzJ0i2RSyFlzlfWW3tU19QgZbrTfL3KicyvMHWBbkyrU+179Wq5eYF6S/kcV/QhafzPeuXZ+1V6NrJyCwhcXsLlyOTNOvaC5r+4Ur6vP60nlrizDyLb6e24pz5Juqq38lxHAAEEEEAAAQQQSHSBxAssHNyitNzSsLt30Tpte2SWduSuUVX4KgcIIIAAAggggAACCCDQVSAyWbMFFGyzmQxxzbHQtZPO+RRNnSTpo2a1yA0sdC845SqPdOasWqQkCix8Qbfeu0u3duf47FduukfbT72qVQ3H1Lwk1vwIblBhqbY/3Dnb4fiulVrV+tm7RA0IIIAAAggggAACI1PgcyOzW7H0Kl35T7yuozWblZ85MZYHEqfMhydV/fO1KsidrbSUFOdXZGlzFmvNQ+WqbmiLYRwdChys1KZVi5WTGXw+JWWGcu5aqy07/QpcjKEKiiCAAAIIIIAAAgiMKgGbqWAzE+xjsxVsc6/Fc6AZ071SezA40NmPFjV/JGnSVCdgMOUr0+RRu5qbO0vYkbOMkueqJAoqRI9/yM4mTxvA8kUf6PRZKffrywe+hNKQDYCKEUAAAQQQQAABBIZaIPECC2NTVfjYbp1ofUe7/ylX3sSbc9HHO+3QyZ1rlXPtbC2/f5uqDpwM548I/JdP5U+u0fLMWVr8qE+9hhc+9GvTHelKyy5S6Qs++cPLRTXK/9I2rS/MUdqsNSo/1dFHP7iFAAIIIIAAAgggMFoFLK+CzVCw4ILNWrAcC3FdCilzhrwKqHZ/+H9c1XL4DdW1e5Q1LzRbYWqmpnnaVfe/DzmzE5x3U1+j2jOSd04yLYM0xP8qj72gVU3SfTMHknD5Wn3pKsnX/EG4c85shabwKQcIIIAAAggggAACo1Ag8b6Wn79OO+aPwjchqXHnauUWVgaDCRn5KnusRPmL5ikttVWNfp92PFmqLQcC8m1crHlte3Xk6WW6OpKi3a9Nt+eo9KBd9Cr3u6UquW+ZcqdPVkfgpGp/tVnrH6pSY0O51ixqVMe+11VyU2QFHCOAAAIIIIAAAgiMVoHz589r3Lhx4TwLFlSwZZDiv2Uor1iqqahVRUVtqDte5RTnRSyCNEUL8ldIVXu0p6IuVMajrOXFWjA1/iNI5B50T968S7d63RH9Xtsf36hn3FNJpS+ulLMw7fRH9OZKC0B8Qbd+e5V8L27U/MdDBac/ole//q9a2hkriqiBQwQQQAABBBBAAIHRIJByKa4/TxokwvcqVfDlIifHQn7lGe2+O/x/woPUQB/VRLTdR6noW4/V6tIj2dHXGsq1PHONqu3qwjLV7t+gbE90EalR1fcXafnP/U7goOQ/Tmrr7W5ooUO+H6Zr8U8Czr3CylrtuDu9awXqOLZFBbetV7UVW7hZR/zrNLdbKS4ggAACCCCAAAIIJIJAa2v/i9iPGTde+/ZV6+L587riiivk8Xicjx3bzAU318JjW57Vi9ueVFNTk2bMmJEIwx/WPp4+fRqXYRWnMQQQQAABBBBAAIHhFojl7wvr0+bnfqnEWwppuDWHqb2jL28LBhW0TM//oqeggnUkXct+XKZ1TtwkoG3P7laj278Pq1XpBBUk7z/tUHkPQQUrmnrTOm19bFnwqYObtfsASyK5hOwRQAABBBBAAIHRLGD5FGyzYIL9tujixYvOfmTMWhjN8owNAQQQQAABBBBAAIHRJ5B4SyGN5Hfw3a16/e5Z/fcwrWuZo/JVHg0+d2eRloeWku2xIk+uih6aqy0PHpX2Vcv/3mqlXye1+X0qdx7wam1+rlJ7fDh4Mf3OEpV8r1rbFFD5b46qbFGX2RN9PMstBBBAAAEEEEAAgcQUsJkJ9rGggn3cHAtuIufEHBW9vhyBc3/6QM2v/6fefb5Czf9Zq4nXTdM3D+0fsmvZvv/vcrrJMwgggAACCCCAAAIjWIDAwmC+nC/PU+7lfEnfdkaNx0IdmZOu/hZymvW1XEkWiKhS43uSrpMaG9z1aHOcQEOfw7p6luYukbRfCrzVqICy+22zz/q4iQACCCCAAAIIIDDiBWxmggUULNfC+PHjnXwLlsjZPmzJJXD8/35AHe+d0ZRvLtCX/u7bavnPWg3lteTSZbQIIIAAAggggEByCPBXxEh4z+1tOhPqR35G97wIXbuYOmly10vqaA/NeNC8/gMLmqiJbmqGbjVxAQEEEEAAAQQQQGA0CtjMBFsGyRI428wFWwrJAgxujoXROGbG1LPAN17+f6NuXP9/fSfq3E4G+1q3BriAAAIIIIAAAgggkNACBBYS+vXReQQQQAABBBBAAAEEYhOwHAs2Y8E2CzJcuHDB+bi5F2KrhVIIIIAAAggggAACCCCAgEjePCL+EXiuVlqoI1UN4XTMvXat46PWbvdSPXND144El0fqViLywsf6uC3ynGMEEEAAAQQQQACB0S5gsxXc2QnuEkhuvoXRPnbGhwACCCCAAAIIIIAAAoMr8LnBrY7aLkvg6jSl3xR60sl50HctJ4/5QgUKNWt68DA9Iyd0rbb/wMKHR+XfHyzunTuL/AohOXYIIIAAAggggMBoFnADCxZcsFkKEyZMcJZGsiWRSOA8mt88Y0MAAQQQQAABBBBAYPAFWApp8E0vo8a5yi2cKx07Kr20VTuOFWqdG2joWlu7TzueCuVTWJKruaFMz1dn52q1tqlcAW2tqFbJwmXqLY1C48vlKg/VWzR/VtcWOEcAAQQQQAABBBAYhQI2O8ECCBZYsGNL5mwBhr/85S9O3oX4D7lFh6r2qK7d7YlXOcV5ypDUcrhKe06Fb7gFgntPllbkL9CU6KucIYAAAggggAACCCCAwBAKEFgYQtyBVD332yVa9tAaVcuv9fduUs6+DcruFhloVPUPS7UlYDV7VfLfChRO9XzNMhX+wKvynwQUeHa1SrJrteMfwnfDXek4tkVrH60Oni/crKIlqeF7HCCAAAIIIIAAAgiMboHIoILlWLDzSZMmxX/GQvMhVe2tk2auUPHN3UMEU27OV/HNXd9NKBAxaSpBha40nCOAAAIIIIAAAgggMMQCybcU0sFNzh9Q9kdUykb/EPMOoPqM1dpaWRhcluhgqXK+UaBNO306GWhTW1tAJw+Ua31ujpb/PNhn7z9s0brbIyMPqcr9YZXKFlqbAVUW52jx97ap6lij2tra1NZ0VFVPFmj23PWqdgITlc1p/QAAIABJREFU2Sr7aYnczAwD6ClFEUAAAQQQQAABBBJQwAIJbvJmWxbJzbNgQ7Hz+G0NqgkFFfJ7CCr02q/6N1XX7lHWPJvTwIYAAggggAACCCCAAALDKcCMheHU7qet9LvL5euYqOWrytXYUKXSwiqVdnvGq9wHyvX8U8s6Zyu4ZTzZ2vCr1/XxXUXadCAg33Nr5XvOvRmxz8jX1pd2qOQmZitEqHCIAAIIIIAAAgiMegE3sGBLItlSSPENKIS4699RQF7lDCSooBYdeisgpeVowdRR/9oYIAIIIIAAAggggAACI06AwMKIeiWpmnXP83rnttWq/MUO7d7nU+2Bk7IJBt6v5Wr5bYUqvL9Iudf1ERC4JldlvpNavW+3tr1Uqdpf++RvsEGmK/vOZSq4e7VW3z5XV/PmR9SbpzMIIIAAAggggMBQC9gMBXdzAwuRgQb33nDvW1rbJc806XCVKiLyKHizi5WX2UtvnNkKkncOsxV6EeIyAggggAACCCCAAAJDKtD518WQNjPElV9XqN2XCmNrZOEGXbq0IbaysZQaSNux1GdlvNkq/Cf7xPpA13JXK/221dp82+quNzhHAAEEEEAAAQQQSFIBS9RswQVbEtSO7eMmcT537lzcVFrOtkvtdTquFSouDuVXqK9Rhb9CNeo5uNDQFJA8WZrfW+AhbqOhYQQQQAABBBBAAAEEkkMgnoupJocwo0QAAQQQQAABBBBAYAQJuLMU3CCDLYdkQYa4bp4s3RK5FFLmfGV5pECTM/U2umvNh3T8jM1WWEDS5mgZzhBAAAEEEEAAAQQQGDYBAgvDRk1DCCCAAAIIIIAAAgjET8CWP7Kggs1YsGObpeDOVJgwYUL8OtZjy1M0dZKkj5rV0uV+w5E6tTNboYsKpwgggAACCCCAAAIIDK8AgYXh9aY1BBBAAAEEEEAAAQTiInDx4kUnYbMFF9xZCzZbwf3EpVOSMqZ7pfazXQIILWr+SNKkqdGzEkKzFTzXZUZfj1fnaRcBBBBAAAEEEEAAgSQVILCQpC+eYSOAAAIIIIAAAggkl4AFEGyzoIItfTRu3DiNHz/eCSy4gYa4iGTOkFcB1e7vXPao5fAbqmv3KGtedHJmZ7aCvLoxctmkuHSaRhFAAAEEEEAAAQQQSG6B0ZG8ObnfIaNHAAEEEEAAAQQQQKBfAVvuyPIquJubYyGuQQWnMxnKK5ZqKmpVUVEb6p5XOcV5igoruLMVZs6Pvu4OiD0CCCCAAAIIIIAAAggMm0DnXxbD1iQNIYAAAggggAACCCCAwHALWD6FCxcuODkWUlNTneY/+eQTZ8bCcPele3sWXIgKI3QvMnWB8osXdL/OFQQQQAABBBBAAAEEEBh2AQILw05OgwgggAACCCCAAAIIDL+ALX9ksxRs+SPb29JIds22+M9aGH4PWkQAAQQQQAABBBBAAIHLFyDHwuXb8SQCCCCAAAIIIIAAAgkjYMEDN5iQkpKiTz/91Om7zVpgQwABBBBAAAEEEEAAAQQGIsCMhYFoURYBBBBAAAEEEEAAgQQVsECCBRYswGDBBDewYOfMWEjQl0q3EUAAAQQQQAABBBCIkwAzFuIET7MIIIAAAggggAACCMRDIDKoYO3b7IXz58/Hoyu0iQACCCCAAAIIIIAAAgkqQGAhQV8c3UYAAQQQQAABBBBAYCACFjywmQkWSLCPbXZuMxfGjRs3kKooiwACCCCAAAIIIIAAAkkuwFJISf4PgOEjgAACCCCAAAIIJIeABQ/c5ZAsabMti2Sbez05FBglAggggAACCCCAAAIIDIYAMxYGQ5E6EEAAAQQQQAABBBBIAAE3n4IFGOxj526AIQG6n5RdDOwsUErKJvmTcvQMGgEEEEAAAQQQQGCkChBYGKlvhn4hgAACCCCAAAIIIDCIApZbwZZAcoMLdu4e2z7+W4sOVVWoosL91KghqlNd71eo6nBLVIn4nvi1KbTM1KaD8e1JZ+sBVd6VopS8cjV2Xuxy1F+ZDgX2l2v9qhxtGdJxhfqRkqLB8+tvbEEK/0ZbHmy9fB1daDhFAAEEEEAAAQQQ6FWAwEKvNNxAAAEEEEAAAQQQQGD0CFhQYezYsc7HZinYuZvIOe6BheZDqqrYo/evW6Hi4uLQJ08ZYX4LKuxR3aSczvvLs6RTe0ZOcOGgT6V37tCOx6TS/XGeX9Dh16ZVm+T/0Kv0mZKunii1nVT599ar+sMQaixlnKJt8j23Rlte8CthvnePaWwBVd6/VpWnOuSdni9psiaODaj60SJtOxb+h8cBAggggAACCCCAQC8CBBZ6geEyAggggAACCCCAAAKjScByKVy8eNGZpdA1ebN7Hp/xNqhmb500c4Xyb57Scxea6/V+u0dZ8zpDDZqaqWkeqf3syJi14N9fKs1JV+GSMulRX3yXLmo4oRO/3aqcOYtVul9S+26t/8ZsrTnQqJMNbUHjWMr0/DZG/tVYxhY4ohMN1SqaNVtrXmiUbqrV5ry5Wv5cQEfre5/fMfIHTw8RQAABBBBAAIHhESCwMDzOtIIAAggggAACCCCAQFwF3JwK7vJHNmvBkjhbUCGugYX6dxSQVzf2FlQIq7UrOobQorPtkueqXoIR4eeG48Av36NS2ZJsaWGuylQqX9SyQcEleQp2BhTMmRA07zF3wnuVKgi9E3svaYVVAx/A11Zrx9GTqv1hqs5YP/ZVqe32vXrn5G6tW3h1sL5+y7hLO6Wp6KXgI6XZbr9TlLKxc1ZG9JhSlJI2W4tXbZHfnR3hPN4m/8/XqiB7RvjfnI3PTHrdmipVlGZt5mjTwc75Eh2nqrRp1WLNdu65fYrIQ9Hv2CR5l6ms+oRO/DJfOnBUOlatk55SHfn/27sboCjve1/gX+obGtIQX26W02QUhSo0ZlwmVnbnZk5d3xqMmWaJToQTMgbbmYhtRuWcGQtJJgbqnRTMNBUztwl6Qi6rR8Om00Q8+LKcOzmzi0kGHLGsFszqxMp6jIC3pBI1hzu/59ln39iFRRZY4PvMbPZ5+T//l8+mKfv89v//tZ7Ce+uT+3RJG2O//e1zF09QgAIUoAAFKECB8SvAwML4/Ww5MgpQgAIUoAAFKEABCngFbt++HZCoWQIMEmzQlkXyFhzhnY5OJToAfGb1y69QheOtfh2ZtQyPJQFuh5ZXQZZGskcYkPCrZ7h2ZRkklMCUKQ0YYAqzHJI1JwlJbYWe3BZ2JQBh9HtAj4ZSxD2SiwxHrzf/RbtFlukZ5HauErn6NBh/04Mk6dOTZiR+vBbz07JR3uCZsRBJmUE26y3udsJ2oBDGdRVwKid70LQ7C8ZfVcDaEOFsgG4HSjfmwuLWIcdSjaLMeLX6K1bkL89G8QEbnOFiEpGMzV2L4qx0pG+wAsv1wJIspHWXICN1BTYfibCP3gFzhwIUoAAFKEABCkw8AQYWJt5nzhFTgAIUoAAFKEABCkxAAQkk+AcR5Ng/gfNokXTItIPuCziLn/jyJxh0ShDBP7iQsioPeQYdus9/gqoqLd+Cfx6G0RoBoCyDtMsEg6cLySnm0Msh7bKj9xWtlBqAQLML6vNxNyx7ioFddhQpAYohjCclHelLt8LefAolqwAkZKPs8xa8tzwZaSmeGQsDljGgqFcCHO2oXq/2pcQv4OEbB6DbWOMNhCgzYq7XoEBuabCh6YrsdMHZpM5wyLe045ZSrxo8qdmo6zvQuy5YtphR3CBBBTuqN/rNILjihEXAVpXBft0XgOntLfL6Y8CxyYyFDKSnZKHa2YL3NiUDZ4woPN6Eoz/XQZ/q156nd9oYQ/a37wh4hgIUoAAFKEABCox7gTEbWHA3WJTpr8ZUbeprEtJNm1F4oBYuz49wRuLT06bEalPIw73PN6xA9pZyWBrC/axmJHrLNihAAQpQgAIUoAAFJqrAtGnTlKHL36v+AQZtiaRRdUlYiJ/4L4WU+jgWJgDuS23ebrWdqEKVoxsL10pyZyN07XZUVVlx+oa3yCjtqMsgmVN8D6N1T2TD3Gc5pIG654LriGc5pYGKDnQ93oCi/UUwzHbDdV6e698CEtOQ/4cyZM323BxJmYHa0a53OWF9YzNWLE5Slzmak40K7ZryroNpYz5EqDInCdNTjd7vRr4Fjnw3HP3nXOR+4AZeqkSFf1BBiizJQtlyHXCiEMY5vu+ATv9llyIamw45b+9FzqJ4uC/JclOduHVXh6xd1ShY4usL9yhAAQpQgAIUoAAFQguMvcBCdxMqNsxHkiFXmf7q8H7XcMNZX4nyF2WK71qUnwn1J2pohJE462qwwfpOIXINSZj/YiWc3SPRKtugAAUoQAEKUIACFKCAKvDNN98oSx/JL8q1H8PIvuRZiL1tJmbdD+BvN6CkZm49Dnt7AhauNWPZLOltClbnPYWFCd248H9Pq2VGaxDKMkiALHOkucpyRvKouviELw/B6HRPh5zDveg9rj7UD92HSMqEvlM924TyJ9OR/WolbOfC/4hK98x7+LK9ETX7dyB/ttv73Sj9V7UI/l1YRtZadfbBR9WovRTUdrweO2xOfGmrRtlLGYBT/Q6YvngFKs4ElUVkYzO8IjMfymDyrLYUXAuPKUABClCAAhSgAAX6CoyxwIJMic3CVs+al4ZNe1HT9CU6OzvR6WpEzdv5MMlMWnctCvUmlPf5w7IvQDTP5O87hVO2EK/aaux9pQBZKWprrgObYfqXvn9AR7MvrIsCFKAABShAAQpQgAL+AlOmTFEefMtsBQko3L17F5J3QWYsyAPx0dpS5umA7ptBwYEO3PgbgPtnQVIzK3kYkIBZSlBB66kn+KAdjtK7sgzS+mq0+y3vI75KboRXbRhsaKHRFfhw3tV2D8mbo2oRj0TPLAd7k5oxIaD6K07YJUH0oiKc6pQH9LfQ6XwP+QGFPAc6PcybyvCe40t01u5AGgDX75s8eRh8NyStKkK1JQc6twW5G0vh6POjrEQkL8/Bjn1H0fJVC/auk++ANtjCJl3w1c09ClCAAhSgAAUoQIHoCIypwELXx+XYIVNiJSXaLjts+wtgXpKMxMREJM7Tw/zL93C0fi/U9GYOFP66EiOZditZb4JpeYjXkzko2LUXR51fovp5dQ1R9zvFqBzhwEd0/pVhLRSgAAUoQAEKUIACY1FAggeSU0ELJEiAQYINo76lzocObthPeKcio+Oz/8CF7gQszFB/mTNzwQ+QEFQGN07jbDuQ8HCqEnwYnXG44WoGzM+YEJwpQJecIXMWYJOH7hFtas4Fa06lNxjheCMOxlcjunkYCyUiKVWv1F+7Jd03K0NLOj1bhzQZ/PlSrHhQlqmdjgfTNqMyoEduWDZoS9iq7w9mlasBhSd1fezk1uSNFah8SQc0FMO8xeL7XicJruP86pqSjq0fyx3SD0/+iIC2o3OgLYGbfTAw8BOd2lkLBShAAQpQgAIUGHsCYyiw4EbtBxVqYrMlZah4xYBQM1XjFxWg+E31D18cs8Dm+34y+p/O5GTkbC+E2rsmVNc3jX6f2AMKUIACFKAABShAgQkhIA9jtXwK2hJI8fHxozpbQYWXZY20nAlVqKqqwifnE2DM05Y9AjBrGcxrFyJByauglqk6egFY9BTM/rkZRvqTvGJDzREgIzk4rAAg04SSQS6HZHhFEiUXw+h5cF6W0o5eh9Qyupv+59Wo/mczDJ4Z2AG9iTeh8EgZch5VDXSPZqHg7VOo3hlQqs+B7lET8nfVoOVwuGWaEpH1phUlmYD7g1zkvuFA6MVuk2FYX4C9nzpRsjzUN8Q+TfMEBShAAQpQgAIUoEAUBOJ65VvFWNi6arH1wbVKEjD9nkY0bvMED0L1XX7FYihWrpQ4elGUGapQdM7JL1eSctTpyRG1dcWCbM+aq9hlR+8rhuh0hLVQgAIUoAAFKEABCkw4AVkSdKBt0pSpOHasFvKLIkngPH36dMyYMUN5l33ZJODwetk+/GvFb3Hp0iXMnz9/oGon3PWrV6/SZcJ96hwwBShAAQpQgAIUmFgCkXy/EJGydw8r3y/Ghk5XF3pWmWB6VIdkXdLY6HOoXt71ndQn9POLmh43HAfLsXXDCqQn+ab6Ji1egRUvlsLSEG4KrgOlnl84lcq060tWFD6djiQ5l2pE9pYKOL729YF7FKAABShAAQpQgAITQ0B+T6QtISMjlqTNkydPVvItTAwBjpICFKAABShAAQpQgAIUiJbA5GhVNOz1zMvBe8dzImrG1WzzlNMjvp9n9xFVFuVCrk9roM5vyELButCzLlwfF2LzL8phCxE7cJ+zQV62A8Uo3lSDU/vNSA7Tx1utFuQ+kwuLVk+bA9ZuEwr2hLmBpylAAQpQgAIUoAAFxq2ABBUkmCDvsmnJm+X4zp0743bcHBgFKEABClCAAhSgAAUoEH2BMZRjIcLBdztQuc8TWFiSC9OSCO8b5mI9bidqf5uNFXlqWMHwmxLkhlijtOeLUuQ+7QkqpJhRZrWjpb0TMg2l09WIo5YSmD33uQ5ko/SjrrA9L83LhQVZKKltQXtnJ75sqsHePdkwxViwJewAeIECFKAABShAAQpQIGoCMmNBljySTRI3y0ubxTBWVkeNGgYrogAFKEABClCAAhSgAAWGJDB2ZixENMweON7agdIzamHzv+R6EiVHdPOQCxUb4qBmduinKp0JO/bsRcnGtBDJp7tQu68YDrldl4PqE9XImedXV6IeWfP0yDIkIzs5V5n5UHnCjrJnspDoV8y3q0fRkRoU/U9PJGGJGQUxEmjx9ZF7FKAABShAAQpQgAIjIeAfWJD2tJkLWnBhJPrANihAAQpQgAIUoAAFKECB8SEwrmYsuA7mw/yq8lgeuuerUbZRF3ufkrsFTfU22LXlifx72NOOTphgykyGfnthYFDBv9w8E7LXe0583YUe/2v++0tyka0FFfzPc58CFKAABShAAQpQYEIKfPfdd8qsBZm5cPv2bXz77bfKscxe4EYBClCAAhSgAAUoQAEKUCBSgXEzY8F1ZDNW5FigPK/PLIF1X07Y3AOR4gy2XP6+U8hZFOquHrjP2WE/ZkHFMRds726F7eNalB2rwY4lfusSxachf/8p5IeqIuBcInT+MxkCrvkdrNIjze+QuxSgAAUoQAEKUIACE1dAEjUHv2TWgrYs0sSV4cgpQAEKUIACFKAABShAgcEKjIvAguuDXBjztKBCAY4eLIIhYbAUQy+frJfZBmHqWZ6FnF+WoOREMbJWl8LhrkXhpnIYHUUw+MUWwtyNnq4utF9qhNPphO1ENawHwpX0O3//9BDLLfld5y4FKEABClCAAhSgwIQRkCWPJIggiZq7u7sRHx+P+++/n4mbJ8y/ARwoBShAAQpQgAIUoAAFoicwxgMLXXDszob51zbPTIUinPq4BKbZ0QOKdk2Jq0pQ8WYtMv6lCThTjOoTBTCsC86Q0AXXsRpUflwLx6d22M6FWjdp4J6Z58XgUlADd5slKEABClCAAhSgAAWGQUCWP5KXLIekzVyYNGmSci42kjd34LT1E1zo1gavgzFvNVK0Qwx03VuQOxSgAAUoQAEKUIACFKDAMAuM3cDCXRcsv1iB3AMuhUi3rgy1lh3Qj8JMhcF+Rvrl2dChSQmGVJxxYu86g6+KS7UofDEf5fV9gwm6R00wPmFA1iojuj5Yi8KPfLeF3Js8PeRpnqQABShAAQpQgAIUmHgCElTQAgjTpk3D9OnTAxI4j6rIjdOwHr0ALHoKeT+eGaIrbTheZUe33/W2E1WwVx0HAoIPIW7lKQpQgAIUoAAFKEABClAg6gJjM0tbtwOlq43eoELypmrYrWMjqKB8grpkGEN9lD1NKN241hNU0MH0872ocbSgvbMTt3p70d58CjX7SpD/TAaSxm5IKNTIeY4CFKAABShAAQpQYJgFJJ+CvGSWgmwSZJBjLYnzMDffT/VtOO4JKphDBhWAjs/Owp2wED/xu56yyggd3Dj7WUc/dfMSBShAAQpQgAIUoAAFKDAcAmPv8bQEFVYZUdygchh22VH7igHBiwkNB1bU6nS7YA9RWdeJSu+4zFV21DyfHKKUnLoF3PVc6rolR9woQAEKUIACFKAABSgwoIB/omaZwSCBhfvuu09ZHmnAm4erQOuXcEMHo1/QILipjpve9ZH8Ls3EAwmA+6YEFkLNcvAryl0KUIACFKAABShAAQpQIKoCYyyw4IJli9nz8F2HrD21qNmmH3MJipvqa9ScEAAKlqR5P1BXmxZuyELWE+GCCgDabKjWlkE64Vbq6qe0t37uUIACFKAABShAAQpMXAHJraAthaQpSCLnW7duQZZGGq2to7MbSPgB8JkVVed9AQSdIQ+rU/vr1UzMur+/67xGAQpQgAIUoAAFKEABCgyXwJhaCqnprVzkfqDmHjDsso7JoELXf5aiQBI3y6YrgnmVb65Fkk4LD9Si9lM1d0SfD76rCeXbi1Hb5wJPUIACFKAABShAAQpQILyAzFaQQIK2BJLMVpDNfxZD+LuH74oyG6H7As7iJ8jLy1NfBh3cjiocb1XbTZmnA7ov4AvPsXK29Tjs7cPXL9ZMAQpQgAIUoAAFKEABCoQXGDszFq5YULLd4RmJGdmP34K93hZ+ZJ4rD6YaoX843leuoRRxhmL1eJcdva/4JU72lbqnPVeTDbYw6xL1uJ2wfVyB6oNOz2wFHXLe3gqTX9d0S7OQBasSNLDm5WJzVyEK1pmQnAjI/fYTlaj4TSVsbkCn08Ht7pvg+Z46zpsoQAEKUIACFKAABca9wOTJk5UljySgIC9ZCknOzZgxQzkeVYCg/AlIfRwLmz/BhUttQGoKkLoaeTiOKkcVqrSvBElGGJPcIZcYHdWxsHEKUIACFKAABShAAQpMAIExE1hwHauE1fuBWFGY5Tvyng6xY7a0o2ajLsSV6J+q3LIClRFVm4z8/Uexd31Qv1LysfewAys2VMIFByp/lY3KXwVXqN5blFiB+eYKAI1wXQEMDweX4zEFKEABClCAAhSgAAV8ApK0WQIJWvJmCSzcvXsXU6dOVYIMvpKxsOdZ5uhvN9CBFDWDggQXApZG6sBpK5DwMPMrxMInxj5QgAIUoAAFKEABCkwsgTGyFFIXnE0Dz06I6Y8uxQDT+gIU7T+Klutf4r1NaSFzQySvfw+NrUex9yUzDCnaiHRIW56PHfuP4stO9d7kxXpkKZetqPmUMxc0Kb5TgAIUoAAFKEABCoQWkBwL2mwFWf5IAgxTpkxRzv39738PfdMInFWXOboJScHs2zpw428A7p8VPi1z6xe40K3DY/0kffbVxz0KUIACFKAABShAAQpQIJoCY2TGQiKy9vWid18Uhp5ZhN7eoihUpFah21iD3o1Rq06pKDElCwX7slDQX7Up+Tjamx+ihAFFvb2I3ghDNMFTFKAABShAAQpQgAJjTkACCz09PUqiZv9kzZJzYfr06aM3ntT50DnssJ9oQ8oq9Zc1HZ/9By50J2DhP3p/aRPQv47PrPjkfDckwXPoEgHFeUABClCAAhSgAAUoQAEKRFlgjAQWojxqVkcBClCAAhSgAAUoQIEJJqDNVtCGLbMW5JwEFmR/9LYUrM4DjlfZUVVl93RDB2Pear+gQZty3TtPN2EhnspbFn42w+gNhi1TgAIUoAAFKEABClBgQggwsDAhPmYOkgIUoAAFKEABClBgogtIEEFyLGibFli4c+eOdmoU3yW40N/cg4Guj2LX2TQFKEABClCAAhSgAAUmoIDvm8UEHDyHTAEKUIACFKAABShAgYkkIMEESdgsL0neLJv//kSy4FgpQAEKUIACFKAABShAgXsXYGDh3u14JwUoQAEKUIACFKAABcaMgP9yRxJUkICCzGKIj4/3BhnGzGDYUQpQgAIUoAAFKEABClBgVAUYWBhVfjZOAQpQgAIUoAAFKECBkRWYMmUK5KUthSRJneXFjQIUoAAFKEABClCAAhSgQKQCDCxEKsVyFKAABShAAQpQgAIUGMMCMjtBNknWLC/ZtFkM2rFykv+gAAUoQAEKUIACFKAABSgwgAADCwMA8TIFKEABClCAAhSgAAXGg4AsfTRp0iTvskcSaJCXnONGAQpQgAIUoAAFKEABClBgMALfG0xhlqUABShAAQpQgAIUoAAFxqbAt99+qwQVtGDC5Mm+3xhpsxnG5sjYawpQgAIUoAAFKEABClBgpAUYWBhpcbZHAQpQgAIUoAAFKECBURCYOnWqEliQZY8kebPkVZD927dvM8fCKHwe4Zs8h8oNG7DB+6rEufCFw1+5Xodibx0bsKGoDv8VvvQQrlzDn147hAX7W4ZQxyBuve7AlpxDqGgexD2hikarnlB18xwFKEABClCAAhSYAAK+nylNgMFyiBSgAAUoQAEKUIACFJioApJPQZI2azMVJLggm7xLcGG0trYTVbC3h2k9yYi8VSnei4FlE7BwrRnLZnkvj6udNcWHkf/YEIY0Zw1KDq9RKvivY8XY+p9DqIu3UoACFKAABShAAQpQIEiAgYUgEB5SgAIUoAAFKEABClBgPApIAEGWPJJ3eWkzFmSsWrBhNMadsioPvtCB1oM2HK+yo/uBmdoJKEGFvy3EU3nLIGc7PrPik6NWYBwHF7yD5w4FKEABClCAAhSgAAViTIBLIcXYB8LuUIACFKAABShAAQpQYDgEZNkj/5cEGbTcCjKTIZa2js/Owg0dHvuxJ7DQehz29gQs/Ec1qCB9nfnjn2BhQjcuNLbFUtfZFwpQgAIUoAAFKEABCkwIAc5YmBAfMwdJAQpQgAIUoAAFKDDRBWQpJHlNmjRJmaGgzVKQmQuxtbXhi/PdSFj0E+9Mho7ObiDhB0j1X/boRiv+2g2g+0u0IcVbNrbGMk56I/kIXr6MOm04Kx/DxRfTtSPlfc0PZuF63R+R+X6Pej51LhpeN2COf6nmk1iw+2vfmRD1yMWm/Yfw7EmtWDze+t063DjQAAAgAElEQVTP8HRARdo19d1bPlSbgUWDjuLxiE5yRNRjW6vnUog+BYxLivmX0cYU1LbWp+07n0PBYk/dwY5B96ilWlCRcxZ7PLcob/7t+Z/nPgUoQAEKUIACFBhFAQYWRhGfTVOAAhSgAAUoQAEKUGAkBbQZClpeBcmtcN9998VU8mZ1tkICFi7wLYPUcbMbuH+WsgSS4tV6HFUOwGjQwe7oxo0bQIp/0GEkUcd7W54H52teWI6Lax5SR9t8EhXN6b4H5gDq3q9HnTwAt0jAQX04nrn/AW8AQn04n4APLc9Br9SiPtBfsB/eMoD2kH82PrSs9JXb78D1F4OCFB539QH+wMGH0B9TD7a9XA95+H9RHv4rD/7PomKpb2xq/dKfn3n6o45tweWbauBk8Upc3CkBk8t4rW4+9olR80klMBIQVFAcu/HW757DPk+QROrOfA1+ARgZ/1nsYSAh9MfFsxSgAAUoQAEKxJQAl0KKqY9j9DvjPpitTImXL52FJzy/NuqnW01vZXjLx8UVwjbgLQ6UJqnT7uM2WOD21O1rNxuWK/00GOLSUO4NUV0Ep3rgbrCg4l82Y4Vhvm/8SelYsXozCg/Uwun3Q6wIKryHIg6UepYviHvDcQ/38xYKUIACFKAABSaigCyFJJvMWpDlj6ZNm6Ycy0yG2Ng60HqlG0h6zC8pcwdu/M3XO8mtUNX8AJ7KW81ZCj6WYdprQYXMMFj5mPrAXGtl8cqAoIJyOuBheDqMKwFcvonrysUWHH6/B9t3asECOfkQnn52NnDyKpo89V6vc2BbqwQJgsqFDCrIQ3iZ2aA+9O9vRoOn+pBvAQ//5xjw85XAns9b1LLXHXj3JIL6nY6CnbOB1mtwqIMDFq9EwwvxqHvfgT9dV80kEOOdqSABkw+/xpoXDAEzL/Tr5mKNfz24ga9aAZn9wY0CFKAABShAAQrEugBnLMT6JzTC/dOlGaGHVfnj3nbOCaxSf08UuhsuNB7TvgZIiWo4zpTBlBm6tHK2rQU2TzTBtMoAXT9FAy51OWHZZUPangLPL4UCro7cwSUrCl8sQHm9FhLxa9rthE1eJypRjmSY365B5S/1SPQrwl0KUIACFKAABSgwWgJafgUtebP8kERbFunu3buj1a3Adlu/wIVuyaXgn855JmbdrxZTEjjDiDyz//UEzBrt57Dacjj+owl40O5/YQztX7+JPwPYvjRw2aNBj8BTT93uQ4FL/CgVxeOr64B+DnDlrz1A6lwY+ln2SGt7z+56AMFBCO3qvb8//IN4wK4GROa4v0EdZuPn2lJGWrWL/wHbcRZfyVcCT1/nrPkZPvzrITz78lllDA3a7A7lHjVgUNdajwXva5X43n/krScdG174CzLf95QbD/8O+YbJPQpQgAIUoAAFxpkAAwvj7AMd8nCWGJGtA5rcQNOnTri26ZEcrtIrDtSe8L/oRo2jCUWZ4YMR7iYbbMotOpgWh63Zv1J0HSuE8cVyON0lsAcsNhpQbPgPLlmQa8iFxRNTSH6yADlPGmF8VId4ab3LBdsJKyzv1MIFF6y/ykB7lx22Vwzq9eHvIVugAAUoQAEKUIACYQW0wIIUkH0JMMi7tjxS2BtH7EIHTje7gSSj32wFtfGZDyQA5+04u+gp5GkJnQEouReQMGI9DNuQLIdjCXuVFzwCAbMDhqiyfedyPPJhPba9fBKPeJdNGmKl8AQ37qmaa/jqsufG1m8gk7CD4yMyi0FZKqmf+iVAcXENlOWUFuw+iwUnPYGK4HwV/dTBSxSgAAUoQAEKUGAkBGJlzvNIjJVtRCSgh+F5T8GPGuHqZ2mjriY7rFJ0SRne26MGE5qONcIVtp0etHyufePKhWGJr6BuY43yxba3twY5D/vOy15PlwvOEBMEAksN91EXat/c4QkqGFBU244va/ei5Jc5yFpugklez+SjZN9RfNlpR4ln1objVTOKI1hSarh7z/opQAEKUIACFKCANkNBlkCSxM1yLIGFb7/9NjZyLCizFQDdPP/ZCOrnNvNBCR4k4Ad+eRcAbdmk+VwSabj+9Z7zAH4E4M9Xrw2thQjrUWYLeB7KD9zgQ3j69cewHV/j2dccniWXBr6r/xKe4MDcB9SggO4+rMHXsDcH3dV8FXsgiZ9955v2SwJoWZZpOd5K/RrP7vcsp6QUmYVHUoG6v97w3TDQnhKseg4Xg5ddGug+XqcABShAAQpQgAIjJMDAwghBj51m4pG+NMfT3Wo4zoXreQ8aP61QL64zIn9plrp/ohaOsDkSnGjSZji8ZEKG8jP/cPXH2Hm3DdXvqNEN/ZsVKHnS71tEcFcTDSg6WA2zct6N8req+wm2BN/MYwpQgAIUoAAFKDA8ArLskcxS+O6777wzFSS4IIGFO3fuDE+jEdfqma2QsBCPp4a4KfVxLEzoxoX/exodnssdn/2HumxSRt9ARIgaeOqeBGRpHskdUI8K/4frSvLmwVQYpp6gKuas+WGIQME1/EmSNweVVQ/TUfA7yVNwGZlRCC54czys8yz9NGc+fpoK7Nl90psHQklMreSd+KEvX4I3WbPkhngIT2+dizUnz2JLnRaQ0fJJ+J8LOaA+J69f7VaCao8ET3/oU5InKEABClCAAhSgwMgKcCmkkfUeE63p9CaYYIENbjQ6XcDjoZYsaoLjA3U4BUvTgEc7UQCgAlbYm7qQ83CIzAKXnLCfUe8xP5ExtnIPXHJCm2thfDRt4M9xnhkF/wxYfwvgmA1N7nwk9xOLGLhClqAABShAAQpQgAJDE9BmJ8hshfh43y88ZsyYoQQchlb7EO/WZisYlmFmyKpmYpn5KcD6CT6puuApoYORCZxDakXzpLI0zz+cxAL//AjK2v+Da0XqacAfkelfj1QRkEcgHQWWWXjktXpk5mjrCkkehZ/1WVbI2/ocA/bt/AYLdl9GZs43+DDSZZE8syj2BPRHZhwEJY5+/Tk8sv8Qns055G1SljS66MmhcL3uj8h8v0cZhzdZ8xwDXn/hmpIrYQs8yx/JDISd4hiUZyF1Lhq0ZY6uO7Dl5cuo87YkO8F9CrjIAwpQgAIUoAAFKDBqAgwsjBp9DDeckoGsJYDtDGBtdqEHyX1zBJyxo0b5Ab8ZRn0ikJgB43qg4ghQ8WkjytaZ+tzT1exZOgkmZC0NfMruPpiNpBxZWMmM6q/U5ZB85zSrYhjjitWDXXb0vmLQLgS+dzlhfbcClVU1qD0nnUyGYX0WcjftQO6TyfcW0JgMJdG01Oa80q7UGdho8FE80vVmQOeEaXEX2uVGvyH7xlYCe28RwowEjjfiYHxV6u6/HNAF50cVKP99NY7WO+H2jDl7YwHyn0nrd8w9V2yoftsCy6c22BrUhaySM00wPZED8y+ykZUSIkgUPFweU4ACFKAABSgQ8wISWJBZCzJLwf/1ve/FwCTm1NXICzVTIUBVggt5WBZwjgcjItBvDglZkug5PB3UEf2Lz+Fi0Dlv/oCg84GHoevzlpFAgiXor+d+++e9M2hHghjpyo+jgi70OVTG8mKf08qJcGMKeX6gfoYaW+hmeZYCFKAABShAAQqMugADC6P+EQy+A7dtW3G78Xj/N877NyQ8Gz6Jcv8362FcB0BmF3zggPNNE4Jrcn1eq04HXpUFg5ITQQfDKhNwxKbc0/Smqc/DcueZGrVZnQnDNWO98/NyrN1SiFol6KGN0gXHkQrlVb6pBqf2m8MnpNZuCX5/1IBcAOUAbK9uRbm+Gjse7/+Bu5I3YmNwRcNwfMcF64u5yD7gn93CN+ay5UWoPlwC0+y+bbuObMaKDZV9lmpyNdhQKa/fFsP0GyuO7mQC6r56PEMBClCAAhQYWwISWJD8CvKSYIIEF7TlkWSJJG4UoAAFKEABClCAAhSgAAUiFYiBnydF2lWW8wn8CJP+6S9IKAzz+qdyxPkK39Ne2lJZ2AiAuxHOS8FVuOE4YVNO6p/M8D6kT16apQYg3DXeJY98d7rQ8qnnaf/zBkSwmBB0z1Sis7MTLX9QsxUARTja2amc69wW9CslpSErtpoLUQsT8t+uQaNLyrajxfYedixXpwu4DmRja8ADeF8P+92LNyF3j6dNdy0Klz6I+VlbUX7QBqe7nwzX/VYapYtvqEEF3fIdeM/WgvbOTrQ7T+G9bSZ1lkV9KVasK/dbF1Ztt+eLUuR6ggrJ68tQ41DvDTRzw/ZrMwo/7opSZ1kNBShAAQpQgAKjLSABBgkkyLsEGCS4IPvcYkugrmQDNmyQVyXCpj3rr8vX61Cs3L8BWw/8pb+SvEYBClCAAhSgAAUoQIFBC3DGwqDJJsYNiXojzErGBCvszV3Imef36/yuRtiPiIMO2Qa/uQxLjMjWAU3uJtR+7sKOJX65GdxNsHkSNxc8kdFnmaSQqvGJSIwHehK0q9PxYGJiv8v6QJeDakc1cuZp9wCJy/NRtjQZSF2BcjdQe9AG16Z8b0DEV7L/Pf22ahx15WLt7x1KQdexChTKS450aTA9mQXzqiyYVhmRNtu3bnH/tUbnqu75atircnxjSjQhf48JJn0ujHkWuBsKUXzAjKObfJ9J05+KoYxk1V4cPVwQEOxRzdIR/4QRpWfcqPigFsXrcvxXc4pOx1kLBShAAQpQgAIjJiC5FWST5M13795VkjZLgGHq1Kmjn2NhxBTGQkOPIv/wYeQPtatz1qDk8Jqh1sL7KUABClCAAhSgAAUoEFKAMxZCsvAkHk6DcYnqUHPOf4kdoOdzGyqUS7kweMqoJfUwPK/u2U444L8aUU+z3ZP82JOTQS0W9X9m/aYkIKjgbSDBhOwtniQHJ5xw3dMkg2RkvW1Hu60MOY/6JUyQRtxO2A6UY2vOCqTPmY6kxbko/ciJEfmdv24Hqvf5BRW8gwaSny9ByZPqidq3rX6zFtxwnfcUfDgJSX73eHcTDMjOMyBtuQmmBOCW9wJ3KEABClCAAhQYiwISTJCZCbIEkgQZpk2bpiRxln3OWBiLnyj7TAEKUIACFKAABShAgdETYGBh9OxjvGU9jGb14bm7vjFgDX7nF9Vq3583Ij3gh/mehMVy9YgdjX5P1Z3n1KWT4M3JMBzD18Ok9/0iP7iF5BSj55QL7q+Dr0Z+LEsOVTe345arETX7i1CwLq3PL/nd5ywoNqcjzVQM2xDaiqRXui3ZyoP/0GWTYdroWUrqTC0a27RSOiQv9gRHDhQgd7cNrm7tmu9dv82OFtspnNofOnDhK8k9ClCAAhSgAAXGgoAEFSSIIDMVZOaC7DOoMBY+OfaRAhSgAAUoQAEKUIACsSXAwEJsfR4x1Rt9pqQrBnCiCU5vkMCFxnp1LoLpCX2fB+q6pVkwKTdVwPa5Ni3ABeenTcpZ3XJfTgblRFT/kYykEAmKo9qEX2Xx8/QwbyrB3j+1oP3OLbQ77ajZvwP5mb7ghlvJb1AKR4iH9n5VDWnXmOJrL1RFyakZntM2uPymkRg2liBLueJG7a9XYP79cZhv2IzC31tgO+9Gz91QtfEcBShAAQpQgAJjVUByKcimBRW0JZFkJoPkWuBGAQpQgAIUoAAFKEABClAgUgF+g4hUagKWi19sRI4y7ho0ab90v+JArZIrQY8syVsQvKVkIMuzPJLtnFO92uWE/SN1N/fxSNI2B1c6Bo4nx0O3yADzpjK85/gSnU3VKMj09LuhGCVHApeTiuaIMpKDlmUKrny2zhPsAZxf+UUWUvJR/flemFN8N7gaKlH+q1ysSEvC9CnzsXZLBWrbvFElX0HuUYACFKAABSgw5gS02QoSRJC8CvHx8cqSSHJ+ypQpY24847fDDpTGxSlLVslnExdXqubFGuyAr1iQ7V/PBkvAUqWDrc5XvgUVOYewpe6a7xT3KEABClCAAhSgAAUmnAADCxPuIx/EgHV6mFZJeTdsTeqD8a4mO6xySpftzcEQWKNvCaWmT53qEkrnm1CjFCqAaWnA2kmBt46jo8QlOdh7sBqeRYhQW98UpS9yQ0OKD0rXnvh4AWqct/CloxplL2UhLSBG4ULtO1uxNjUNK3Y7oM0/GVoPeDcFKEABClCAAqMlIDMVtOCCNmtBOzdafZJ2205UoaoqzOuE9usWrYcdOG1Vyx5v1c6Nz/cSh7pMVW9vEQz3MsSHc1DjWeqq3aL9VXovFfEeClCAAhSgAAUoQAEK9BUIeszYtwDPxKLAn/Hd//kh+l1dZ96/RaHjych4Uq8shWRrkkTESWj8VE3bjOcN0IdpQV1CqRz4qBGunhyg2aY+VF9vREZimJti+bS7FoV55bC7bOjZ0ojGbeFGHjSIeSZkrwesRwB84ISrCn2Wjgq6454OG2V9o8yAiEBgPV+74clwgfRHQpSbHI/kzBzskNc+oMfthL2+FtaDlaj52Am3BJZ+bUZJpgslyydGYCgQkEcUoAAFKECB8SGg5VSQ2Qna0keSX0ELNozWKFNW5cFvAqWnG204XmVH9wMzvd3q+MyKT84DCxfpgPN+szC9JbhDAQpQgAIUoAAFKEABCoyUAAMLIyUdxXammvZiqprIIIq1hq5Kv1RW4W8CPmqCa18SmpRlkICCJzIQ7hFz/FITClCOCtjQdL4LPU3qY23TKsOwPFgP3fMontUl4cFmGxzy/fVYI1zb9AixCFSIBm8BWp6C9clh7mmE6wpgeDjE7ehCZ3uo84HnXG4pFCJg4CnmatbCCmYkh2wnsL54XRpMG+W1AyX1xTCZSiHzLSobnChZHmFQJbBKHlGAAhSgAAUoEAMCEkyQIIJskm9BCy7IcawlcO747Czc0MH4Y09gofU4PrnyAzyVtwwzW4/jQgx4sgsUoAAFKEABClCAAhSYyAJcCmkif/qRjP1RIwqknLsRznon7GfkwAyjvp+pB4lp0CtLKDWh0VkL+ztyT5icDJH0YdTLpMGwyfPg/kQxig9GmC+hzYZqT24JvSEtzKP/LtwKt8ZQT6M3N0V/BE1VNgn9hNmaYN3nCSw8meULYHQ5ULElGysM85F9MPwv/hKXr0W2p2b33XAdDdM0T1OAAhSgAAUoEFMCkydPDggmqOv3xynJnGOqo2jDF+e7kbDocd9MhtTVyDMvg2/+Qmz1eMR6482bEJh3wX0wWwka9fd33VD62LT/EBbkaK+z2BOisut1f/QrcwgL9rf4lbqGP72m5mUILHey79+x1x3Y4m3rEBa85sB1v5q4SwEKUIACFKAABSgQGwIMLMTG5xC7vUjMgHG9dM8K2wc2Nb/CKr8H1CF77llCCYDtg2pPsjkT9ItCFh7ESfXX/YO4IUpF42HaUoEcJbbghiVnBTb/3gG3NhshRCtd5yzY+vxm1Mo1XQ6K1wf+0l+XnOEJNNhQeTBU/oIuOH5bjNLwz/x9rZ4pRMEboerogeONAhQqwSAdCl7K9s2aSIxHj8MKW4ML1rcr4QizrlbPfx715McACpaM08TbPknuUYACFKAABca1gLbskQzy7t27kKWRZNaC//lYAFBnKyTgBwsmfBih78cheRO+kjxexTC+4VCvX7GgIMcKs6UdNRvDz2LtW1kkZ9SAwLOX56LB8hwuKq/HsD3oVgk8ZL6fgA/9y5w82ycoUPd+PTL/+kO/er7Gs/4BiOaTWPDyNfz0d1pbz+HDuZeRyeBCkDgPKUABClCAAhSgwOgLMLAw+p9BjPdAhzSD+lC88kCl0lfdE+m+B9Rheq83ZCsPzt3HatX1/V8yISPc2klh6tBOJ87WFh6y4+ixJri7utDVNcK/nn/YjJI/FHgS57lQ+Ssjkh5Jx9otxag4WAtbvQ22+lpYfl+MrU+nI21xLioaZATJyH+7BObgJYgys1C4RB2h41Uz1m6vhOOSjMsNZ70FpRsyYHzVAUPmwKn69Ev0cLxqRPqGcljPuNDV1QXXGSvKN6QrdUgruucrULzOf5aJHvm7CtTgRkMxjPpslH/kgNMtfehC16UmWH+/GWvXyzJIADJLkL/K/3617/wnBShAAQpQgAJjR+D27dtKMEESNkswQXvJ8a1bt2JkIB1ovdINJD2GZbNipEux1g0JLjhKgFeNKG1ww7I9F9Zd9mEIKgBobsa21ni8tdWAOeEcrjvw7klg+86VfjnY0lGwczbQeg0O/+kGKx/DxRfTPTWlw7gSwOWbnhkJ1/CnD7/GmhcMeNqvMf26uVgTXE+4vvA8BShAAQpQgAIUoMCICTDHwohRj92G1CCBrLKvbrmZgb++DzmyJQbkAij3XDQ/kYF7fSwdrzehQFeOCrcbll9kwPILAM9U40trzoABjpB9u8eTyev2orbZiJJf7UB5vRtwO1H7TilqlaWeQlSaYkbZgUrs+J+hRq5HwTslqH2mGDa3G7a3NsP41uaASgw7T6E2y4EHn/D8Gi3gqu8g+zfVKDhowuYPCpF9pNB3wbNn+OVRVL+d1WcppsR1Zajd40LW9lq426woNFvR924JKhTg6MEi6O8xMNSnQzxBAQpQgAIUoMCoCGgzE+RdZipIngXZl3ct98KodMy/0dYvcKE7AQv/sW86Z/9iMbcvv7Tf/XVgtwIeogdeGvJRZhHaLY1IMiQBKIH98MA/RrmXNq9f7QZSH4LB70F/n3rc36AOs/HzxUFXFv8DtuMsvpIvEf3d773tBr5qBepa67Hgfe9J786PIq7Hewt3KEABClCAAhSgAAWGUYCBhWHEHTdVBwQJCmBaGsET5vgMmF4CypWH7iZkLR3CtOzZWSirr0b8q3thPeKAkuHgoxYl0KHNZRgp68RHc1BmM6PwTC2OWm2obWhE0wlPn2RmwKMmpC/VI2d9PrJXpSGxn/+FxWcW4ZTTDOu7FaisqkHtOfm2lAzDpnxs/UU+cjJ1QEP/QQVl3A+mIb/KiYzlJSj5gxXWBhcgCZifzEW+Vk9IoHjotx2Fc10tav5gheULO1rqnWoASe5/wgTzpgLkDjCOkFXzJAUoQAEKUIACMSegJWvWlj/SAgwSVNCujW6nO3C62Q0kGcfebIXFK3HRMrJ6rjarp0F1uVBD8AzZke1O1Fpb88Jy7FvzUNTqY0UUoAAFKEABClCAAsMj0M9jz+FpkLWOQYF4E8p6e1E2qK4nImtfL3r3RXaTbmMNejeGLxu/KAdlh3NC9mGge7VaIy2nlQ//Hg/dEjPy5RW+UGRXEtNg/ue9yivkDZlF6O0tCnHJgKLeXviuJEK/qQw1mwb3KUnFiSlZyH8za+hjCdFLnqIABShAAQpQIHYEJIAgwQR5yfJHkmdhypQpyvJIMmth1DdltgKgWzzGZiuMApwkaza+akb1VzVIPhAH43YLTIdz+sxQjUrXWr/BFf9JB9dv4s/+Fevuwxpchr0Z0PvPWmi+ij2Ix1sR/75oFh5JBfb89QYABhb8iblPAQpQgAIUoAAFYlGAORZi8VNhnyhAAQpQgAIUoAAFKBBlAW25Iy1xswQXJIGzlnshys0NsjrPbIWEhXg8dZC3TrTi3mTNFch5GDC8YkfJkVwkacmco+gxJ+MhrMHXeLfumlrrdQe2vHwZdf5tzJmPn0pAYPdJNTeXcq0FFbI01MofBuRL8L+t7/5DePrZ2cDJs9iitde3EM9QgAIUoAAFKEABCsSIAGcsxMgHwW5QgAIUoAAFKEABClBgOAVkuaPJkycjPj4eU6dOVWYryHFM5FjQZisYlmFmSIQ2HK+ye3N+SRG3owpVsmpkwkI8ZQ53X8jKxu7JhlLEGYqB9dVo36hNBTCgyFGCYoMRcbCj95Uo5luYY8C+nd9gwW4t78FsfGhZjp++Vo9/9yo+hKdffw6P7D+EZ3MOec/KkkYXB7ukkSwptVPyVWjteapLnYuG1/tJIO1tlTsUoAAFKEABClCAAiMlENcrc6G5UYACFKAABShAAQpQgAJjTqCzs3PAPk+aMhXHjtViUlwcpk2bhhkzZmD69OnKuxxr+RVe+V9v418rfotLly5h/vz5A9Y70QpcvXp1hFwcKI0zAo5eFGVGR1mWTkr6KBvtw7VcUnS6yVooQAEKUIACFKAABUZZIJLvF9LFsncPg0shjfKHxeYpQAEKUIACFKAABSgwUgJaEEHa0/ItyHJI/K3RSH0CbIcCFKAABShAAQpQgALjQ4CBhfHxOXIUFKAABShAAQpQgAIUGFBA8ixIcEFeWs4FLc/CgDezwIgKFBvilM8oLq4UsuLToLcrFmTHqXUk5VgHfTtvoAAFKEABClCAAhSgQH8CzLHQnw6vUYACFKAABShAAQpQYJwISNJmSdQsORYksCD5FeRdZit8++2342SU42EYBhT19qJoqEN5OAc1vTlDrYX3U4ACFKAABShAAQpQIKQAZyyEZOFJClCAAhSgAAUoQAEKjC+BKVOmKEmbJZjw3//935BAg2wxkbx5fFFzNBSgAAUoQAEKUIACFBj3AgwsjPuPmAOkAAUoQAEKUIACFKAAcOfOHWXGggQVZBkkmakg57TlkWhEAQpQgAIUoAAFKEABClAgUgEGFiKVYjkKUIACFKAABShAAQqMAwEJJGgvmb0gmyyLxI0CFKAABShAAQpQgAIUoECkAvwGEakUy1GAAhSgAAUoQAEKUGAMC8iSR/55FWTmgrxk5oJc4xYrAudQuWEX6rzdWYNXD+fjUe9xhDvX61BcUIm/aMVT87G3dA3+h3Y8nt6vO7Dl5cv40c7nULB4PA2MY6EABShAAQpQgAKxK8DAQux+NuwZBShAAQpQgAIUoAAFoiYgAQRtpoLsSyJnWQrp+9//vpLEOWoNDbKithNVsLeHuSnJiLxVKerFG6dhPXoB3d6iOhjzVsNz1Xt2vOysKT6M/MeGMJo5a1ByeI1SwX8dK8bW/xxCXdG6tfkkFuzuxlu/+xmenhOtSlkPBShAAQpQgAIUoMBoCDCwMBrqbJMCFKAABShAAQpQgAIjLCCzE2RmgpZjYcaMGd4ZDCPclYDmUlblhQgOtOF4lR3dD8z0lJCsirgAAAiWSURBVG3D8aMXkGDIgzlVTnXgtPUT2K2nMdO8DFqpgIp5QAEKUIACFKAABShAAQoMmwBzLAwbLSumAAUoQAEKUIACFKBA7AjIMkjaTIW7d+8q+3IsLwk2xNLW8dlZuKHDYz/WQgYpWJ2Xh9VKUEF6OhPLFuuA7r+i9UYs9Zx9oQAFKEABClCAAhSgwMQQ4IyFifE5c5QUoAAFKEABClCAAhNcQBI1f/vtt5CZCrIkkmzauwQXYmdrwxfnu5Gw6CchZjIE97IbNzsAzAo+z+OoCCi5C67hp78zAHvrsa3VU+vKx3DxxfSAJq7X/RGZ7/f4zvmVadp/CM+e9F3a9vIhbNMOU+ei4XUDBrcy0jX86TW//njq+pFWp/Legoqcs9jjPRcfuATTIMYGZQmnr701wW9svpPcowAFKEABClCAAhNLgIGFifV5c7QUoAAFKEABClCAAhNUQIIHMlNBS+IsDBJY0JZGihUWdbZCAhYu0GYrhO5ZR6dkW0iAd7Wk0MV4dsgCPdj2cj2273wOFyUxsvKQ/SwqlqZ7EyWrgYPZ+NDyM+iV9tSH+gsu31SCBvoXn8PFF7V7h5pjwRMwkIf7r3uCG57kzd6hascvLMfFNQ8pp5XAx8uH8FVAgueBx6YGTBLwoeU5z9jUoMaC/egTXPG2zx0KUIACFKAABSgwAQS4FNIE+JA5RApQgAIUoAAFKEABCkhgYerUqQqEBBPkWHvFjk4HWq90A0mPYVl/sxBunMZ/nI+gXOwMbEz3RIIKBRJUkG3xP2A7gD9fvaYeX3fg3ZPA9p0rPQ/e5XQ6CnbOBlqvwXFdLRatf16v+wv2YDY+DJox4V9/08eXUZc6F697ggpybc4aA95KBfZ83uJfVAmYhB0bWnD4/Z6gsT2Ep5+dDZy8iqaAmnhAAQpQgAIUoAAFJpYAZyxMrM+bo6UABShAAQpQgAIUmKACPT09uO+++zBlyhRv0mYJMEybNg3fffddbKi0foEL3QlY+I8p/fRHTeTcDR2Mq/or108V0b4UvFSO1D9Rlstxf4M6zMbPtcCDZqsEIM7iK7c81ddODv39yl97gJU/9AtiBNd5DV9dBtYY5wc1+xAMxnjAfhMS64ioS9dv4s8A6nYf8ltSSWsvHl9dB/QRVaTdw3cKUIACFKAABSgwfgQYWBg/nyVHQgEKUIACFKAABShAgbACkrxZNgkmSK4FWQZJ8i3cuXNHWSIp7I0jdqEDp5vdQJKxn9kKbTheZYcbCVi4dnUEORhGqPOLV+KiZYTaYjMjLhAwY2PEW2eDFKAABShAAQpQIDYFuBRSbH4u7BUFKEABClCAAhSgAAUGFNCCBQMWBJTcChJU0GYnaImbJe+Cdi6SeoatjDJbAdDNCzcLoQOnrVpQwdxP8GHYesiKQwno7sMafA17c9DF5qvYg3g8ogs6H43Dy+qsA29VyqwJ7eghPDIXqLN/qcxM0M4C1+Cw9wBzH4hstoLcOOcBSEJo77JPvsq4RwEKUIACFKAABSa8AAMLE/5fAQJQgAIUoAAFKEABCoxVAZlx0F9wwf+aBBIkgCAv2Zdr2vH3vjfaXws8sxUSFuLx1NCfRtuJT9RlktYyqBBaaJTOzpmPn0rugt0n/XIOtKBi99fKkkVP+y8VpAQhevDvjZ78DPfQZf1Syd1wGYe1QEaIZai0Mq/V+dq5XufAttZ4vLXOk/A5orbTseGFeNS9X48Krb2I7mMhClCAAhSgAAUoMP4F4m7evNnb0tKC7u7u8T9ajpACFKAABSgwAgKyhvncuXMxffr0EWiNTVCAAhNRQIICElSYNGnSgMP/f93f4NixWkyKi1PyKci93//+95X75WYJLsTHx2NX+Tv414rf4tKlS5g/f/6A9Ua1QOtxVDnc0BnysDpUYMFzPWSbCQvxlHkZZoa8GL2TV69eVZwuX76Mb775JnoVsyYKUIACFKAABShAAQpEWeBen0s8+OCDEfWk6M3/jckSVOjt7UWkN0VUMwtRgAIUoAAFJrDA7du3IQ+eFi1aNIEVOHQKUGA4BWT5or///e+4//77I25G/ubXZiZIMEE2Sdws5yXnwqhuqauRFyqgoHVqoOtauWF+l/+2y8bvTsMMzeopQAEKUIACFKAABYYkMBLPJb4nMxWmTp06pI7yZgpQgAIUoAAFfALy/6v8NavPg3sUoMDwCEhwYTCb5FeQl8xYkJfMdpBAw5QpU5QAw2Dqmqhl5b/t/O40UT99jpsCFKAABShAAQqMHYGReC4x2oupjp1Pgz2lAAUoQAEKUIACFKDAGBaQWQoSjJD8ClriZhmOnJeAAzcKUIACFKAABShAAQpQgAKRCjCwEKkUy1GAAhSgAAUoQAEKUGAcCGhBBQkmSFBBlkLSlkYaB8PjEChAAQpQgAIUoAAFKECBERCYPAJtsAkKUIACFKAABShAAQpQYJQFJJ+CJGn2z7Mg+5JoXoIL3ChAAQpQgAIUoAAFKEABCkQqwMBCpFIsRwEKUIACFKAABShAgXEiIAEFWXdVci1IEmgGFsbJB8thUIACFKAABShAAQpQYIQEGFgYIWg2QwEKUIACFKAABShAgdEU0HIraO8STJDlkCTIwMDCaH4ybJsCFKAABShAAQpQgAJjT+B7CQkJuH379tjrOXtMAQpQgAIUiFEB+f/V++67L0Z7x25RgALjRUBmGwxmkyCCf5JmLcAwZcoUTJo0aTBVTdiy8t92fneasB8/B04BClCAAhSgAAXGjMBIPJeYnJ6ejpaWFnR2do4ZGHaUAhSgAAUoEMsC8uBp7ty5sdxF9o0CFBjjAhJUmDFjxqBGIbMStGTNcqMcy2yF0Z6x0HaiCvb2MENJMiJvVQqADpy2foIL3X7lEhbiKfMyzPQ7Ndy78t/2y5cv87vTcEOzfgpQgAIUoAAFKECBIQmMxHOJ/w9TImrX0Y2iwgAAAABJRU5ErkJggg==;" vertex="1" parent="1">
          <mxGeometry x="11.5" y="20" width="975" height="390" as="geometry"/>
        </mxCell>
        <mxCell id="NDK0GwqyKnv-CmoKG9JU-3" value="" style="curved=1;endArrow=block;html=1;entryX=0.593;entryY=0.364;entryDx=0;entryDy=0;entryPerimeter=0;exitX=0.129;exitY=0.238;exitDx=0;exitDy=0;exitPerimeter=0;endFill=1;strokeWidth=4;fillColor=#ffe6cc;strokeColor=#FF8000;" edge="1" parent="1" source="NDK0GwqyKnv-CmoKG9JU-1" target="NDK0GwqyKnv-CmoKG9JU-1">
          <mxGeometry width="50" height="50" relative="1" as="geometry">
            <mxPoint x="200" y="240" as="sourcePoint"/>
            <mxPoint x="250" y="190" as="targetPoint"/>
            <Array as="points">
              <mxPoint x="450" y="50"/>
            </Array>
          </mxGeometry>
        </mxCell>
        <mxCell id="NDK0GwqyKnv-CmoKG9JU-4" value="" style="curved=1;endArrow=block;html=1;entryX=0.101;entryY=0.292;entryDx=0;entryDy=0;entryPerimeter=0;exitX=0.602;exitY=0.441;exitDx=0;exitDy=0;exitPerimeter=0;endFill=1;strokeWidth=4;fillColor=#ffe6cc;strokeColor=#FF8000;" edge="1" parent="1" source="NDK0GwqyKnv-CmoKG9JU-1" target="NDK0GwqyKnv-CmoKG9JU-1">
          <mxGeometry width="50" height="50" relative="1" as="geometry">
            <mxPoint x="149.7750000000001" y="262.82000000000005" as="sourcePoint"/>
            <mxPoint x="609.9749999999999" y="327.95000000000005" as="targetPoint"/>
            <Array as="points">
              <mxPoint x="310" y="230"/>
            </Array>
          </mxGeometry>
        </mxCell>
      </root>
    </mxGraphModel>
  </diagram>
</mxfile>
